SplineFontDB: 3.2
FontName: Dogica_Pixel
FullName: Dogica Pixel
FamilyName: Dogica Pixel
Weight: Regular
Copyright: OFL Copyright (c) 2020, Roberto Mocci
Version: 001.000
ItalicAngle: 0
UnderlinePosition: 0
UnderlineWidth: 100
Ascent: 640
Descent: 160
InvalidEm: 0
sfntRevision: 0x00010000
LayerCount: 2
Layer: 0 0 "Back" 1
Layer: 1 0 "Fore" 0
XUID: [1021 55 -321596728 9028]
StyleMap: 0x0040
FSType: 0
OS2Version: 4
OS2_WeightWidthSlopeOnly: 0
OS2_UseTypoMetrics: 1
CreationTime: 1581766240
ModificationTime: 1744506524
PfmFamily: 17
TTFWeight: 400
TTFWidth: 5
LineGap: 0
VLineGap: 0
Panose: 2 0 5 3 0 0 0 0 0 0
OS2TypoAscent: 700
OS2TypoAOffset: 0
OS2TypoDescent: 100
OS2TypoDOffset: 0
OS2TypoLinegap: 0
OS2WinAscent: 700
OS2WinAOffset: 0
OS2WinDescent: 100
OS2WinDOffset: 0
HheadAscent: 700
HheadAOffset: 0
HheadDescent: 100
HheadDOffset: 0
OS2SubXSize: 520
OS2SubYSize: 559
OS2SubXOff: 0
OS2SubYOff: 112
OS2SupXSize: 520
OS2SupYSize: 559
OS2SupXOff: 0
OS2SupYOff: 383
OS2StrikeYSize: 39
OS2StrikeYPos: 207
OS2CapHeight: 700
OS2XHeight: 600
OS2Vendor: 'PfEd'
OS2CodePages: 00000001.00000000
OS2UnicodeRanges: 8000002f.0000000a.00000000.00000000
MarkAttachClasses: 1
DEI: 91125

StartChar: .notdef
Encoding: 65536 -1 0
Width: 400
GlyphClass: 1
Flags: MW
HStem: 0 40<80 320 80 360> 426 40<80 320 80 80>
VStem: 40 40<40 40 40 426> 320 40<40 426 426 426>
LayerCount: 2
Fore
SplineSet
40 0 m 1
 40 466 l 1
 360 466 l 1
 360 0 l 1
 40 0 l 1
80 40 m 1
 320 40 l 1
 320 426 l 1
 80 426 l 1
 80 40 l 1
EndSplineSet
EndChar

StartChar: exclam
Encoding: 33 33 34
Width: 300
GlyphClass: 1
Flags: MW
HStem: 0 100<100 200 100 200> 680 20G<100 200 200 200>
VStem: 100 100<0 100 0 100 200 700>
LayerCount: 2
Fore
SplineSet
100 700 m 1
 200 700 l 1
 200 200 l 1
 100 200 l 1
 100 700 l 1
100 100 m 1
 200 100 l 1
 200 0 l 1
 100 0 l 1
 100 100 l 1
EndSplineSet
EndChar

StartChar: quotedbl
Encoding: 34 34 35
Width: 600
GlyphClass: 1
Flags: MW
HStem: 300 100<100 200 100 200 300 400> 400 200<100 300 200 300 200 300 200 300 200 400 400 500 200 400 200 400>
VStem: 100 100<300 400 300 400> 200 100<300 400 300 400 400 600> 300 100<300 400 400 600 300 400 300 400> 400 100<300 600 400 600 400 600>
LayerCount: 2
Fore
SplineSet
200 600 m 1x50
 300 600 l 1x50
 300 400 l 1x90
 200 400 l 1xa0
 200 600 l 1x50
300 400 m 1x90
 400 400 l 1
 400 300 l 1
 300 300 l 1x88
 300 400 l 1x90
400 400 m 1
 400 600 l 1
 500 600 l 1
 500 400 l 1x44
 400 400 l 1
200 400 m 1xa0
 200 300 l 1
 100 300 l 1
 100 400 l 1
 200 400 l 1xa0
EndSplineSet
EndChar

StartChar: numbersign
Encoding: 35 35 36
Width: 800
GlyphClass: 1
Flags: MW
HStem: 0 21G<200 300 200 200 500 600 500 500> 100 100<100 200 100 200 300 500 600 700> 400 100<100 200 100 200 300 500 600 700> 580 20G<200 300 300 300 500 600 600 600> 580 20G<200 300 300 300 500 600 600 600>
VStem: 200 100<0 100 0 100 200 400 500 600> 500 100<0 100 0 100 200 400 500 600>
LayerCount: 2
Fore
SplineSet
200 600 m 1xf6
 300 600 l 1
 300 500 l 1
 500 500 l 1
 500 600 l 1
 600 600 l 1
 600 500 l 1
 700 500 l 1
 700 400 l 1
 600 400 l 1
 600 200 l 1
 700 200 l 1
 700 100 l 1
 600 100 l 1
 600 0 l 1
 500 0 l 1
 500 100 l 1
 300 100 l 1
 300 0 l 1
 200 0 l 1
 200 100 l 1
 100 100 l 1
 100 200 l 1
 200 200 l 1
 200 400 l 1
 100 400 l 1
 100 500 l 1
 200 500 l 1
 200 600 l 1xf6
300 400 m 1
 300 200 l 1
 500 200 l 1
 500 400 l 1
 300 400 l 1
EndSplineSet
EndChar

StartChar: dollar
Encoding: 36 36 37
Width: 700
GlyphClass: 1
Flags: MW
HStem: -100 100<200 300 400 500 100 200> 0 100<100 200 100 200 100 300> 200 100<200 300 100 200 400 500> 400 100<500 600> 500 100<100 500 200 500 200 300 200 500 400 500 400 400 200 600>
VStem: 100 100<0 100 300 500> 200 300<-100 0 0 100 -100 0 -100 0 200 300 400 500 500 600> 300 100<0 200 0 200 300 500> 500 100<-100 200 0 200 0 200 0 300 0 200 400 500>
LayerCount: 2
Fore
SplineSet
200 600 m 1xaa
 500 600 l 1xaa
 500 500 l 1x32
 400 500 l 1
 400 300 l 1x29
 500 300 l 1
 500 200 l 1x2a
 400 200 l 1
 400 0 l 1xa9
 500 0 l 1
 500 -100 l 1
 200 -100 l 1xaa
 200 0 l 1
 300 0 l 1
 300 200 l 1xad
 200 200 l 1xaa
 200 300 l 1
 300 300 l 1
 300 500 l 1
 200 500 l 1xad
 200 600 l 1xaa
500 500 m 1x32
 600 500 l 1
 600 400 l 1
 500 400 l 1x3080
 500 500 l 1x32
500 200 m 1xa2
 600 200 l 1
 600 0 l 1x6080
 500 0 l 1
 500 200 l 1xa2
200 0 m 1xa4
 100 0 l 1
 100 100 l 1
 200 100 l 1x64
 200 0 l 1xa4
200 300 m 1
 100 300 l 1
 100 500 l 1
 200 500 l 1x2c
 200 300 l 1
EndSplineSet
EndChar

StartChar: percent
Encoding: 37 37 38
Width: 900
GlyphClass: 1
Flags: MW
HStem: -100 100<200 300 200 300 600 700> 0 200<200 400 300 400 300 400 300 400 500 600 300 500 600 700 700 800> 200 100<200 400 200 316 600 700> 300 100<200 300 100 200> 400 200<100 200 100 200 200 300 300 400 100 300 100 300 500 600> 600 100<100 300 200 300 200 300 200 300 200 400 600 700>
VStem: 100 100<400 600> 200 100<-100 0 -100 0 300 400 400 600 600 700> 300 100<-100 200 0 200 0 200 300 300 300 400 400 600> 400 100<0 200 0 200 200 400 400 600> 500 100<0 200 200 300 400 600> 600 100<-100 0 -100 0 0 200 -100 0 200 300 600 700> 700 100<-100 200 0 200 0 300 0 200 0 200>
LayerCount: 2
Fore
SplineSet
316 200 m 1x40
 316 198 l 1
 316 200 l 1x40
316 198 m 1
 316 192 l 1
 316 198 l 1
200 700 m 1x05
 300 700 l 1x05
 300 600 l 1x09
 200 600 l 1x0a
 200 700 l 1x05
300 600 m 1x09
 400 600 l 1
 400 400 l 1x0880
 300 400 l 1x11
 300 600 l 1x09
400 400 m 1
 500 400 l 1
 500 200 l 1x4840
 400 200 l 1x4880
 400 400 l 1
500 400 m 1
 500 600 l 1
 600 600 l 1
 600 400 l 1x0820
 500 400 l 1
600 600 m 1
 600 700 l 1
 700 700 l 1
 700 600 l 1x0410
 600 600 l 1
500 200 m 1x4040
 600 200 l 1x4020
 600 0 l 1x8020
 500 0 l 1x4020
 500 200 l 1x4040
600 200 m 1
 600 300 l 1
 700 300 l 1x2010
 700 200 l 1x4010
 600 200 l 1
700 200 m 1x4010
 800 200 l 1
 800 0 l 1x4008
 700 0 l 1x8010
 700 200 l 1x4010
700 0 m 1x8010
 700 -100 l 1
 600 -100 l 1x8010
 600 0 l 1x8020
 700 0 l 1x8010
400 200 m 1x4080
 400 0 l 1x4080
 300 0 l 1x81
 300 200 l 1
 400 200 l 1x4080
300 0 m 1x81
 300 -100 l 1
 200 -100 l 1
 200 0 l 1
 300 0 l 1x81
300 400 m 1x11
 300 300 l 1
 200 300 l 1x11
 200 400 l 1x12
 300 400 l 1x11
200 400 m 1x12
 100 400 l 1
 100 600 l 1
 200 600 l 1x0a
 200 400 l 1x12
EndSplineSet
EndChar

StartChar: ampersand
Encoding: 38 38 39
Width: 800
GlyphClass: 1
Flags: MW
HStem: 0 100<200 500 100 200 600 700> 100 100<400 500 400 500 500 600 400 500 400 500 600 700> 200 100<400 500 600 700> 300 100<100 200 100 200 200 400 100 200 400 500> 400 200<100 200 100 200 200 400 400 500> 600 100<100 400 200 400 200 400 200 400 200 500>
VStem: 100 100<100 300 400 600> 200 200<0 300 200 300 200 300 100 300 100 300 300 400 400 600 200 400 200 400 600 700> 400 100<200 300 400 600> 500 100<0 100 0 100 100 200 200 300> 600 100<0 100 0 200 0 100 0 100 200 300>
LayerCount: 2
Fore
SplineSet
200 700 m 1x05
 400 700 l 1x05
 400 600 l 1x09
 200 600 l 1x0a
 200 700 l 1x05
400 600 m 1x09
 500 600 l 1
 500 400 l 1x0880
 400 400 l 1x11
 400 600 l 1x09
400 400 m 1x11
 400 300 l 1x21
 200 300 l 1
 200 400 l 1x12
 400 400 l 1x11
400 300 m 1
 500 300 l 1x2080
 500 200 l 1x4080
 400 200 l 1x2080
 400 300 l 1
500 200 m 1x4080
 600 200 l 1x4040
 600 100 l 1
 500 100 l 1x8040
 500 200 l 1x4080
600 200 m 1
 600 300 l 1
 700 300 l 1
 700 200 l 1x2020
 600 200 l 1
600 100 m 1x8040
 700 100 l 1
 700 0 l 1
 600 0 l 1x8020
 600 100 l 1x8040
500 100 m 1x8240
 500 0 l 1
 200 0 l 1x8140
 200 100 l 1
 500 100 l 1x8240
200 100 m 1x92
 100 100 l 1x42
 100 300 l 1
 200 300 l 1
 200 100 l 1x92
200 400 m 1x12
 100 400 l 1
 100 600 l 1
 200 600 l 1x0a
 200 400 l 1x12
EndSplineSet
EndChar

StartChar: quotesingle
Encoding: 39 39 40
Width: 400
GlyphClass: 1
Flags: MW
HStem: 300 100<100 200 100 200> 580 20G<200 300 300 300> 580 20G<200 300 300 300>
VStem: 100 100<300 400 300 400> 200 100<300 600 400 600 400 600>
LayerCount: 2
Fore
SplineSet
200 600 m 1xc8
 300 600 l 1
 300 400 l 1xc8
 200 400 l 1xd0
 200 600 l 1xc8
200 400 m 1x90
 200 300 l 1
 100 300 l 1
 100 400 l 1
 200 400 l 1x90
EndSplineSet
EndChar

StartChar: parenleft
Encoding: 40 40 41
Width: 400
GlyphClass: 1
Flags: MW
HStem: 0 100<200 300 100 200> 580 20G<100 200 200 300 200 200 200 200> 580 20G<100 200 200 300 200 200 200 200> 600 100<100 300 200 300 200 300 200 300>
VStem: 100 100<100 600> 200 100<0 100 0 600 0 100 0 100 600 700>
LayerCount: 2
Fore
SplineSet
200 700 m 1x94
 300 700 l 1
 300 600 l 1x94
 200 600 l 1xc8
 200 700 l 1x94
200 600 m 1xc8
 200 100 l 1
 100 100 l 1
 100 600 l 1
 200 600 l 1xc8
200 100 m 1
 300 100 l 1
 300 0 l 1
 200 0 l 1x84
 200 100 l 1
EndSplineSet
EndChar

StartChar: parenright
Encoding: 41 41 42
Width: 400
GlyphClass: 1
Flags: MW
HStem: 0 100<100 200 100 200> 580 20G<100 200 100 100 200 300 300 300> 580 20G<100 200 100 100 200 300 300 300> 600 100<100 200 100 200 100 300>
VStem: 100 100<0 100 0 100 600 700> 200 100<0 600 100 600 100 700 100 600 100 600>
LayerCount: 2
Fore
SplineSet
100 700 m 1x98
 200 700 l 1x98
 200 600 l 1xc8
 100 600 l 1
 100 700 l 1x98
200 600 m 1xc8
 300 600 l 1
 300 100 l 1xc4
 200 100 l 1
 200 600 l 1xc8
200 100 m 1x88
 200 0 l 1
 100 0 l 1
 100 100 l 1
 200 100 l 1x88
EndSplineSet
EndChar

StartChar: asterisk
Encoding: 42 42 43
Width: 700
GlyphClass: 1
Flags: MW
HStem: 200 100<100 200 100 200 500 600> 300 100<100 200 200 300 100 200 100 200 300 400 400 500 500 600> 400 100<100 200 100 200 100 300 500 600> 580 20G<300 400 400 400> 580 20G<300 400 400 400>
VStem: 100 100<200 300 200 300 400 500> 200 100<200 300 200 200 300 400 400 500> 300 100<100 300 300 400 100 300 100 300 400 600> 400 100<200 300 200 300 300 400 400 500> 500 100<200 300 200 400 200 300 200 300 400 500>
LayerCount: 2
Fore
SplineSet
300 600 m 1x51
 400 600 l 1
 400 400 l 1x51
 300 400 l 1x52
 300 600 l 1x51
400 400 m 1
 500 400 l 1x4080
 500 300 l 1x8080
 400 300 l 1
 400 400 l 1
500 400 m 1
 500 500 l 1
 600 500 l 1
 600 400 l 1x2040
 500 400 l 1
500 300 m 1x8080
 600 300 l 1
 600 200 l 1
 500 200 l 1x8040
 500 300 l 1x8080
400 300 m 1x41
 400 100 l 1
 300 100 l 1x41
 300 300 l 1x42
 400 300 l 1x41
300 300 m 1x42
 200 300 l 1x84
 200 400 l 1x44
 300 400 l 1
 300 300 l 1x42
200 300 m 1
 200 200 l 1
 100 200 l 1
 100 300 l 1
 200 300 l 1
200 400 m 1x44
 100 400 l 1
 100 500 l 1
 200 500 l 1x24
 200 400 l 1x44
EndSplineSet
EndChar

StartChar: plus
Encoding: 43 43 44
Width: 700
GlyphClass: 1
Flags: MW
HStem: 300 100<100 300 100 300 400 600> 580 20G<300 400 400 400> 580 20G<300 400 400 400>
VStem: 300 100<100 300 100 300 400 600>
LayerCount: 2
Fore
SplineSet
300 600 m 1xd0
 400 600 l 1
 400 400 l 1
 600 400 l 1
 600 300 l 1
 400 300 l 1
 400 100 l 1
 300 100 l 1
 300 300 l 1
 100 300 l 1
 100 400 l 1
 300 400 l 1
 300 600 l 1xd0
EndSplineSet
EndChar

StartChar: comma
Encoding: 44 44 45
Width: 400
GlyphClass: 1
Flags: MW
HStem: -100 100<100 200 100 200> 0 21G<100 200 200 300 200 200 200 200>
VStem: 100 100<-100 0 -100 0> 200 100<-100 200 0 200 0 200>
LayerCount: 2
Fore
SplineSet
200 200 m 1x90
 300 200 l 1
 300 0 l 1x50
 200 0 l 1xa0
 200 200 l 1x90
200 0 m 1xa0
 200 -100 l 1
 100 -100 l 1
 100 0 l 1
 200 0 l 1xa0
EndSplineSet
EndChar

StartChar: hyphen
Encoding: 45 45 46
Width: 600
GlyphClass: 1
Flags: MW
HStem: 200 100<100 500 100 500>
LayerCount: 2
Fore
SplineSet
100 300 m 1
 500 300 l 1
 500 200 l 1
 100 200 l 1
 100 300 l 1
EndSplineSet
EndChar

StartChar: period
Encoding: 46 46 47
Width: 300
GlyphClass: 1
Flags: MW
HStem: 0 100<100 200 100 200>
VStem: 100 100<0 100 0 100>
LayerCount: 2
Fore
SplineSet
100 100 m 1
 200 100 l 1
 200 0 l 1
 100 0 l 1
 100 100 l 1
EndSplineSet
EndChar

StartChar: slash
Encoding: 47 47 48
Width: 600
GlyphClass: 1
Flags: MW
HStem: -100 21G<100 200 100 100> 680 20G<400 500 500 500>
VStem: 100 100<-100 100 -100 100> 200 100<-100 300 100 300 100 300> 300 100<100 500 300 500 300 500> 400 100<300 700 500 700 500 700>
LayerCount: 2
Fore
SplineSet
400 700 m 1xc4
 500 700 l 1
 500 500 l 1xc4
 400 500 l 1xc8
 400 700 l 1xc4
400 500 m 1xc8
 400 300 l 1xc8
 300 300 l 1xd0
 300 500 l 1
 400 500 l 1xc8
300 300 m 1xd0
 300 100 l 1xd0
 200 100 l 1xe0
 200 300 l 1
 300 300 l 1xd0
200 100 m 1xe0
 200 -100 l 1
 100 -100 l 1
 100 100 l 1
 200 100 l 1xe0
EndSplineSet
EndChar

StartChar: zero
Encoding: 48 48 49
Width: 700
GlyphClass: 1
Flags: HMWO
HStem: 0 100<200 500 100 200> 580 20G<100 200 200 200 200 500 200 200 500 600 600 600> 580 20G<100 200 200 200 200 500 200 200 500 600 600 600> 600 100<100 500 200 500 200 500 200 500 200 600>
VStem: 100 100<100 600> 300 100<200 500 200 500> 500 100<0 600 100 600 100 700 100 600 100 600>
CounterMasks: 1 0e
LayerCount: 2
Fore
SplineSet
200 700 m 1x9e
 500 700 l 1x9e
 500 600 l 1
 200 600 l 1xce
 200 700 l 1x9e
500 600 m 1xce
 600 600 l 1
 600 100 l 1
 500 100 l 1
 500 600 l 1xce
500 100 m 1
 500 0 l 1
 200 0 l 1
 200 100 l 1
 500 100 l 1
200 100 m 1
 100 100 l 1
 100 600 l 1
 200 600 l 1
 200 100 l 1
EndSplineSet
EndChar

StartChar: one
Encoding: 49 49 50
Width: 700
GlyphClass: 1
Flags: MW
HStem: 0 100<100 300 400 600 100 300> 500 100<100 300 100 300> 680 20G<300 400 400 400>
VStem: 300 100<100 500 500 500 600 700 100 700>
LayerCount: 2
Fore
SplineSet
300 700 m 1
 400 700 l 1
 400 100 l 1
 600 100 l 1
 600 0 l 1
 100 0 l 1
 100 100 l 1
 300 100 l 1
 300 500 l 1
 100 500 l 1
 100 600 l 1
 300 600 l 1
 300 700 l 1
EndSplineSet
EndChar

StartChar: two
Encoding: 50 50 51
Width: 700
GlyphClass: 1
Flags: MW
HStem: 0 100<100 200 300 600 100 200> 200 100<200 400 300 400 300 400 300 400> 300 100<300 500 400 500 400 500 400 500> 500 100<100 200 100 200> 600 100<100 500 200 500 200 500 200 500 200 600>
VStem: 100 100<0 200 100 200 500 600> 200 100<100 200 100 200> 300 100<100 300 200 300 200 300> 400 100<200 400 300 400 300 400> 500 100<400 600>
LayerCount: 2
Fore
SplineSet
200 700 m 1x8a
 500 700 l 1
 500 600 l 1x8a40
 200 600 l 1x9440
 200 700 l 1x8a
500 600 m 1
 600 600 l 1
 600 400 l 1xa840
 500 400 l 1xa880
 500 600 l 1
500 400 m 1xa080
 500 300 l 1xa080
 400 300 l 1xc1
 400 400 l 1
 500 400 l 1xa080
400 300 m 1xc1
 400 200 l 1xc1
 300 200 l 1xc2
 300 300 l 1
 400 300 l 1xc1
300 200 m 1xc2
 300 100 l 1xc2
 600 100 l 1
 600 0 l 1
 100 0 l 1
 100 100 l 1xc440
 200 100 l 1
 200 200 l 1
 300 200 l 1xc2
200 600 m 1x94
 200 500 l 1
 100 500 l 1
 100 600 l 1
 200 600 l 1x94
EndSplineSet
EndChar

StartChar: three
Encoding: 51 51 52
Width: 700
GlyphClass: 1
Flags: MW
HStem: 0 100<100 500 100 500> 300 100<200 500 200 500 500 600> 580 20G<100 500 100 100 500 600 600 600> 580 20G<100 500 100 100 500 600 600 600> 600 100<100 500 100 500 100 600>
VStem: 500 100<0 300 100 300 100 400 100 300 100 300 400 600>
LayerCount: 2
Fore
SplineSet
100 700 m 1xcc
 500 700 l 1xcc
 500 600 l 1xe4
 100 600 l 1
 100 700 l 1xcc
500 600 m 1xe4
 600 600 l 1
 600 400 l 1
 500 400 l 1
 500 600 l 1xe4
500 400 m 1
 500 300 l 1
 200 300 l 1
 200 400 l 1
 500 400 l 1
500 300 m 1
 600 300 l 1
 600 100 l 1
 500 100 l 1
 500 300 l 1
500 100 m 1
 500 0 l 1
 100 0 l 1
 100 100 l 1
 500 100 l 1
EndSplineSet
EndChar

StartChar: four
Encoding: 52 52 53
Width: 700
GlyphClass: 1
Flags: MW
HStem: 0 21G<400 500 400 400> 200 100<200 400 200 400 500 600> 400 100<100 300 200 300 200 300 200 300> 680 20G<400 500 500 500>
VStem: 100 100<300 400 300 400 300 400> 200 100<300 500 400 500 400 500> 400 100<0 200 0 200 300 500 500 500 600 700>
LayerCount: 2
Fore
SplineSet
400 700 m 1xf6
 500 700 l 1
 500 300 l 1
 600 300 l 1
 600 200 l 1
 500 200 l 1
 500 0 l 1
 400 0 l 1
 400 200 l 1
 100 200 l 1
 100 400 l 1
 200 400 l 1
 200 300 l 1xfa
 400 300 l 1
 400 500 l 1
 300 500 l 1
 300 600 l 1
 400 600 l 1
 400 700 l 1xf6
200 400 m 1
 200 500 l 1
 300 500 l 1
 300 400 l 1xf6
 200 400 l 1
EndSplineSet
EndChar

StartChar: five
Encoding: 53 53 54
Width: 700
GlyphClass: 1
Flags: MW
HStem: 0 100<200 500 100 200> 100 100<100 200 100 200 100 500> 400 100<200 500 200 500 200 600> 600 100<200 600 200 200>
VStem: 100 100<100 200 500 600> 500 100<0 400 100 400 100 500 100 400 100 400>
LayerCount: 2
Fore
SplineSet
100 700 m 1x3c
 600 700 l 1
 600 600 l 1
 200 600 l 1
 200 500 l 1
 500 500 l 1
 500 400 l 1
 100 400 l 1
 100 700 l 1x3c
500 400 m 1
 600 400 l 1
 600 100 l 1x7c
 500 100 l 1xbc
 500 400 l 1
500 100 m 1xbc
 500 0 l 1
 200 0 l 1
 200 100 l 1
 500 100 l 1xbc
200 100 m 1
 100 100 l 1
 100 200 l 1
 200 200 l 1x7c
 200 100 l 1
EndSplineSet
EndChar

StartChar: six
Encoding: 54 54 55
Width: 700
GlyphClass: 1
Flags: MW
HStem: 0 100<200 500 100 200> 300 100<200 500 200 500 200 600> 500 100<500 600> 600 100<100 500 200 500 200 500 200 500 200 600>
VStem: 100 100<100 300 400 600> 500 100<0 300 100 300 100 400 100 300 100 300 500 600>
LayerCount: 2
Fore
SplineSet
200 700 m 1xdc
 500 700 l 1xdc
 500 600 l 1xec
 200 600 l 1
 200 700 l 1xdc
500 600 m 1xec
 600 600 l 1
 600 500 l 1
 500 500 l 1
 500 600 l 1xec
200 600 m 1xdc
 200 400 l 1
 500 400 l 1
 500 300 l 1
 200 300 l 1
 200 100 l 1
 100 100 l 1
 100 600 l 1
 200 600 l 1xdc
500 300 m 1
 600 300 l 1
 600 100 l 1
 500 100 l 1
 500 300 l 1
500 100 m 1
 500 0 l 1
 200 0 l 1
 200 100 l 1
 500 100 l 1
EndSplineSet
EndChar

StartChar: seven
Encoding: 55 55 56
Width: 700
GlyphClass: 1
Flags: MW
HStem: 0 21G<200 300 200 200> 200 100<200 400 300 400 300 400 300 400> 300 100<300 500 400 500 400 500 400 500> 600 100<200 500 200 200>
VStem: 100 100<500 600> 200 100<0 200 0 200> 300 100<0 300 200 300 200 300> 400 100<200 400 300 400 300 400> 500 100<300 700 400 600 600 600>
LayerCount: 2
Fore
SplineSet
100 700 m 1xb880
 600 700 l 1
 600 400 l 1xb880
 500 400 l 1xb1
 500 600 l 1
 200 600 l 1
 200 500 l 1
 100 500 l 1
 100 700 l 1xb880
500 400 m 1xb1
 500 300 l 1xb1
 400 300 l 1xd2
 400 400 l 1
 500 400 l 1xb1
400 300 m 1xd2
 400 200 l 1xd2
 300 200 l 1xd4
 300 300 l 1
 400 300 l 1xd2
300 200 m 1xd4
 300 0 l 1
 200 0 l 1
 200 200 l 1
 300 200 l 1xd4
EndSplineSet
EndChar

StartChar: eight
Encoding: 56 56 57
Width: 700
GlyphClass: 1
Flags: MW
HStem: 0 100<200 500 100 200> 100 200<100 200 100 200 200 500 500 600> 300 100<100 200 100 200 200 500 100 200 500 600> 400 200<100 200 100 200 200 500 500 600> 600 100<100 500 200 500 200 500 200 500 200 600>
VStem: 100 100<100 300 400 600> 200 300<0 100 100 300 0 100 0 100 300 400 400 600 600 700> 500 100<0 300 100 300 100 400 100 300 100 300 400 600>
LayerCount: 2
Fore
SplineSet
200 700 m 1x0a
 500 700 l 1x0a
 500 600 l 1x12
 200 600 l 1x14
 200 700 l 1x0a
500 600 m 1x12
 600 600 l 1
 600 400 l 1x11
 500 400 l 1x22
 500 600 l 1x12
500 400 m 1x22
 500 300 l 1x42
 200 300 l 1x44
 200 400 l 1x24
 500 400 l 1x22
500 300 m 1
 600 300 l 1
 600 100 l 1x41
 500 100 l 1x82
 500 300 l 1
500 100 m 1x82
 500 0 l 1
 200 0 l 1x82
 200 100 l 1x84
 500 100 l 1x82
200 100 m 1x84
 100 100 l 1
 100 300 l 1
 200 300 l 1x44
 200 100 l 1x84
200 400 m 1x24
 100 400 l 1
 100 600 l 1
 200 600 l 1x14
 200 400 l 1x24
EndSplineSet
EndChar

StartChar: nine
Encoding: 57 57 58
Width: 700
GlyphClass: 1
Flags: MW
HStem: 0 100<200 400 200 400> 100 100<200 500 400 500 400 500 400 500> 300 100<200 500 100 200> 580 20G<100 200 200 200 200 500 200 200 500 600 600 600> 580 20G<100 200 200 200 200 500 200 200 500 600 600 600> 600 100<100 500 200 500 200 500 200 500 200 600>
VStem: 100 100<400 600> 400 100<0 200 100 200 100 200> 500 100<100 600 200 300 300 300 400 600 200 700 200 600 200 600>
LayerCount: 2
Fore
SplineSet
200 700 m 1x2680
 500 700 l 1x2680
 500 600 l 1
 200 600 l 1x3280
 200 700 l 1x2680
500 600 m 1x7280
 600 600 l 1
 600 200 l 1x7280
 500 200 l 1x73
 500 300 l 1
 200 300 l 1
 200 400 l 1
 500 400 l 1
 500 600 l 1x7280
500 200 m 1x63
 500 100 l 1x63
 400 100 l 1xa3
 400 200 l 1
 500 200 l 1x63
400 100 m 1xa3
 400 0 l 1
 200 0 l 1
 200 100 l 1
 400 100 l 1xa3
200 400 m 1
 100 400 l 1
 100 600 l 1
 200 600 l 1x32
 200 400 l 1
EndSplineSet
EndChar

StartChar: colon
Encoding: 58 58 59
Width: 300
GlyphClass: 1
Flags: MW
HStem: 100 100<100 200 100 200> 400 100<100 200 100 200>
VStem: 100 100<100 200 100 200 400 500>
LayerCount: 2
Fore
SplineSet
100 500 m 1
 200 500 l 1
 200 400 l 1
 100 400 l 1
 100 500 l 1
100 200 m 1
 200 200 l 1
 200 100 l 1
 100 100 l 1
 100 200 l 1
EndSplineSet
EndChar

StartChar: semicolon
Encoding: 59 59 60
Width: 400
GlyphClass: 1
Flags: MW
HStem: -100 100<100 200 100 200> 0 21G<100 200 200 300 200 200 200 200> 300 100<200 300 200 300>
VStem: 100 100<-100 0 -100 0> 200 100<-100 200 0 200 0 200 300 400>
LayerCount: 2
Fore
SplineSet
200 400 m 1x28
 300 400 l 1
 300 300 l 1
 200 300 l 1
 200 400 l 1x28
200 200 m 1
 300 200 l 1
 300 0 l 1x68
 200 0 l 1xb0
 200 200 l 1
200 0 m 1xb0
 200 -100 l 1
 100 -100 l 1
 100 0 l 1
 200 0 l 1xb0
EndSplineSet
EndChar

StartChar: less
Encoding: 60 60 61
Width: 500
GlyphClass: 1
Flags: MW
HStem: 100 100<300 400 200 300> 200 100<200 300 100 200> 300 100<100 200 100 200 200 300> 400 100<100 300 200 300 200 300 200 300> 500 100<200 400 300 400 300 400 300 400>
VStem: 100 100<300 400> 200 100<200 300 400 500> 300 100<100 200 100 300 100 200 100 200 500 600>
LayerCount: 2
Fore
SplineSet
300 600 m 1x09
 400 600 l 1
 400 500 l 1x09
 300 500 l 1x12
 300 600 l 1x09
300 500 m 1x12
 300 400 l 1x12
 200 400 l 1x24
 200 500 l 1
 300 500 l 1x12
200 400 m 1x24
 200 300 l 1x44
 100 300 l 1
 100 400 l 1
 200 400 l 1x24
200 300 m 1
 300 300 l 1x42
 300 200 l 1x82
 200 200 l 1x42
 200 300 l 1
300 200 m 1x82
 400 200 l 1
 400 100 l 1
 300 100 l 1x81
 300 200 l 1x82
EndSplineSet
EndChar

StartChar: equal
Encoding: 61 61 62
Width: 800
GlyphClass: 1
Flags: MW
HStem: 200 100<100 700 100 700> 400 100<100 700 100 700>
LayerCount: 2
Fore
SplineSet
100 500 m 1
 700 500 l 1
 700 400 l 1
 100 400 l 1
 100 500 l 1
100 300 m 1
 700 300 l 1
 700 200 l 1
 100 200 l 1
 100 300 l 1
EndSplineSet
EndChar

StartChar: greater
Encoding: 62 62 63
Width: 500
GlyphClass: 1
Flags: MW
HStem: 100 100<100 200 100 200> 200 100<100 300 200 300 200 300 200 300> 300 100<200 300 300 400 200 300 200 300> 400 100<200 300 100 200> 500 100<100 200 100 200 100 300>
VStem: 100 100<100 200 100 200 500 600> 200 100<100 300 200 300 200 300 400 500> 300 100<200 400 300 400 300 500 300 400 300 400>
LayerCount: 2
Fore
SplineSet
100 600 m 1x0c
 200 600 l 1x0c
 200 500 l 1x14
 100 500 l 1
 100 600 l 1x0c
200 500 m 1x14
 300 500 l 1x12
 300 400 l 1x22
 200 400 l 1x12
 200 500 l 1x14
300 400 m 1x22
 400 400 l 1
 400 300 l 1x21
 300 300 l 1x42
 300 400 l 1x22
300 300 m 1x42
 300 200 l 1x42
 200 200 l 1x84
 200 300 l 1
 300 300 l 1x42
200 200 m 1x84
 200 100 l 1
 100 100 l 1
 100 200 l 1
 200 200 l 1x84
EndSplineSet
EndChar

StartChar: question
Encoding: 63 63 64
Width: 700
GlyphClass: 1
Flags: MW
HStem: 0 100<300 400 300 400> 200 100<200 300 200 300> 300 100<200 500 300 500 300 500 300 500> 500 100<100 200 100 200> 600 100<100 500 200 500 200 500 200 500 200 600>
VStem: 100 100<500 600> 200 100<200 300> 300 100<0 100 0 100> 500 100<300 600 400 600 400 700 400 600 400 600>
LayerCount: 2
Fore
SplineSet
200 700 m 1x8a80
 500 700 l 1
 500 600 l 1x8a80
 200 600 l 1x9480
 200 700 l 1x8a80
500 600 m 1
 600 600 l 1
 600 400 l 1
 500 400 l 1xa880
 500 600 l 1
500 400 m 1
 500 300 l 1xa180
 300 300 l 1xc280
 300 400 l 1xa180
 500 400 l 1
300 300 m 1xc280
 300 200 l 1
 200 200 l 1
 200 300 l 1
 300 300 l 1xc280
200 600 m 1x9480
 200 500 l 1
 100 500 l 1
 100 600 l 1
 200 600 l 1x9480
300 100 m 1x8180
 400 100 l 1
 400 0 l 1
 300 0 l 1
 300 100 l 1x8180
EndSplineSet
EndChar

StartChar: at
Encoding: 64 64 65
Width: 900
GlyphClass: 1
Flags: MW
HStem: 0 100<200 700 100 200> 100 100<300 600 300 700 700 800> 200 100<300 400 500 600 300 400> 400 100<300 400 300 500> 580 20G<100 200 200 600 200 200 200 200 600 700 700 700> 580 20G<100 200 200 600 200 200 200 200 600 700 700 700> 600 100<100 600 200 600 200 600 200 600 200 700>
VStem: 100 100<100 600> 400 100<300 400 400 400> 600 100<300 600> 700 100<0 200 100 200 100 200>
LayerCount: 2
Fore
SplineSet
200 700 m 1x13c0
 600 700 l 1x13c0
 600 600 l 1
 200 600 l 1x19c0
 200 700 l 1x13c0
600 600 m 1x39c0
 700 600 l 1
 700 300 l 1
 600 300 l 1
 600 600 l 1x39c0
600 300 m 1
 600 200 l 1
 300 200 l 1
 300 300 l 1
 400 300 l 1
 400 400 l 1
 300 400 l 1
 300 500 l 1
 500 500 l 1
 500 300 l 1
 600 300 l 1
200 600 m 1
 200 100 l 1x9980
 100 100 l 1x5180
 100 600 l 1
 200 600 l 1
200 100 m 1
 700 100 l 1
 700 0 l 1x91a0
 200 0 l 1
 200 100 l 1
700 100 m 1
 700 200 l 1
 800 200 l 1
 800 100 l 1x51a0
 700 100 l 1
EndSplineSet
EndChar

StartChar: A
Encoding: 65 65 66
Width: 700
GlyphClass: 1
Flags: MW
HStem: 0 21G<100 200 100 100 500 600 500 500> 200 100<200 500 200 500> 580 20G<100 200 200 200 200 500 200 200 500 600 600 600> 580 20G<100 200 200 200 200 500 200 200 500 600 600 600> 600 100<100 500 200 500 200 500 200 500 200 600>
VStem: 100 100<0 200 300 600> 500 100<0 200 200 200 300 600 0 700 0 600 0 600>
LayerCount: 2
Fore
SplineSet
200 700 m 1xce
 500 700 l 1xce
 500 600 l 1
 200 600 l 1xe6
 200 700 l 1xce
500 600 m 1xe6
 600 600 l 1
 600 0 l 1
 500 0 l 1
 500 200 l 1
 200 200 l 1
 200 0 l 1
 100 0 l 1
 100 600 l 1
 200 600 l 1
 200 300 l 1
 500 300 l 1
 500 600 l 1xe6
EndSplineSet
EndChar

StartChar: B
Encoding: 66 66 67
Width: 700
GlyphClass: 1
Flags: MW
HStem: 0 100<200 500 200 500> 300 100<200 500 200 500 500 600> 580 20G<200 500 200 200 500 600 600 600> 580 20G<200 500 200 200 500 600 600 600> 600 100<200 500 200 200 100 600>
VStem: 100 100<100 300 400 600> 500 100<0 300 100 300 100 300 100 400 100 300 400 600>
LayerCount: 2
Fore
SplineSet
100 700 m 1xce
 500 700 l 1xce
 500 600 l 1xe6
 200 600 l 1
 200 400 l 1
 500 400 l 1
 500 300 l 1
 200 300 l 1
 200 100 l 1
 500 100 l 1
 500 0 l 1
 100 0 l 1
 100 700 l 1xce
500 600 m 1xe6
 600 600 l 1
 600 400 l 1
 500 400 l 1
 500 600 l 1xe6
500 300 m 1
 600 300 l 1
 600 100 l 1
 500 100 l 1
 500 300 l 1
EndSplineSet
EndChar

StartChar: C
Encoding: 67 67 68
Width: 700
GlyphClass: 1
Flags: MW
HStem: 0 100<200 500 100 200> 100 100<200 600 500 600 500 600 500 600> 500 100<500 600> 600 100<100 500 200 500 200 500 200 500 200 600>
VStem: 100 100<100 600> 500 100<0 200 100 200 100 200 500 600>
LayerCount: 2
Fore
SplineSet
200 700 m 1x1c
 500 700 l 1x1c
 500 600 l 1x2c
 200 600 l 1
 200 700 l 1x1c
500 600 m 1x2c
 600 600 l 1
 600 500 l 1
 500 500 l 1
 500 600 l 1x2c
200 600 m 1x5c
 200 100 l 1x9c
 100 100 l 1
 100 600 l 1
 200 600 l 1x5c
200 100 m 1
 500 100 l 1
 500 0 l 1
 200 0 l 1
 200 100 l 1
500 100 m 1
 500 200 l 1
 600 200 l 1
 600 100 l 1x4c
 500 100 l 1
EndSplineSet
EndChar

StartChar: D
Encoding: 68 68 69
Width: 800
GlyphClass: 1
Flags: MW
HStem: 0 100<300 600 300 600> 580 20G<100 200 100 100 300 600 300 300 600 700 700 700> 580 20G<100 200 100 100 300 600 300 300 600 700 700 700> 600 100<100 200 100 600 300 600 300 300 100 700>
VStem: 200 100<100 600 100 600 100 600> 600 100<0 600 100 600 100 600 100 700 100 600>
LayerCount: 2
Fore
SplineSet
100 700 m 1x9c
 600 700 l 1x9c
 600 600 l 1xcc
 300 600 l 1
 300 100 l 1
 600 100 l 1
 600 0 l 1
 200 0 l 1
 200 600 l 1
 100 600 l 1
 100 700 l 1x9c
600 600 m 1xcc
 700 600 l 1
 700 100 l 1
 600 100 l 1
 600 600 l 1xcc
EndSplineSet
EndChar

StartChar: E
Encoding: 69 69 70
Width: 700
GlyphClass: 1
Flags: MW
HStem: 0 100<200 600 200 600> 300 100<200 500 200 500> 600 100<200 600 200 200>
VStem: 100 100<100 300 400 600>
CounterMasks: 1 e0
LayerCount: 2
Fore
SplineSet
100 700 m 1
 600 700 l 1
 600 600 l 1
 200 600 l 1
 200 400 l 1
 500 400 l 1
 500 300 l 1
 200 300 l 1
 200 100 l 1
 600 100 l 1
 600 0 l 1
 100 0 l 1
 100 700 l 1
EndSplineSet
EndChar

StartChar: F
Encoding: 70 70 71
Width: 700
GlyphClass: 1
Flags: MW
HStem: 0 21G<100 200 100 100> 300 100<200 500 200 500> 600 100<200 600 200 200>
VStem: 100 100<0 300 400 600>
LayerCount: 2
Fore
SplineSet
100 700 m 1
 600 700 l 1
 600 600 l 1
 200 600 l 1
 200 400 l 1
 500 400 l 1
 500 300 l 1
 200 300 l 1
 200 0 l 1
 100 0 l 1
 100 700 l 1
EndSplineSet
EndChar

StartChar: G
Encoding: 71 71 72
Width: 700
GlyphClass: 1
Flags: MW
HStem: 0 100<200 500 100 200> 300 100<400 500 400 600> 580 20G<100 200 200 600 200 200 200 200> 580 20G<100 200 200 600 200 200 200 200> 600 100<100 600 200 600 200 600 200 600>
VStem: 100 100<100 600> 500 100<100 300 300 300>
LayerCount: 2
Fore
SplineSet
200 700 m 1xce
 600 700 l 1
 600 600 l 1xce
 200 600 l 1xe6
 200 700 l 1xce
200 600 m 1xe6
 200 100 l 1
 100 100 l 1
 100 600 l 1
 200 600 l 1xe6
200 100 m 1
 500 100 l 1
 500 300 l 1
 400 300 l 1
 400 400 l 1
 600 400 l 1
 600 0 l 1
 200 0 l 1
 200 100 l 1
EndSplineSet
EndChar

StartChar: H
Encoding: 72 72 73
Width: 700
GlyphClass: 1
Flags: MW
HStem: 0 21G<100 200 100 100 500 600 500 500> 300 100<200 500 200 500> 680 20G<100 200 200 200 500 600 600 600>
VStem: 100 100<0 300 400 700> 500 100<0 300 300 300 400 700 0 700>
LayerCount: 2
Fore
SplineSet
100 700 m 1
 200 700 l 1
 200 400 l 1
 500 400 l 1
 500 700 l 1
 600 700 l 1
 600 0 l 1
 500 0 l 1
 500 300 l 1
 200 300 l 1
 200 0 l 1
 100 0 l 1
 100 700 l 1
EndSplineSet
EndChar

StartChar: I
Encoding: 73 73 74
Width: 500
GlyphClass: 1
Flags: MW
HStem: 0 100<100 200 300 400 100 200> 600 100<100 200 100 400 300 400 300 300>
VStem: 200 100<100 600 100 600>
LayerCount: 2
Fore
SplineSet
100 700 m 1
 400 700 l 1
 400 600 l 1
 300 600 l 1
 300 100 l 1
 400 100 l 1
 400 0 l 1
 100 0 l 1
 100 100 l 1
 200 100 l 1
 200 600 l 1
 100 600 l 1
 100 700 l 1
EndSplineSet
EndChar

StartChar: J
Encoding: 74 74 75
Width: 600
GlyphClass: 1
Flags: MW
HStem: 0 100<100 300 100 300> 600 100<100 300 100 500 400 500 400 400>
VStem: 300 100<0 600 100 600 100 600>
LayerCount: 2
Fore
SplineSet
100 700 m 1
 500 700 l 1
 500 600 l 1
 400 600 l 1
 400 100 l 1
 300 100 l 1
 300 600 l 1
 100 600 l 1
 100 700 l 1
300 100 m 1
 300 0 l 1
 100 0 l 1
 100 100 l 1
 300 100 l 1
EndSplineSet
EndChar

StartChar: K
Encoding: 75 75 76
Width: 700
GlyphClass: 1
Flags: MW
HStem: 0 100<400 500 500 600> 300 100<200 300 200 400 200 300> 500 100<300 500 400 500 400 500 400 500> 600 100<500 600>
VStem: 100 100<0 300 400 700> 300 100<400 500> 400 100<100 300 500 600> 500 100<0 100 0 300 0 100 0 100 600 700>
LayerCount: 2
Fore
SplineSet
100 700 m 1xda
 200 700 l 1xda
 200 400 l 1
 300 400 l 1
 300 500 l 1
 400 500 l 1xec
 400 300 l 1
 200 300 l 1
 200 0 l 1
 100 0 l 1
 100 700 l 1xda
400 500 m 1xec
 400 600 l 1
 500 600 l 1
 500 500 l 1xea
 400 500 l 1xec
500 600 m 1
 500 700 l 1
 600 700 l 1
 600 600 l 1xd9
 500 600 l 1
400 300 m 1xca
 500 300 l 1
 500 100 l 1
 400 100 l 1
 400 300 l 1xca
500 100 m 1
 600 100 l 1
 600 0 l 1
 500 0 l 1xc9
 500 100 l 1
EndSplineSet
EndChar

StartChar: L
Encoding: 76 76 77
Width: 600
GlyphClass: 1
Flags: MW
HStem: 0 100<200 500 200 500> 680 20G<100 200 200 200>
VStem: 100 100<100 700 100 700 100 700>
LayerCount: 2
Fore
SplineSet
100 700 m 1
 200 700 l 1
 200 100 l 1
 500 100 l 1
 500 0 l 1
 100 0 l 1
 100 700 l 1
EndSplineSet
EndChar

StartChar: M
Encoding: 77 77 78
Width: 800
GlyphClass: 1
Flags: MW
HStem: 0 21G<100 200 100 100 600 600 600 700> 300 100<300 500 200 300> 400 100<200 300 200 300 200 500 500 600> 680 20G<100 200 200 200 600 700 700 700>
VStem: 100 100<0 400 500 700> 600 100<0 400 400 400 500 700 0 700>
LayerCount: 2
Fore
SplineSet
100 700 m 1xbc
 200 700 l 1
 200 500 l 1
 300 500 l 1xbc
 300 400 l 1xdc
 200 400 l 1
 200 0 l 1
 100 0 l 1
 100 700 l 1xbc
300 400 m 1xdc
 500 400 l 1
 500 300 l 1
 300 300 l 1
 300 400 l 1xdc
500 400 m 1
 500 500 l 1
 600 500 l 1
 600 700 l 1
 700 700 l 1
 700 0 l 1
 600 0 l 1
 600 400 l 1xbc
 500 400 l 1
EndSplineSet
EndChar

StartChar: N
Encoding: 78 78 79
Width: 700
GlyphClass: 1
Flags: MW
HStem: 0 21G<100 200 100 100 500 500 500 600> 400 100<300 400 200 300> 680 20G<100 200 200 200 500 600 600 600>
VStem: 100 100<0 500 600 700> 300 100<400 500> 500 100<0 300 300 300 400 700 0 700>
CounterMasks: 1 1c
LayerCount: 2
Fore
SplineSet
100 700 m 1
 200 700 l 1
 200 600 l 1
 300 600 l 1
 300 500 l 1
 200 500 l 1
 200 0 l 1
 100 0 l 1
 100 700 l 1
300 500 m 1
 400 500 l 1
 400 400 l 1
 300 400 l 1
 300 500 l 1
400 400 m 1
 500 400 l 1
 500 700 l 1
 600 700 l 1
 600 0 l 1
 500 0 l 1
 500 300 l 1
 400 300 l 1
 400 400 l 1
EndSplineSet
EndChar

StartChar: O
Encoding: 79 79 80
Width: 700
GlyphClass: 1
Flags: MW
HStem: 0 100<200 500 100 200> 580 20G<100 200 200 200 200 500 200 200 500 600 600 600> 580 20G<100 200 200 200 200 500 200 200 500 600 600 600> 600 100<100 500 200 500 200 500 200 500 200 600>
VStem: 100 100<100 600> 500 100<0 600 100 600 100 700 100 600 100 600>
LayerCount: 2
Fore
SplineSet
200 700 m 1x9c
 500 700 l 1x9c
 500 600 l 1
 200 600 l 1xcc
 200 700 l 1x9c
500 600 m 1xcc
 600 600 l 1
 600 100 l 1
 500 100 l 1
 500 600 l 1xcc
500 100 m 1
 500 0 l 1
 200 0 l 1
 200 100 l 1
 500 100 l 1
200 100 m 1
 100 100 l 1
 100 600 l 1
 200 600 l 1
 200 100 l 1
EndSplineSet
EndChar

StartChar: P
Encoding: 80 80 81
Width: 700
GlyphClass: 1
Flags: MW
HStem: 0 21G<100 200 100 100> 300 100<200 500 200 500> 580 20G<200 500 200 200 500 600 600 600> 580 20G<200 500 200 200 500 600 600 600> 600 100<200 500 200 200 100 600>
VStem: 100 100<0 300 400 600> 500 100<300 600 400 600 400 600 400 700 400 600>
LayerCount: 2
Fore
SplineSet
100 700 m 1xce
 500 700 l 1xce
 500 600 l 1xe6
 200 600 l 1
 200 400 l 1
 500 400 l 1
 500 300 l 1
 200 300 l 1
 200 0 l 1
 100 0 l 1
 100 700 l 1xce
500 600 m 1xe6
 600 600 l 1
 600 400 l 1
 500 400 l 1
 500 600 l 1xe6
EndSplineSet
EndChar

StartChar: Q
Encoding: 81 81 82
Width: 700
GlyphClass: 1
Flags: MW
HStem: 0 100<200 400 100 200 500 600> 100 100<300 400 300 400 400 500 300 400 300 400 500 600> 200 100<300 400 300 400 300 500> 580 20G<100 200 200 200 200 500 200 200 500 600 600 600> 580 20G<100 200 200 200 200 500 200 200 500 600 600 600> 600 100<100 500 200 500 200 500 200 500 200 600>
VStem: 100 100<100 600> 300 100<200 300> 400 100<0 100 0 100 100 200 200 300> 500 100<0 100 0 200 0 100 0 100 200 600>
LayerCount: 2
Fore
SplineSet
200 700 m 1x0640
 500 700 l 1x0640
 500 600 l 1
 200 600 l 1x1240
 200 700 l 1x0640
500 600 m 1x5240
 600 600 l 1
 600 200 l 1x3240
 500 200 l 1x4280
 500 600 l 1x5240
500 200 m 1x4280
 500 100 l 1
 400 100 l 1x8280
 400 200 l 1x43
 500 200 l 1x4280
500 100 m 1
 600 100 l 1
 600 0 l 1
 500 0 l 1x8240
 500 100 l 1
400 100 m 1x8280
 400 0 l 1
 200 0 l 1
 200 100 l 1
 400 100 l 1x8280
200 100 m 1
 100 100 l 1
 100 600 l 1
 200 600 l 1x52
 200 100 l 1
400 200 m 1x43
 300 200 l 1
 300 300 l 1
 400 300 l 1x23
 400 200 l 1x43
EndSplineSet
EndChar

StartChar: R
Encoding: 82 82 83
Width: 700
GlyphClass: 1
Flags: MW
HStem: 0 21G<100 200 100 100 500 500 500 600> 300 100<200 400 200 500> 580 20G<200 500 200 200 500 600 600 600> 580 20G<200 500 200 200 500 600 600 600> 600 100<200 500 200 200 100 600>
VStem: 100 100<0 300 400 600> 400 100<200 300 300 300> 500 100<0 200 0 400 0 200 0 200 400 600>
LayerCount: 2
Fore
SplineSet
100 700 m 1xce
 500 700 l 1xcd
 500 600 l 1xe5
 200 600 l 1
 200 400 l 1
 500 400 l 1xcd
 500 200 l 1
 400 200 l 1
 400 300 l 1
 200 300 l 1
 200 0 l 1
 100 0 l 1
 100 700 l 1xce
500 600 m 1xe5
 600 600 l 1
 600 400 l 1
 500 400 l 1
 500 600 l 1xe5
500 200 m 1xc6
 600 200 l 1
 600 0 l 1
 500 0 l 1xc5
 500 200 l 1xc6
EndSplineSet
EndChar

StartChar: S
Encoding: 83 83 84
Width: 700
GlyphClass: 1
Flags: MW
HStem: 0 100<200 500 100 200> 100 100<100 200 100 200 100 500> 300 100<200 500 100 200> 500 100<500 600> 600 100<100 500 200 500 200 500 200 500 200 600>
VStem: 100 100<100 200 400 600> 200 300<0 100 100 200 0 100 0 100 300 400 500 600 600 700> 500 100<0 300 100 300 100 400 100 300 100 300 500 600>
LayerCount: 2
Fore
SplineSet
200 700 m 1x2a
 500 700 l 1x2a
 500 600 l 1x32
 200 600 l 1x2c
 200 700 l 1x2a
500 600 m 1x32
 600 600 l 1
 600 500 l 1
 500 500 l 1x31
 500 600 l 1x32
200 600 m 1x2c
 200 400 l 1
 100 400 l 1
 100 600 l 1
 200 600 l 1x2c
200 400 m 1
 500 400 l 1
 500 300 l 1
 200 300 l 1x22
 200 400 l 1
500 300 m 1
 600 300 l 1
 600 100 l 1x61
 500 100 l 1xa2
 500 300 l 1
500 100 m 1xa2
 500 0 l 1
 200 0 l 1xa2
 200 100 l 1xa4
 500 100 l 1xa2
200 100 m 1xa4
 100 100 l 1
 100 200 l 1
 200 200 l 1x64
 200 100 l 1xa4
EndSplineSet
EndChar

StartChar: T
Encoding: 84 84 85
Width: 700
GlyphClass: 1
Flags: MW
HStem: 0 21G<300 400 300 300> 600 100<100 300 100 600 400 600 400 400>
VStem: 300 100<0 600 0 600>
LayerCount: 2
Fore
SplineSet
100 700 m 1
 600 700 l 1
 600 600 l 1
 400 600 l 1
 400 0 l 1
 300 0 l 1
 300 600 l 1
 100 600 l 1
 100 700 l 1
EndSplineSet
EndChar

StartChar: U
Encoding: 85 85 86
Width: 700
GlyphClass: 1
Flags: MW
HStem: 0 100<200 500 100 200> 680 20G<100 200 200 200 500 600 600 600>
VStem: 100 100<100 700> 500 100<0 700 100 700 100 700>
LayerCount: 2
Fore
SplineSet
100 700 m 1
 200 700 l 1
 200 100 l 1
 100 100 l 1
 100 700 l 1
200 100 m 1
 500 100 l 1
 500 0 l 1
 200 0 l 1
 200 100 l 1
500 100 m 1
 500 700 l 1
 600 700 l 1
 600 100 l 1
 500 100 l 1
EndSplineSet
EndChar

StartChar: V
Encoding: 86 86 87
Width: 700
GlyphClass: 1
Flags: MW
HStem: 0 100<300 400 200 300> 100 200<200 300 100 200 100 400 400 500> 680 20G<100 200 200 200 500 600 600 600>
VStem: 100 100<300 700> 200 100<100 300> 300 100<0 100 100 300 0 100 0 100> 400 100<0 300 100 300 100 300> 500 100<100 700 300 700 300 700>
LayerCount: 2
Fore
SplineSet
100 700 m 1x70
 200 700 l 1
 200 300 l 1
 100 300 l 1
 100 700 l 1x70
200 300 m 1
 300 300 l 1x68
 300 100 l 1xa8
 200 100 l 1x68
 200 300 l 1
300 100 m 1xa8
 400 100 l 1
 400 0 l 1
 300 0 l 1xa4
 300 100 l 1xa8
400 100 m 1
 400 300 l 1
 500 300 l 1
 500 100 l 1x62
 400 100 l 1
500 300 m 1
 500 700 l 1
 600 700 l 1
 600 300 l 1x61
 500 300 l 1
EndSplineSet
EndChar

StartChar: W
Encoding: 87 87 88
Width: 900
GlyphClass: 1
Flags: MW
HStem: 0 100<200 300 100 200 600 700> 100 100<200 400 300 400 300 400 300 400 500 600> 680 20G<100 200 200 200 700 800 800 800>
VStem: 100 100<100 700> 200 100<0 100 100 200 0 100 0 100> 300 100<0 200 100 200 100 200> 400 100<100 200 100 200 200 500> 500 100<100 200> 600 100<0 100 100 200 0 100 0 100> 700 100<0 700 100 700 100 700>
LayerCount: 2
Fore
SplineSet
100 700 m 1x70
 200 700 l 1
 200 100 l 1xb0
 100 100 l 1
 100 700 l 1x70
200 100 m 1
 300 100 l 1
 300 0 l 1
 200 0 l 1xa8
 200 100 l 1
300 100 m 1
 300 200 l 1
 400 200 l 1
 400 100 l 1x64
 300 100 l 1
400 200 m 1
 400 500 l 1
 500 500 l 1
 500 200 l 1x62
 400 200 l 1
500 200 m 1
 600 200 l 1x61
 600 100 l 1xa1
 500 100 l 1x61
 500 200 l 1
600 100 m 1xa1
 700 100 l 1
 700 0 l 1
 600 0 l 1xa080
 600 100 l 1xa1
700 100 m 1
 700 700 l 1
 800 700 l 1
 800 100 l 1x6040
 700 100 l 1
EndSplineSet
EndChar

StartChar: X
Encoding: 88 88 89
Width: 700
GlyphClass: 1
Flags: MW
HStem: 0 200<100 200 100 200 500 600> 200 100<100 300 200 300 200 300 200 300 400 500> 300 100<200 300 300 400 200 300 200 300 400 500> 400 100<200 300 100 200 400 500> 500 200<100 200 100 200 100 300 100 300 500 600>
VStem: 100 100<0 200 0 200 500 700> 200 100<0 300 200 300 200 300 400 500> 300 100<200 300 200 300 300 400 400 500> 400 100<200 300 400 500> 500 100<0 200 0 300 0 200 0 200 500 700>
LayerCount: 2
Fore
SplineSet
100 700 m 1x0c
 200 700 l 1x0c
 200 500 l 1x14
 100 500 l 1
 100 700 l 1x0c
200 500 m 1x14
 300 500 l 1x12
 300 400 l 1x22
 200 400 l 1x12
 200 500 l 1x14
300 400 m 1x22
 400 400 l 1x21
 400 300 l 1x41
 300 300 l 1x42
 300 400 l 1x22
400 400 m 1
 400 500 l 1
 500 500 l 1
 500 400 l 1x1080
 400 400 l 1
500 500 m 1
 500 700 l 1
 600 700 l 1
 600 500 l 1x0840
 500 500 l 1
400 300 m 1x41
 500 300 l 1x4080
 500 200 l 1x8080
 400 200 l 1x4080
 400 300 l 1x41
500 200 m 1x8080
 600 200 l 1
 600 0 l 1
 500 0 l 1x8040
 500 200 l 1x8080
300 300 m 1x42
 300 200 l 1x42
 200 200 l 1x84
 200 300 l 1
 300 300 l 1x42
200 200 m 1x84
 200 0 l 1
 100 0 l 1
 100 200 l 1
 200 200 l 1x84
EndSplineSet
EndChar

StartChar: Y
Encoding: 89 89 90
Width: 700
GlyphClass: 1
Flags: MW
HStem: 0 21G<300 400 300 300> 300 100<200 300 100 200 400 500> 680 20G<100 200 200 200 500 600 600 600>
VStem: 100 100<400 700> 200 100<300 400> 300 100<0 300 300 400 0 300 0 300> 400 100<0 400 300 400 300 400> 500 100<300 700 400 700 400 700>
LayerCount: 2
Fore
SplineSet
100 700 m 1xf0
 200 700 l 1
 200 400 l 1
 100 400 l 1
 100 700 l 1xf0
200 400 m 1
 300 400 l 1
 300 300 l 1
 200 300 l 1xe8
 200 400 l 1
300 300 m 1
 400 300 l 1
 400 0 l 1
 300 0 l 1xe4
 300 300 l 1
400 300 m 1
 400 400 l 1
 500 400 l 1
 500 300 l 1xe2
 400 300 l 1
500 400 m 1
 500 700 l 1
 600 700 l 1
 600 400 l 1xe1
 500 400 l 1
EndSplineSet
EndChar

StartChar: Z
Encoding: 90 90 91
Width: 700
GlyphClass: 1
Flags: MW
HStem: 0 100<200 600 200 600> 200 100<100 300 200 300 200 300 200 300> 300 100<200 400 300 400 300 400 300 400> 400 100<300 500 400 500 400 500 400 500> 600 100<100 500 100 600>
VStem: 100 100<100 200 100 200 100 200> 200 100<100 300 200 300 200 300> 300 100<200 400 300 400 300 400> 400 100<300 500 400 500 400 500> 500 100<500 600 600 600>
LayerCount: 2
Fore
SplineSet
100 700 m 1x9c40
 600 700 l 1
 600 500 l 1x9c40
 500 500 l 1x9880
 500 600 l 1
 100 600 l 1
 100 700 l 1x9c40
500 500 m 1x9880
 500 400 l 1x9880
 400 400 l 1xa9
 400 500 l 1
 500 500 l 1x9880
400 400 m 1xa9
 400 300 l 1xa9
 300 300 l 1xca
 300 400 l 1
 400 400 l 1xa9
300 300 m 1xca
 300 200 l 1xca
 200 200 l 1xcc
 200 300 l 1
 300 300 l 1xca
200 200 m 1xcc40
 200 100 l 1
 600 100 l 1
 600 0 l 1
 100 0 l 1
 100 200 l 1
 200 200 l 1xcc40
EndSplineSet
EndChar

StartChar: bracketleft
Encoding: 91 91 92
Width: 400
GlyphClass: 1
Flags: MW
HStem: 0 100<200 300 200 300> 600 100<200 300 200 200>
VStem: 100 100<100 600 100 700> 100 200<0 100 600 700>
LayerCount: 2
Fore
SplineSet
100 700 m 1xd0
 300 700 l 1
 300 600 l 1xd0
 200 600 l 1
 200 100 l 1xe0
 300 100 l 1
 300 0 l 1
 100 0 l 1
 100 700 l 1xd0
EndSplineSet
EndChar

StartChar: backslash
Encoding: 92 92 93
Width: 600
GlyphClass: 1
Flags: MW
HStem: -100 21G<400 500 400 400> 680 20G<100 200 200 200>
VStem: 100 100<500 700> 200 100<300 500> 300 100<100 300> 400 100<-100 100 -100 300 -100 100 -100 100>
LayerCount: 2
Fore
SplineSet
100 700 m 1xe0
 200 700 l 1
 200 500 l 1
 100 500 l 1
 100 700 l 1xe0
200 500 m 1
 300 500 l 1
 300 300 l 1
 200 300 l 1xd0
 200 500 l 1
300 300 m 1
 400 300 l 1
 400 100 l 1
 300 100 l 1xc8
 300 300 l 1
400 100 m 1
 500 100 l 1
 500 -100 l 1
 400 -100 l 1xc4
 400 100 l 1
EndSplineSet
EndChar

StartChar: bracketright
Encoding: 93 93 94
Width: 400
GlyphClass: 1
Flags: MW
HStem: 0 100<100 200 100 300 100 200> 600 100<100 200 100 300>
VStem: 100 200<0 100 100 100 600 700 0 700> 200 100<100 600 600 600>
LayerCount: 2
Fore
SplineSet
100 700 m 1xe0
 300 700 l 1
 300 0 l 1
 100 0 l 1
 100 100 l 1xe0
 200 100 l 1
 200 600 l 1xd0
 100 600 l 1
 100 700 l 1xe0
EndSplineSet
EndChar

StartChar: asciicircum
Encoding: 94 94 95
Width: 600
GlyphClass: 1
Flags: MW
HStem: 400 100<100 200 100 200 400 500> 500 100<100 400 200 400 200 400 200 400 200 500>
VStem: 100 100<400 500 400 500> 400 100<400 500 400 600 400 500 400 500>
LayerCount: 2
Fore
SplineSet
200 600 m 1x70
 400 600 l 1x70
 400 500 l 1
 200 500 l 1xb0
 200 600 l 1x70
400 500 m 1xb0
 500 500 l 1
 500 400 l 1
 400 400 l 1
 400 500 l 1xb0
200 500 m 1
 200 400 l 1
 100 400 l 1
 100 500 l 1
 200 500 l 1
EndSplineSet
EndChar

StartChar: underscore
Encoding: 95 95 96
Width: 800
GlyphClass: 1
Flags: MW
HStem: -100 100<100 700 100 700>
LayerCount: 2
Fore
SplineSet
100 0 m 1
 700 0 l 1
 700 -100 l 1
 100 -100 l 1
 100 0 l 1
EndSplineSet
EndChar

StartChar: grave
Encoding: 96 96 97
Width: 400
GlyphClass: 1
Flags: MW
HStem: 500 100<100 200 100 200 100 300>
VStem: 100 100<500 600> 200 100<300 500 300 600 300 500 300 500>
LayerCount: 2
Fore
SplineSet
100 600 m 1xc0
 200 600 l 1
 200 500 l 1
 100 500 l 1
 100 600 l 1xc0
200 500 m 1
 300 500 l 1
 300 300 l 1
 200 300 l 1xa0
 200 500 l 1
EndSplineSet
EndChar

StartChar: a
Encoding: 97 97 98
Width: 700
GlyphClass: 1
Flags: MW
HStem: 0 100<200 500 100 200> 300 100<100 500 200 500 200 500 200 500> 500 100<200 500 200 500 200 600>
VStem: 100 100<100 300> 500 100<100 300 300 300 400 500 0 600 0 500 0 500>
LayerCount: 2
Fore
SplineSet
200 600 m 1
 500 600 l 1
 500 500 l 1
 200 500 l 1
 200 600 l 1
500 500 m 1
 600 500 l 1
 600 0 l 1
 200 0 l 1
 200 100 l 1
 500 100 l 1
 500 300 l 1
 200 300 l 1
 200 400 l 1
 500 400 l 1
 500 500 l 1
200 100 m 1
 100 100 l 1
 100 300 l 1
 200 300 l 1
 200 100 l 1
EndSplineSet
EndChar

StartChar: b
Encoding: 98 98 99
Width: 700
GlyphClass: 1
Flags: MW
HStem: 0 100<200 500 200 500> 400 100<200 500 200 500 200 600> 680 20G<100 200 200 200>
VStem: 100 100<100 400 500 700> 500 100<0 400 100 400 100 400 100 500 100 400>
LayerCount: 2
Fore
SplineSet
100 700 m 1
 200 700 l 1
 200 500 l 1
 500 500 l 1
 500 400 l 1
 200 400 l 1
 200 100 l 1
 500 100 l 1
 500 0 l 1
 100 0 l 1
 100 700 l 1
500 400 m 1
 600 400 l 1
 600 100 l 1
 500 100 l 1
 500 400 l 1
EndSplineSet
EndChar

StartChar: c
Encoding: 99 99 100
Width: 700
GlyphClass: 1
Flags: MW
HStem: 0 100<200 600 100 200> 400 100<500 600> 500 100<100 500 200 500 200 500 200 500 200 600>
VStem: 100 100<100 500> 500 100<400 500>
LayerCount: 2
Fore
SplineSet
200 600 m 1xb8
 500 600 l 1xb8
 500 500 l 1xd8
 200 500 l 1
 200 600 l 1xb8
500 500 m 1xd8
 600 500 l 1
 600 400 l 1
 500 400 l 1
 500 500 l 1xd8
200 500 m 1xb8
 200 100 l 1
 100 100 l 1
 100 500 l 1
 200 500 l 1xb8
200 100 m 1
 600 100 l 1
 600 0 l 1
 200 0 l 1
 200 100 l 1
EndSplineSet
EndChar

StartChar: d
Encoding: 100 100 101
Width: 700
GlyphClass: 1
Flags: MW
HStem: 0 100<200 500 100 200> 400 100<100 500 200 500 200 500 200 500> 680 20G<500 600 600 600>
VStem: 100 100<100 400> 500 100<100 400 400 400 500 700 0 700>
LayerCount: 2
Fore
SplineSet
500 700 m 1
 600 700 l 1
 600 0 l 1
 200 0 l 1
 200 100 l 1
 500 100 l 1
 500 400 l 1
 200 400 l 1
 200 500 l 1
 500 500 l 1
 500 700 l 1
200 100 m 1
 100 100 l 1
 100 400 l 1
 200 400 l 1
 200 100 l 1
EndSplineSet
EndChar

StartChar: e
Encoding: 101 101 102
Width: 700
GlyphClass: 1
Flags: MW
HStem: 0 100<200 600 100 200> 300 100<200 500 200 600 200 500> 500 100<100 500 200 500 200 500 200 500 200 600>
VStem: 100 100<100 300 400 500> 500 100<400 500>
LayerCount: 2
Fore
SplineSet
200 600 m 1
 500 600 l 1
 500 500 l 1
 200 500 l 1
 200 600 l 1
500 500 m 1
 600 500 l 1
 600 300 l 1
 200 300 l 1
 200 100 l 1
 100 100 l 1
 100 500 l 1
 200 500 l 1
 200 400 l 1
 500 400 l 1
 500 500 l 1
200 100 m 1
 600 100 l 1
 600 0 l 1
 200 0 l 1
 200 100 l 1
EndSplineSet
EndChar

StartChar: f
Encoding: 102 102 103
Width: 700
GlyphClass: 1
Flags: MW
HStem: 0 21G<200 300 200 200> 300 100<100 200 100 200 300 500> 580 20G<200 300 300 600 300 300 300 300> 580 20G<200 300 300 600 300 300 300 300> 600 100<200 600 300 600 300 600 300 600>
VStem: 200 100<0 300 0 300 400 600>
LayerCount: 2
Fore
SplineSet
300 700 m 1xcc
 600 700 l 1
 600 600 l 1xcc
 300 600 l 1xe4
 300 700 l 1xcc
300 600 m 1xe4
 300 400 l 1
 500 400 l 1
 500 300 l 1
 300 300 l 1
 300 0 l 1
 200 0 l 1
 200 300 l 1
 100 300 l 1
 100 400 l 1
 200 400 l 1
 200 600 l 1
 300 600 l 1xe4
EndSplineSet
EndChar

StartChar: g
Encoding: 103 103 104
Width: 700
GlyphClass: 1
Flags: MW
HStem: -100 100<200 500 200 500> 0 21G<200 500 500 600 500 500 500 500> 100 100<200 500 100 200> 500 100<100 600 200 600 200 500 200 600>
VStem: 100 100<200 500> 500 100<-100 600 0 100 100 100 200 500 500 500>
LayerCount: 2
Fore
SplineSet
200 600 m 1xbc
 600 600 l 1
 600 0 l 1x7c
 500 0 l 1
 500 100 l 1
 200 100 l 1
 200 200 l 1
 500 200 l 1
 500 500 l 1
 200 500 l 1
 200 600 l 1xbc
500 0 m 1xbc
 500 -100 l 1
 200 -100 l 1
 200 0 l 1
 500 0 l 1xbc
200 200 m 1
 100 200 l 1
 100 500 l 1
 200 500 l 1
 200 200 l 1
EndSplineSet
EndChar

StartChar: h
Encoding: 104 104 105
Width: 700
GlyphClass: 1
Flags: MW
HStem: 0 21G<100 200 100 100 500 500 500 600> 300 100<200 300 200 300> 400 100<200 500 300 500 300 500 300 500 300 600> 680 20G<100 200 200 200>
VStem: 100 100<0 300 400 700> 500 100<0 400 0 500 0 400 0 400>
LayerCount: 2
Fore
SplineSet
100 700 m 1xdc
 200 700 l 1
 200 400 l 1
 300 400 l 1
 300 300 l 1
 200 300 l 1
 200 0 l 1
 100 0 l 1
 100 700 l 1xdc
300 400 m 1
 300 500 l 1
 500 500 l 1
 500 400 l 1xbc
 300 400 l 1
500 400 m 1
 600 400 l 1
 600 0 l 1
 500 0 l 1
 500 400 l 1
EndSplineSet
EndChar

StartChar: i
Encoding: 105 105 106
Width: 500
GlyphClass: 1
Flags: MW
HStem: 0 100<100 200 300 400 100 200> 400 100<100 200 100 300> 600 100<200 300 200 300>
VStem: 200 100<100 400 400 400 600 700>
LayerCount: 2
Fore
SplineSet
200 700 m 1
 300 700 l 1
 300 600 l 1
 200 600 l 1
 200 700 l 1
100 500 m 1
 300 500 l 1
 300 100 l 1
 400 100 l 1
 400 0 l 1
 100 0 l 1
 100 100 l 1
 200 100 l 1
 200 400 l 1
 100 400 l 1
 100 500 l 1
EndSplineSet
EndChar

StartChar: j
Encoding: 106 106 107
Width: 500
GlyphClass: 1
Flags: MW
HStem: -100 100<100 200 100 200> 0 21G<100 200 200 300 200 200 200 200> 500 100<100 200 100 400 300 400 300 300>
VStem: 100 100<-100 0 -100 0>
LayerCount: 2
Fore
SplineSet
100 600 m 1xb0
 400 600 l 1
 400 500 l 1
 300 500 l 1
 300 0 l 1x70
 200 0 l 1
 200 500 l 1
 100 500 l 1
 100 600 l 1xb0
200 0 m 1xb0
 200 -100 l 1
 100 -100 l 1
 100 0 l 1
 200 0 l 1xb0
EndSplineSet
EndChar

StartChar: k
Encoding: 107 107 108
Width: 700
GlyphClass: 1
Flags: MW
HStem: 0 100<400 500 500 600> 100 100<400 500 200 400> 200 100<200 300 200 400 200 300> 400 100<300 500 400 500 400 500 400 500> 500 100<500 600>
VStem: 100 100<0 200 300 600> 300 100<300 400> 400 100<100 200 400 500> 500 100<0 100 0 200 0 100 0 100 500 600>
LayerCount: 2
Fore
SplineSet
100 600 m 1xad
 200 600 l 1xad
 200 300 l 1
 300 300 l 1
 300 400 l 1
 400 400 l 1
 400 300 l 1x36
 400 200 l 1x45
 200 200 l 1
 200 0 l 1
 100 0 l 1
 100 600 l 1xad
400 400 m 1x16
 400 500 l 1
 500 500 l 1
 500 400 l 1x15
 400 400 l 1x16
500 500 m 1
 500 600 l 1
 600 600 l 1
 600 500 l 1x0c80
 500 500 l 1
400 200 m 1x45
 500 200 l 1x45
 500 100 l 1x85
 400 100 l 1
 400 200 l 1x45
500 100 m 1x85
 600 100 l 1
 600 0 l 1
 500 0 l 1x8480
 500 100 l 1x85
EndSplineSet
EndChar

StartChar: l
Encoding: 108 108 109
Width: 500
GlyphClass: 1
Flags: MW
HStem: 0 100<200 400 100 200> 580 20G<100 200 200 200> 580 20G<100 200 200 200>
VStem: 100 100<100 600>
LayerCount: 2
Fore
SplineSet
100 600 m 1xd0
 200 600 l 1
 200 100 l 1
 100 100 l 1
 100 600 l 1xd0
200 100 m 1
 400 100 l 1
 400 0 l 1
 200 0 l 1
 200 100 l 1
EndSplineSet
EndChar

StartChar: m
Encoding: 109 109 110
Width: 900
GlyphClass: 1
Flags: MW
HStem: 0 21G<100 200 100 100 400 500 400 400 700 700 700 800> 500 100<100 400 200 400 200 400 200 400 200 500 500 700>
VStem: 100 100<0 500 0 500> 400 100<0 500 500 600 0 500 0 500> 700 100<0 500 0 600 0 500 0 500>
CounterMasks: 1 38
LayerCount: 2
Fore
SplineSet
200 600 m 1
 400 600 l 1
 400 500 l 1
 200 500 l 1
 200 600 l 1
400 500 m 1
 500 500 l 1
 500 0 l 1
 400 0 l 1
 400 500 l 1
500 500 m 1
 500 600 l 1
 700 600 l 1
 700 500 l 1
 500 500 l 1
700 500 m 1
 800 500 l 1
 800 0 l 1
 700 0 l 1
 700 500 l 1
200 500 m 1
 200 0 l 1
 100 0 l 1
 100 500 l 1
 200 500 l 1
EndSplineSet
EndChar

StartChar: n
Encoding: 110 110 111
Width: 700
GlyphClass: 1
Flags: MW
HStem: 0 21G<100 200 100 100 500 600 500 500> 400 100<200 300 200 200> 500 100<100 500 300 500 300 500 300 500 300 600>
VStem: 100 100<0 400 0 500> 500 100<0 500 0 600 0 500 0 500>
LayerCount: 2
Fore
SplineSet
300 600 m 1xb8
 500 600 l 1
 500 500 l 1xb8
 300 500 l 1xd8
 300 600 l 1xb8
500 500 m 1
 600 500 l 1
 600 0 l 1
 500 0 l 1
 500 500 l 1
300 500 m 1xd8
 300 400 l 1
 200 400 l 1xd8
 200 0 l 1
 100 0 l 1
 100 500 l 1xb8
 300 500 l 1xd8
EndSplineSet
EndChar

StartChar: o
Encoding: 111 111 112
Width: 700
GlyphClass: 1
Flags: MW
HStem: 0 100<200 500 100 200> 500 100<100 500 200 500 200 500 200 500 200 600>
VStem: 100 100<100 500> 500 100<0 500 100 500 100 600 100 500 100 500>
LayerCount: 2
Fore
SplineSet
200 600 m 1
 500 600 l 1
 500 500 l 1
 200 500 l 1
 200 600 l 1
500 500 m 1
 600 500 l 1
 600 100 l 1
 500 100 l 1
 500 500 l 1
500 100 m 1
 500 0 l 1
 200 0 l 1
 200 100 l 1
 500 100 l 1
200 100 m 1
 100 100 l 1
 100 500 l 1
 200 500 l 1
 200 100 l 1
EndSplineSet
EndChar

StartChar: p
Encoding: 112 112 113
Width: 700
GlyphClass: 1
Flags: MW
HStem: -100 21G<100 200 100 100> 100 100<200 500 200 500> 500 100<200 500 200 200 100 600>
VStem: 100 100<-100 100 200 500> 500 100<100 500 200 500 200 500 200 600 200 500>
LayerCount: 2
Fore
SplineSet
100 600 m 1
 500 600 l 1
 500 500 l 1
 200 500 l 1
 200 200 l 1
 500 200 l 1
 500 100 l 1
 200 100 l 1
 200 -100 l 1
 100 -100 l 1
 100 600 l 1
500 500 m 1
 600 500 l 1
 600 200 l 1
 500 200 l 1
 500 500 l 1
EndSplineSet
EndChar

StartChar: q
Encoding: 113 113 114
Width: 700
GlyphClass: 1
Flags: MW
HStem: -100 21G<500 600 500 500> 100 100<200 500 100 200> 500 100<100 600 200 600 200 500 200 600>
VStem: 100 100<200 500> 500 100<-100 100 100 100 200 500 500 500>
LayerCount: 2
Fore
SplineSet
200 600 m 1
 600 600 l 1
 600 -100 l 1
 500 -100 l 1
 500 100 l 1
 200 100 l 1
 200 200 l 1
 500 200 l 1
 500 500 l 1
 200 500 l 1
 200 600 l 1
200 200 m 1
 100 200 l 1
 100 500 l 1
 200 500 l 1
 200 200 l 1
EndSplineSet
EndChar

StartChar: r
Encoding: 114 114 115
Width: 600
GlyphClass: 1
Flags: MW
HStem: 0 21G<100 200 100 100> 500 100<100 300 300 500>
VStem: 100 100<0 400 500 600>
LayerCount: 2
Fore
SplineSet
100 600 m 1
 200 600 l 1
 200 500 l 1
 300 500 l 1
 300 400 l 1
 200 400 l 1
 200 0 l 1
 100 0 l 1
 100 600 l 1
300 500 m 1
 300 600 l 1
 500 600 l 1
 500 500 l 1
 300 500 l 1
EndSplineSet
EndChar

StartChar: s
Encoding: 115 115 116
Width: 700
GlyphClass: 1
Flags: MW
HStem: 0 100<200 500 100 200> 100 100<100 200 100 200 100 500> 300 100<200 500 100 200> 400 100<100 200 100 200 200 500> 500 100<100 500 200 500 200 500 200 500>
VStem: 100 100<100 200 400 500> 200 300<0 100 100 200 0 100 0 100 300 400 500 600> 500 100<0 300 100 300 100 400 100 300 100 300>
LayerCount: 2
Fore
SplineSet
200 600 m 1x0a
 500 600 l 1
 500 500 l 1x0a
 200 500 l 1x14
 200 600 l 1x0a
200 500 m 1x14
 200 400 l 1x24
 100 400 l 1
 100 500 l 1
 200 500 l 1x14
200 400 m 1
 500 400 l 1
 500 300 l 1
 200 300 l 1x22
 200 400 l 1
500 300 m 1
 600 300 l 1
 600 100 l 1x61
 500 100 l 1x82
 500 300 l 1
500 100 m 1x82
 500 0 l 1
 200 0 l 1x82
 200 100 l 1x84
 500 100 l 1x82
200 100 m 1x84
 100 100 l 1
 100 200 l 1
 200 200 l 1x44
 200 100 l 1x84
EndSplineSet
EndChar

StartChar: t
Encoding: 116 116 117
Width: 600
GlyphClass: 1
Flags: MW
HStem: 0 100<200 500 100 200> 400 100<200 500 200 500> 680 20G<100 200 200 200>
VStem: 100 100<100 400 500 700>
LayerCount: 2
Fore
SplineSet
100 700 m 1
 200 700 l 1
 200 500 l 1
 500 500 l 1
 500 400 l 1
 200 400 l 1
 200 100 l 1
 100 100 l 1
 100 700 l 1
200 100 m 1
 500 100 l 1
 500 0 l 1
 200 0 l 1
 200 100 l 1
EndSplineSet
EndChar

StartChar: u
Encoding: 117 117 118
Width: 700
GlyphClass: 1
Flags: MW
HStem: 0 100<200 400 100 200> 100 100<200 500 400 500 400 500 400 500> 580 20G<100 200 200 200 500 600 600 600> 580 20G<100 200 200 200 500 600 600 600>
VStem: 100 100<100 600> 500 100<0 100 100 100 200 600 0 600>
LayerCount: 2
Fore
SplineSet
100 600 m 1x6c
 200 600 l 1
 200 100 l 1xac
 100 100 l 1
 100 600 l 1x6c
200 100 m 1
 400 100 l 1
 400 0 l 1
 200 0 l 1
 200 100 l 1
400 100 m 1
 400 200 l 1
 500 200 l 1x4c
 500 600 l 1
 600 600 l 1
 600 0 l 1
 500 0 l 1xac
 500 100 l 1x4c
 400 100 l 1
EndSplineSet
EndChar

StartChar: v
Encoding: 118 118 119
Width: 700
GlyphClass: 1
Flags: MW
HStem: 0 100<300 400 200 300> 100 200<200 300 100 200 100 400 400 500> 580 20G<100 200 200 200 500 600 600 600> 580 20G<100 200 200 200 500 600 600 600>
VStem: 100 100<300 600> 200 100<100 300> 300 100<0 100 100 300 0 100 0 100> 400 100<0 300 100 300 100 300> 500 100<100 600 300 600 300 600>
LayerCount: 2
Fore
SplineSet
100 600 m 1x68
 200 600 l 1
 200 300 l 1
 100 300 l 1
 100 600 l 1x68
200 300 m 1
 300 300 l 1x44
 300 100 l 1x84
 200 100 l 1x44
 200 300 l 1
300 100 m 1x84
 400 100 l 1
 400 0 l 1
 300 0 l 1x82
 300 100 l 1x84
400 100 m 1
 400 300 l 1
 500 300 l 1
 500 100 l 1x41
 400 100 l 1
500 300 m 1
 500 600 l 1
 600 600 l 1
 600 300 l 1x6080
 500 300 l 1
EndSplineSet
EndChar

StartChar: w
Encoding: 119 119 120
Width: 800
GlyphClass: 1
Flags: MW
HStem: 0 100<200 300 100 200 400 600> 580 20G<600 700 700 700> 580 20G<600 700 700 700>
VStem: 100 100<100 500> 200 100<0 100 100 500 0 100 0 100> 300 100<0 100 0 100 100 500> 600 100<0 600 100 600 100 600>
LayerCount: 2
Fore
SplineSet
600 600 m 1xc2
 700 600 l 1
 700 100 l 1
 600 100 l 1
 600 600 l 1xc2
600 100 m 1
 600 0 l 1
 400 0 l 1
 400 100 l 1x86
 600 100 l 1
400 100 m 1
 300 100 l 1x8a
 300 500 l 1
 400 500 l 1
 400 100 l 1
300 100 m 1
 300 0 l 1
 200 0 l 1x8a
 200 100 l 1x92
 300 100 l 1
200 100 m 1x92
 100 100 l 1
 100 500 l 1
 200 500 l 1
 200 100 l 1x92
EndSplineSet
EndChar

StartChar: x
Encoding: 120 120 121
Width: 700
GlyphClass: 1
Flags: MW
HStem: 0 100<100 200 100 200 500 600> 100 100<100 300 200 300 200 300 200 300 400 500> 400 100<200 300 100 200 400 500> 500 100<100 200 100 200 100 300 500 600>
VStem: 100 100<0 100 0 100 500 600> 200 100<0 200 100 200 100 200 400 500> 300 100<100 200 100 200 200 400 400 500> 400 100<100 200 400 500> 500 100<0 100 0 200 0 100 0 100 500 600>
LayerCount: 2
Fore
SplineSet
100 600 m 1x18
 200 600 l 1x18
 200 500 l 1x28
 100 500 l 1
 100 600 l 1x18
200 500 m 1x28
 300 500 l 1
 300 400 l 1
 200 400 l 1x24
 200 500 l 1x28
300 400 m 1
 400 400 l 1
 400 200 l 1x62
 300 200 l 1x64
 300 400 l 1
400 400 m 1
 400 500 l 1
 500 500 l 1
 500 400 l 1x21
 400 400 l 1
500 500 m 1
 500 600 l 1
 600 600 l 1
 600 500 l 1x1080
 500 500 l 1
400 200 m 1x42
 500 200 l 1x41
 500 100 l 1x81
 400 100 l 1x41
 400 200 l 1x42
500 100 m 1x81
 600 100 l 1
 600 0 l 1
 500 0 l 1x8080
 500 100 l 1x81
300 200 m 1x44
 300 100 l 1x44
 200 100 l 1x88
 200 200 l 1
 300 200 l 1x44
200 100 m 1x88
 200 0 l 1
 100 0 l 1
 100 100 l 1
 200 100 l 1x88
EndSplineSet
EndChar

StartChar: y
Encoding: 121 121 122
Width: 600
GlyphClass: 1
Flags: MW
HStem: 0 100<100 300 100 300> 200 100<200 300 100 200> 580 20G<100 200 200 200 400 500 500 500> 580 20G<100 200 200 200 400 500 500 500>
VStem: 100 100<300 600> 300 100<0 300 100 200 200 200> 400 100<100 600 300 600 300 600>
LayerCount: 2
Fore
SplineSet
100 600 m 1xe8
 200 600 l 1
 200 300 l 1
 100 300 l 1
 100 600 l 1xe8
200 300 m 1
 400 300 l 1xca
 400 100 l 1
 300 100 l 1
 300 200 l 1xcc
 200 200 l 1
 200 300 l 1
400 300 m 1
 400 600 l 1
 500 600 l 1xea
 500 300 l 1
 400 300 l 1
300 100 m 1xcc
 300 0 l 1
 100 0 l 1
 100 100 l 1
 300 100 l 1xcc
EndSplineSet
EndChar

StartChar: z
Encoding: 122 122 123
Width: 600
GlyphClass: 1
Flags: MW
HStem: 0 100<200 500 200 500> 200 100<100 300 200 300 200 300 200 300> 300 100<200 400 300 400 300 400 300 400> 500 100<100 400 100 500>
VStem: 100 100<100 200 100 200 100 200> 200 100<100 300 200 300 200 300> 300 100<200 400 300 400 300 400> 400 100<400 500 500 500>
LayerCount: 2
Fore
SplineSet
100 600 m 1xb9
 500 600 l 1
 500 400 l 1xb9
 400 400 l 1xb2
 400 500 l 1
 100 500 l 1
 100 600 l 1xb9
400 400 m 1xb2
 400 300 l 1xb2
 300 300 l 1xd4
 300 400 l 1
 400 400 l 1xb2
300 300 m 1xd4
 300 200 l 1xd4
 200 200 l 1xd8
 200 300 l 1
 300 300 l 1xd4
200 200 m 1xd9
 200 100 l 1
 500 100 l 1
 500 0 l 1
 100 0 l 1
 100 200 l 1
 200 200 l 1xd9
EndSplineSet
EndChar

StartChar: braceleft
Encoding: 123 123 124
Width: 600
GlyphClass: 1
Flags: MW
HStem: -100 100<300 400 200 300> 0 100<300 500 400 500 400 500 400 500> 500 100<400 500> 600 100<200 400 300 400 300 400 300 400 300 500>
VStem: 100 100<200 400> 200 100<0 200 400 600> 300 100<-100 0 0 100 -100 0 -100 0 500 600 600 700> 400 100<-100 100 0 100 0 100 500 600>
LayerCount: 2
Fore
SplineSet
300 700 m 1x12
 400 700 l 1x12
 400 600 l 1x22
 300 600 l 1x14
 300 700 l 1x12
400 600 m 1x22
 500 600 l 1
 500 500 l 1
 400 500 l 1x21
 400 600 l 1x22
300 600 m 1x14
 300 400 l 1x14
 200 400 l 1x18
 200 600 l 1
 300 600 l 1x14
200 400 m 1x08
 200 200 l 1
 100 200 l 1
 100 400 l 1
 200 400 l 1x08
200 200 m 1
 300 200 l 1
 300 0 l 1x84
 200 0 l 1x44
 200 200 l 1
300 0 m 1
 400 0 l 1
 400 -100 l 1
 300 -100 l 1x82
 300 0 l 1
400 0 m 1
 400 100 l 1
 500 100 l 1
 500 0 l 1x41
 400 0 l 1
EndSplineSet
EndChar

StartChar: bar
Encoding: 124 124 125
Width: 300
GlyphClass: 1
Flags: MW
HStem: -100 21G<100 200 100 100> 680 20G<100 200 200 200>
VStem: 100 100<-100 700 -100 700>
LayerCount: 2
Fore
SplineSet
100 700 m 1
 200 700 l 1
 200 -100 l 1
 100 -100 l 1
 100 700 l 1
EndSplineSet
EndChar

StartChar: braceright
Encoding: 125 125 126
Width: 600
GlyphClass: 1
Flags: MW
HStem: -100 100<200 300 100 200> 0 100<100 200 100 200 100 300> 500 100<100 200 100 200> 600 100<100 300 200 300 200 300 200 300 200 400>
VStem: 100 100<0 100 500 600> 200 100<-100 0 0 100 -100 0 -100 0 500 500 500 600 600 700> 300 100<-100 200 0 200 0 200 400 600> 400 100<0 400 200 400 200 600 200 400 200 400>
LayerCount: 2
Fore
SplineSet
200 700 m 1x14
 300 700 l 1
 300 600 l 1x14
 200 600 l 1x28
 200 700 l 1x14
300 600 m 1
 400 600 l 1
 400 400 l 1
 300 400 l 1x12
 300 600 l 1
400 400 m 1
 500 400 l 1
 500 200 l 1x01
 400 200 l 1
 400 400 l 1
400 200 m 1x82
 400 0 l 1x42
 300 0 l 1x84
 300 200 l 1
 400 200 l 1x82
300 0 m 1x84
 300 -100 l 1
 200 -100 l 1x84
 200 0 l 1x88
 300 0 l 1x84
200 0 m 1x88
 100 0 l 1
 100 100 l 1
 200 100 l 1x48
 200 0 l 1x88
200 600 m 1x28
 200 500 l 1
 100 500 l 1
 100 600 l 1
 200 600 l 1x28
EndSplineSet
EndChar

StartChar: asciitilde
Encoding: 126 126 127
Width: 800
GlyphClass: 1
Flags: MW
HStem: 200 100<100 200 100 200 400 600> 300 100<100 400 200 400 200 400 200 400 200 600 600 700>
VStem: 100 100<200 300 200 300> 600 100<200 400 300 400 300 400>
LayerCount: 2
Fore
SplineSet
200 400 m 1x70
 400 400 l 1x70
 400 300 l 1
 200 300 l 1xb0
 200 400 l 1x70
400 300 m 1xb0
 600 300 l 1
 600 200 l 1
 400 200 l 1
 400 300 l 1xb0
600 300 m 1
 600 400 l 1
 700 400 l 1
 700 300 l 1x70
 600 300 l 1
200 300 m 1xb0
 200 200 l 1
 100 200 l 1
 100 300 l 1
 200 300 l 1xb0
EndSplineSet
EndChar

StartChar: Euro
Encoding: 8364 8364 129
Width: 900
GlyphClass: 1
Flags: MW
HStem: -100 100<300 700 200 300> 0 100<100 300 100 200 300 500 700 800> 100 100<100 200 100 200 300 500> 300 100<100 200 100 200 300 600> 400 100<100 300 200 300 300 600 600 600 700 800> 500 100<200 700 300 700 300 700 300 700 300 800>
VStem: 200 100<0 100 200 300 400 500> 700 100<-100 100 0 100 0 100 400 500>
LayerCount: 2
Fore
SplineSet
300 600 m 1x07
 700 600 l 1x07
 700 500 l 1x0b
 300 500 l 1
 300 600 l 1x07
700 500 m 1x0b
 800 500 l 1
 800 400 l 1
 700 400 l 1
 700 500 l 1x0b
300 500 m 1x37
 300 400 l 1
 600 400 l 1
 600 300 l 1
 300 300 l 1
 300 200 l 1
 500 200 l 1
 500 100 l 1
 300 100 l 1
 300 0 l 1xb7
 200 0 l 1x43
 200 100 l 1
 100 100 l 1
 100 200 l 1
 200 200 l 1
 200 300 l 1
 100 300 l 1
 100 400 l 1
 200 400 l 1
 200 500 l 1
 300 500 l 1x37
300 0 m 1
 700 0 l 1
 700 -100 l 1
 300 -100 l 1
 300 0 l 1
700 0 m 1
 700 100 l 1
 800 100 l 1
 800 0 l 1x43
 700 0 l 1
EndSplineSet
EndChar

StartChar: quotesinglbase
Encoding: 8218 8218 131
Width: 400
GlyphClass: 1
Flags: MW
HStem: -100 100<100 200 100 200> 0 21G<100 200 200 300 200 200 200 200>
VStem: 100 100<-100 0 -100 0> 200 100<-100 200 0 200 0 200>
LayerCount: 2
Fore
SplineSet
200 200 m 1x90
 300 200 l 1
 300 0 l 1x50
 200 0 l 1xa0
 200 200 l 1x90
200 0 m 1xa0
 200 -100 l 1
 100 -100 l 1
 100 0 l 1
 200 0 l 1xa0
EndSplineSet
EndChar

StartChar: florin
Encoding: 402 402 132
Width: 500
GlyphClass: 1
Flags: MW
HStem: 0 100<100 200 100 200> 300 100<100 200 100 200 300 400> 500 100<200 400 300 400 300 400 300 400>
VStem: 100 100<0 100 0 100> 200 100<0 300 100 300 100 300 400 500> 300 100<100 400 300 500 300 400 500 600>
LayerCount: 2
Fore
SplineSet
300 600 m 1xe4
 400 600 l 1
 400 500 l 1xe4
 300 500 l 1xe8
 300 600 l 1xe4
300 500 m 1xe8
 300 400 l 1xe8
 400 400 l 1
 400 300 l 1xe4
 300 300 l 1
 300 100 l 1xe8
 200 100 l 1xf0
 200 300 l 1xe8
 100 300 l 1
 100 400 l 1xf0
 200 400 l 1
 200 500 l 1
 300 500 l 1xe8
200 100 m 1xf0
 200 0 l 1
 100 0 l 1
 100 100 l 1
 200 100 l 1xf0
EndSplineSet
EndChar

StartChar: quotedblbase
Encoding: 8222 8222 133
Width: 600
GlyphClass: 1
Flags: MW
HStem: -100 100<100 200 100 200 300 400> 0 200<100 300 200 300 200 300 200 300 200 400 400 500 200 400 200 400>
VStem: 100 100<-100 0 -100 0> 200 100<-100 0 -100 0 0 200> 300 100<-100 0 0 200 -100 0 -100 0> 400 100<-100 200 0 200 0 200>
LayerCount: 2
Fore
SplineSet
200 200 m 1x50
 300 200 l 1x50
 300 0 l 1x90
 200 0 l 1xa0
 200 200 l 1x50
300 0 m 1x90
 400 0 l 1
 400 -100 l 1
 300 -100 l 1x88
 300 0 l 1x90
400 0 m 1
 400 200 l 1
 500 200 l 1
 500 0 l 1x44
 400 0 l 1
200 0 m 1xa0
 200 -100 l 1
 100 -100 l 1
 100 0 l 1
 200 0 l 1xa0
EndSplineSet
EndChar

StartChar: ellipsis
Encoding: 8230 8230 134
Width: 900
GlyphClass: 1
Flags: MW
HStem: 0 100<100 200 100 200 400 500 700 800>
VStem: 100 100<0 100 0 100> 400 100<0 100 0 100> 700 100<0 100 0 100>
CounterMasks: 1 70
LayerCount: 2
Fore
SplineSet
100 100 m 1
 200 100 l 1
 200 0 l 1
 100 0 l 1
 100 100 l 1
400 100 m 1
 500 100 l 1
 500 0 l 1
 400 0 l 1
 400 100 l 1
700 100 m 1
 800 100 l 1
 800 0 l 1
 700 0 l 1
 700 100 l 1
EndSplineSet
EndChar

StartChar: dagger
Encoding: 8224 8224 135
Width: 500
GlyphClass: 1
Flags: MW
HStem: 0 21G<200 300 200 200> 400 100<100 200 100 200 300 400> 580 20G<200 300 300 300> 580 20G<200 300 300 300>
VStem: 200 100<0 400 0 400 500 600>
LayerCount: 2
Fore
SplineSet
200 600 m 1xe8
 300 600 l 1
 300 500 l 1
 400 500 l 1
 400 400 l 1
 300 400 l 1
 300 0 l 1
 200 0 l 1
 200 400 l 1
 100 400 l 1
 100 500 l 1
 200 500 l 1
 200 600 l 1xe8
EndSplineSet
EndChar

StartChar: daggerdbl
Encoding: 8225 8225 136
Width: 500
GlyphClass: 1
Flags: MW
HStem: 0 21G<200 300 200 200> 100 100<100 200 100 200 300 400> 400 100<100 200 100 200 300 400> 580 20G<200 300 300 300> 580 20G<200 300 300 300>
VStem: 200 100<0 100 0 100 200 400 500 600>
LayerCount: 2
Fore
SplineSet
200 600 m 1xf4
 300 600 l 1
 300 500 l 1
 400 500 l 1
 400 400 l 1
 300 400 l 1
 300 200 l 1
 400 200 l 1
 400 100 l 1
 300 100 l 1
 300 0 l 1
 200 0 l 1
 200 100 l 1
 100 100 l 1
 100 200 l 1
 200 200 l 1
 200 400 l 1
 100 400 l 1
 100 500 l 1
 200 500 l 1
 200 600 l 1xf4
EndSplineSet
EndChar

StartChar: circumflex
Encoding: 710 710 137
Width: 700
GlyphClass: 1
Flags: MW
HStem: 400 100<100 200 100 200 500 600> 500 100<100 300 200 300 200 300 200 300 400 500> 600 100<200 400 300 400 300 400 300 400 300 500>
VStem: 100 100<400 500 400 500> 200 100<400 600 500 600 500 600> 300 100<500 600 500 600 600 700> 400 100<500 600> 500 100<400 500 400 600 400 500 400 500>
LayerCount: 2
Fore
SplineSet
300 700 m 1x24
 400 700 l 1x24
 400 600 l 1x44
 300 600 l 1x48
 300 700 l 1x24
400 600 m 1x44
 500 600 l 1x42
 500 500 l 1x82
 400 500 l 1x42
 400 600 l 1x44
500 500 m 1x82
 600 500 l 1
 600 400 l 1
 500 400 l 1x81
 500 500 l 1x82
300 600 m 1x48
 300 500 l 1x48
 200 500 l 1x90
 200 600 l 1
 300 600 l 1x48
200 500 m 1x90
 200 400 l 1
 100 400 l 1
 100 500 l 1
 200 500 l 1x90
EndSplineSet
EndChar

StartChar: perthousand
Encoding: 8240 8240 138
Width: 1000
GlyphClass: 1
Flags: MW
HStem: -100 100<100 200 100 200 500 600 700 800> 0 200<100 300 200 300 200 300 200 300 400 500 200 400 500 600 600 700 700 800 800 900> 200 100<200 400 300 400 300 500 500 600 700 800> 300 100<300 400 200 300> 400 200<200 300 200 300 300 400 400 500 200 400 200 400 600 700> 600 100<200 400 300 400 300 400 300 400 300 500 700 800>
VStem: 100 100<-100 0 -100 0> 200 100<-100 200 0 200 0 200 400 600> 300 100<0 200 0 200 300 400 400 600 600 700> 400 100<0 200 400 600> 500 100<-100 0 0 200 -100 0 -100 0 200 300 400 600> 600 100<-100 0 -100 0 0 200 200 300 400 600> 700 100<-100 0 -100 0 0 200 -100 0 200 300 600 700> 800 100<-100 200 0 200 0 300 0 200 0 200>
LayerCount: 2
Fore
SplineSet
300 700 m 1x0480
 400 700 l 1x0480
 400 600 l 1x0880
 300 600 l 1x09
 300 700 l 1x0480
400 600 m 1x0880
 500 600 l 1
 500 400 l 1x0840
 400 400 l 1x1080
 400 600 l 1x0880
400 400 m 1x1080
 400 300 l 1
 300 300 l 1x1080
 300 400 l 1x11
 400 400 l 1x1080
300 400 m 1x11
 200 400 l 1
 200 600 l 1
 300 600 l 1x09
 300 400 l 1x11
700 700 m 1x0408
 800 700 l 1
 800 600 l 1x0408
 700 600 l 1x0810
 700 700 l 1x0408
700 600 m 1x0810
 700 400 l 1
 600 400 l 1
 600 600 l 1
 700 600 l 1x0810
500 300 m 1x2020
 600 300 l 1x2020
 600 200 l 1x4020
 500 200 l 1x4040
 500 300 l 1x2020
600 200 m 1x4020
 700 200 l 1x4010
 700 0 l 1x8010
 600 0 l 1x8020
 600 200 l 1x4020
700 200 m 1
 700 300 l 1
 800 300 l 1x2008
 800 200 l 1x4008
 700 200 l 1
800 200 m 1x4008
 900 200 l 1
 900 0 l 1x4004
 800 0 l 1x8008
 800 200 l 1x4008
800 0 m 1x8008
 800 -100 l 1
 700 -100 l 1x8008
 700 0 l 1x8010
 800 0 l 1x8008
600 0 m 1x8020
 600 -100 l 1
 500 -100 l 1x8020
 500 0 l 1x8040
 600 0 l 1x8020
500 0 m 1x8040
 400 0 l 1
 400 200 l 1
 500 200 l 1x4040
 500 0 l 1x8040
200 200 m 1x41
 300 200 l 1
 300 0 l 1x41
 200 0 l 1x82
 200 200 l 1x41
200 0 m 1x82
 200 -100 l 1
 100 -100 l 1
 100 0 l 1
 200 0 l 1x82
EndSplineSet
EndChar

StartChar: Scaron
Encoding: 352 352 139
Width: 700
GlyphClass: 1
Flags: MW
HStem: 0 100<200 500 100 200> 100 100<100 200 100 200 100 500> 300 100<200 500 100 200> 400 100<100 200 100 200 200 500> 500 100<100 200 200 500 100 200 100 200> 600 100<100 200 100 200 100 500 500 600>
VStem: 100 100<100 200 400 500 600 700> 200 300<0 100 100 200 0 100 0 100 300 400 500 600 600 700> 500 100<0 300 100 300 100 400 100 300 100 300 600 700>
LayerCount: 2
Fore
SplineSet
100 700 m 1x06
 200 700 l 1x06
 200 600 l 1x0a
 100 600 l 1
 100 700 l 1x06
200 600 m 1x0a
 500 600 l 1
 500 500 l 1x09
 200 500 l 1x12
 200 600 l 1x0a
500 600 m 1
 500 700 l 1
 600 700 l 1
 600 600 l 1x0480
 500 600 l 1
200 500 m 1x12
 200 400 l 1x22
 100 400 l 1
 100 500 l 1
 200 500 l 1x12
200 400 m 1
 500 400 l 1
 500 300 l 1
 200 300 l 1x21
 200 400 l 1
500 300 m 1
 600 300 l 1
 600 100 l 1x6080
 500 100 l 1x81
 500 300 l 1
500 100 m 1x81
 500 0 l 1
 200 0 l 1x81
 200 100 l 1x82
 500 100 l 1x81
200 100 m 1x82
 100 100 l 1
 100 200 l 1
 200 200 l 1x42
 200 100 l 1x82
EndSplineSet
EndChar

StartChar: guilsinglleft
Encoding: 8249 8249 140
Width: 400
GlyphClass: 1
Flags: MW
HStem: 100 100<200 300 100 200> 400 100<100 300 200 300 200 300 200 300>
VStem: 100 100<200 400> 200 100<100 200 100 400 100 200 100 200 400 500>
LayerCount: 2
Fore
SplineSet
200 500 m 1xd0
 300 500 l 1
 300 400 l 1xd0
 200 400 l 1xe0
 200 500 l 1xd0
200 400 m 1xe0
 200 200 l 1
 100 200 l 1
 100 400 l 1
 200 400 l 1xe0
200 200 m 1
 300 200 l 1
 300 100 l 1
 200 100 l 1xd0
 200 200 l 1
EndSplineSet
EndChar

StartChar: OE
Encoding: 338 338 141
Width: 900
GlyphClass: 1
Flags: MW
HStem: 0 100<200 400 100 200 600 800> 100 100<200 500 400 500 400 500 400 500> 300 100<600 800 600 800> 580 20G<100 200 200 200 200 500 200 200 600 800 600 600> 580 20G<100 200 200 200 200 500 200 200 600 800 600 600> 600 100<100 800 200 800 200 500 200 800 600 800 600 600>
VStem: 100 100<100 600> 500 100<0 300 100 300 200 300 400 600>
LayerCount: 2
Fore
SplineSet
200 700 m 1x27
 800 700 l 1
 800 600 l 1
 600 600 l 1
 600 400 l 1
 800 400 l 1
 800 300 l 1
 600 300 l 1
 600 100 l 1
 800 100 l 1
 800 0 l 1
 500 0 l 1xa7
 500 100 l 1x63
 400 100 l 1xa3
 400 200 l 1
 500 200 l 1
 500 600 l 1x67
 200 600 l 1x33
 200 700 l 1x27
400 100 m 1
 400 0 l 1
 200 0 l 1
 200 100 l 1
 400 100 l 1
200 100 m 1
 100 100 l 1
 100 600 l 1
 200 600 l 1x73
 200 100 l 1
EndSplineSet
EndChar

StartChar: Zcaron
Encoding: 381 381 143
Width: 700
GlyphClass: 1
Flags: MW
HStem: 0 100<200 600 200 600> 200 100<100 300 200 300 200 300 200 300> 300 100<200 400 300 400 300 400 300 400> 500 100<200 400 100 200> 600 100<100 200 100 200 100 500>
VStem: 100 100<100 200 100 200 100 200 600 700> 200 100<100 300 200 300 200 300> 300 100<200 400 300 400 300 400> 500 100<600 700>
LayerCount: 2
Fore
SplineSet
100 700 m 1x8c80
 200 700 l 1x8c80
 200 600 l 1x9480
 100 600 l 1
 100 700 l 1x8c80
200 600 m 1xb480
 500 600 l 1
 500 700 l 1
 600 700 l 1x8c80
 600 500 l 1
 500 500 l 1
 500 400 l 1
 400 400 l 1
 400 500 l 1xb580
 200 500 l 1xb280
 200 600 l 1xb480
400 400 m 1xa180
 400 300 l 1xa180
 300 300 l 1xc280
 300 400 l 1
 400 400 l 1xa180
300 300 m 1xc280
 300 200 l 1xc280
 200 200 l 1xc480
 200 300 l 1
 300 300 l 1xc280
200 200 m 1xc480
 200 100 l 1
 600 100 l 1
 600 0 l 1
 100 0 l 1
 100 200 l 1
 200 200 l 1xc480
EndSplineSet
EndChar

StartChar: quoteleft
Encoding: 8216 8216 146
Width: 400
GlyphClass: 1
Flags: MW
HStem: 300 100<200 300 100 200> 580 20G<100 200 200 200> 580 20G<100 200 200 200>
VStem: 100 100<400 600> 200 100<300 400 300 600 300 400 300 400>
LayerCount: 2
Fore
SplineSet
100 600 m 1xd0
 200 600 l 1
 200 400 l 1
 100 400 l 1
 100 600 l 1xd0
200 400 m 1
 300 400 l 1
 300 300 l 1
 200 300 l 1x88
 200 400 l 1
EndSplineSet
EndChar

StartChar: quoteright
Encoding: 8217 8217 147
Width: 400
GlyphClass: 1
Flags: MW
HStem: 500 100<100 200 100 200 100 300>
VStem: 100 100<500 600> 200 100<300 500 300 600 300 500 300 500>
LayerCount: 2
Fore
SplineSet
100 600 m 1xc0
 200 600 l 1
 200 500 l 1
 100 500 l 1
 100 600 l 1xc0
200 500 m 1
 300 500 l 1
 300 300 l 1
 200 300 l 1xa0
 200 500 l 1
EndSplineSet
EndChar

StartChar: quotedblleft
Encoding: 8220 8220 148
Width: 600
GlyphClass: 1
Flags: MW
HStem: 300 100<200 300 100 200 400 500> 400 200<100 200 100 200 100 300 300 400 100 300 100 300>
VStem: 100 100<400 600> 200 100<300 400 400 600 300 400 300 400> 300 100<300 400 300 400 400 600> 400 100<300 400 300 600 300 400 300 400>
LayerCount: 2
Fore
SplineSet
100 600 m 1x60
 200 600 l 1x60
 200 400 l 1xa0
 100 400 l 1
 100 600 l 1x60
200 400 m 1xa0
 300 400 l 1
 300 300 l 1
 200 300 l 1x90
 200 400 l 1xa0
300 400 m 1
 300 600 l 1
 400 600 l 1x48
 400 400 l 1x88
 300 400 l 1
400 400 m 1x88
 500 400 l 1
 500 300 l 1
 400 300 l 1x84
 400 400 l 1x88
EndSplineSet
EndChar

StartChar: quotedblright
Encoding: 8221 8221 149
Width: 600
GlyphClass: 1
Flags: MW
HStem: 300 200<200 300 100 200 400 500> 500 100<100 200 100 200 100 300 300 400>
VStem: 100 100<500 600> 200 100<300 500 500 600 300 500 300 500> 300 100<300 500 300 500 500 600> 400 100<300 500 300 600 300 500 300 500>
LayerCount: 2
Fore
SplineSet
100 600 m 1x60
 200 600 l 1x60
 200 500 l 1xa0
 100 500 l 1
 100 600 l 1x60
200 500 m 1xa0
 300 500 l 1
 300 300 l 1
 200 300 l 1x90
 200 500 l 1xa0
300 500 m 1
 300 600 l 1
 400 600 l 1x48
 400 500 l 1x88
 300 500 l 1
400 500 m 1x88
 500 500 l 1
 500 300 l 1
 400 300 l 1x84
 400 500 l 1x88
EndSplineSet
EndChar

StartChar: bullet
Encoding: 8226 8226 150
Width: 600
GlyphClass: 1
Flags: MW
HStem: 200 200<100 200 100 200 400 500>
VStem: 200 200<100 200 100 200 400 500>
LayerCount: 2
Fore
SplineSet
200 500 m 1
 400 500 l 1
 400 400 l 1
 500 400 l 1
 500 200 l 1
 400 200 l 1
 400 100 l 1
 200 100 l 1
 200 200 l 1
 100 200 l 1
 100 400 l 1
 200 400 l 1
 200 500 l 1
EndSplineSet
EndChar

StartChar: endash
Encoding: 8211 8211 151
Width: 500
GlyphClass: 1
Flags: MW
HStem: 400 100<100 400 100 400>
LayerCount: 2
Fore
SplineSet
100 500 m 1
 400 500 l 1
 400 400 l 1
 100 400 l 1
 100 500 l 1
EndSplineSet
EndChar

StartChar: emdash
Encoding: 8212 8212 152
Width: 700
GlyphClass: 1
Flags: MW
HStem: 300 100<100 600 100 600>
LayerCount: 2
Fore
SplineSet
100 400 m 1
 600 400 l 1
 600 300 l 1
 100 300 l 1
 100 400 l 1
EndSplineSet
EndChar

StartChar: tilde
Encoding: 732 732 153
Width: 700
GlyphClass: 1
Flags: MW
HStem: 400 100<100 200 100 200 400 500> 500 100<100 400 200 400 200 400 200 400 200 500 500 600>
VStem: 100 100<400 500 400 500> 400 100<400 500 500 600 400 500 400 500> 500 100<400 600 500 600 500 600>
LayerCount: 2
Fore
SplineSet
200 600 m 1x70
 400 600 l 1x70
 400 500 l 1
 200 500 l 1xb0
 200 600 l 1x70
400 500 m 1xb0
 500 500 l 1
 500 400 l 1
 400 400 l 1
 400 500 l 1xb0
500 500 m 1
 500 600 l 1
 600 600 l 1
 600 500 l 1x68
 500 500 l 1
200 500 m 1xa0
 200 400 l 1
 100 400 l 1
 100 500 l 1
 200 500 l 1xa0
EndSplineSet
EndChar

StartChar: trademark
Encoding: 8482 8482 154
Width: 1000
GlyphClass: 1
Flags: MW
HStem: 300 100<600 700> 400 100<400 500 500 600 700 800> 500 100<100 200 100 500 300 500 300 300 100 600>
VStem: 200 100<200 500 200 500> 400 100<200 400 200 400> 500 100<300 400 300 400 400 500> 600 100<300 400 400 500 300 400 300 400> 800 100<200 400 400 400 500 600 200 600>
LayerCount: 2
Fore
SplineSet
100 600 m 1x35
 500 600 l 1x35
 500 500 l 1x55
 300 500 l 1
 300 200 l 1
 200 200 l 1
 200 500 l 1
 100 500 l 1
 100 600 l 1x35
500 500 m 1x55
 600 500 l 1x55
 600 400 l 1x95
 500 400 l 1x59
 500 500 l 1x55
600 400 m 1x95
 700 400 l 1
 700 300 l 1
 600 300 l 1x93
 600 400 l 1x95
700 400 m 1
 700 500 l 1
 800 500 l 1x53
 800 600 l 1
 900 600 l 1x33
 900 200 l 1
 800 200 l 1
 800 400 l 1x53
 700 400 l 1
500 400 m 1x59
 500 200 l 1
 400 200 l 1
 400 400 l 1
 500 400 l 1x59
EndSplineSet
EndChar

StartChar: scaron
Encoding: 353 353 155
Width: 700
GlyphClass: 1
Flags: MW
HStem: 0 100<200 500 100 200> 100 100<100 200 100 200 100 500> 300 100<200 500 100 200> 400 100<100 200 100 200 200 500> 500 100<100 200 200 500 100 200 100 200> 600 100<100 200 100 200 100 500 500 600>
VStem: 100 100<100 200 400 500 600 700> 200 300<0 100 100 200 0 100 0 100 300 400 500 600 600 700> 500 100<0 300 100 300 100 400 100 300 100 300 600 700>
LayerCount: 2
Fore
SplineSet
100 700 m 1x06
 200 700 l 1x06
 200 600 l 1x0a
 100 600 l 1
 100 700 l 1x06
200 600 m 1x0a
 500 600 l 1
 500 500 l 1x09
 200 500 l 1x12
 200 600 l 1x0a
500 600 m 1
 500 700 l 1
 600 700 l 1
 600 600 l 1x0480
 500 600 l 1
200 500 m 1x12
 200 400 l 1x22
 100 400 l 1
 100 500 l 1
 200 500 l 1x12
200 400 m 1
 500 400 l 1
 500 300 l 1
 200 300 l 1x21
 200 400 l 1
500 300 m 1
 600 300 l 1
 600 100 l 1x6080
 500 100 l 1x81
 500 300 l 1
500 100 m 1x81
 500 0 l 1
 200 0 l 1x81
 200 100 l 1x82
 500 100 l 1x81
200 100 m 1x82
 100 100 l 1
 100 200 l 1
 200 200 l 1x42
 200 100 l 1x82
EndSplineSet
EndChar

StartChar: guilsinglright
Encoding: 8250 8250 156
Width: 400
GlyphClass: 1
Flags: MW
HStem: 100 100<100 200 100 200> 400 100<100 200 100 200 100 300>
VStem: 100 100<100 200 100 200 400 500> 200 100<100 400 200 400 200 500 200 400 200 400>
LayerCount: 2
Fore
SplineSet
100 500 m 1xe0
 200 500 l 1
 200 400 l 1
 100 400 l 1
 100 500 l 1xe0
200 400 m 1
 300 400 l 1
 300 200 l 1xd0
 200 200 l 1
 200 400 l 1
200 200 m 1xe0
 200 100 l 1
 100 100 l 1
 100 200 l 1
 200 200 l 1xe0
EndSplineSet
EndChar

StartChar: oe
Encoding: 339 339 157
Width: 900
GlyphClass: 1
Flags: MW
HStem: 0 100<200 400 100 200 600 800> 100 100<200 500 400 500 400 500 400 500 600 800> 200 100<600 800 600 800> 500 100<100 800 200 800 200 500 200 800 600 800 600 600>
VStem: 100 100<100 500> 500 100<0 200 100 200 300 500>
LayerCount: 2
Fore
SplineSet
200 600 m 1x5c
 800 600 l 1
 800 500 l 1
 600 500 l 1
 600 300 l 1
 800 300 l 1
 800 200 l 1
 600 200 l 1
 600 100 l 1
 800 100 l 1
 800 0 l 1
 500 0 l 1xbc
 500 100 l 1x5c
 400 100 l 1x9c
 400 200 l 1
 500 200 l 1
 500 500 l 1
 200 500 l 1
 200 600 l 1x5c
400 100 m 1
 400 0 l 1
 200 0 l 1
 200 100 l 1
 400 100 l 1
200 100 m 1
 100 100 l 1x5c
 100 500 l 1
 200 500 l 1
 200 100 l 1
EndSplineSet
EndChar

StartChar: zcaron
Encoding: 382 382 159
Width: 800
GlyphClass: 1
Flags: MW
HStem: 0 100<300 600 300 600> 200 100<200 400 300 400 300 400 300 400> 300 100<300 500 400 500 400 500 400 500> 500 100<200 500 100 200> 600 100<100 200 100 200 100 600 600 700>
VStem: 100 100<600 700> 200 100<100 200 100 200 100 200> 300 100<100 300 200 300 200 300> 400 100<200 400 300 400 300 400> 500 100<400 500 500 500> 600 100<400 700 600 700 600 700>
LayerCount: 2
Fore
SplineSet
100 700 m 1x8c
 200 700 l 1x8c
 200 600 l 1x94
 100 600 l 1
 100 700 l 1x8c
200 600 m 1xb4
 600 600 l 1x8c20
 600 400 l 1xa840
 500 400 l 1xa880
 500 500 l 1
 200 500 l 1xb240
 200 600 l 1xb4
600 600 m 1
 600 700 l 1
 700 700 l 1
 700 600 l 1
 600 600 l 1
500 400 m 1xa080
 500 300 l 1xa080
 400 300 l 1xc1
 400 400 l 1
 500 400 l 1xa080
400 300 m 1xc1
 400 200 l 1xc1
 300 200 l 1xc2
 300 300 l 1
 400 300 l 1xc1
300 200 m 1xc220
 300 100 l 1
 600 100 l 1
 600 0 l 1
 200 0 l 1
 200 200 l 1
 300 200 l 1xc220
EndSplineSet
EndChar

StartChar: Ydieresis
Encoding: 376 376 160
Width: 700
GlyphClass: 1
Flags: MW
HStem: 0 21G<300 400 300 300> 300 100<200 300 100 200 400 500> 400 100<100 200 100 200 100 300 500 600> 600 100<100 200 100 200 500 600>
VStem: 100 100<400 500 600 700> 200 100<300 400> 300 100<0 300 300 400 0 300 0 300> 400 100<0 400 300 400 300 400> 500 100<300 500 400 500 400 500 600 700>
LayerCount: 2
Fore
SplineSet
100 700 m 1x98
 200 700 l 1
 200 600 l 1
 100 600 l 1
 100 700 l 1x98
500 700 m 1x9080
 600 700 l 1
 600 600 l 1
 500 600 l 1
 500 700 l 1x9080
100 500 m 1xb8
 200 500 l 1xb8
 200 400 l 1xd8
 100 400 l 1
 100 500 l 1xb8
200 400 m 1xd8
 300 400 l 1
 300 300 l 1
 200 300 l 1xd4
 200 400 l 1xd8
300 300 m 1
 400 300 l 1
 400 0 l 1
 300 0 l 1xd2
 300 300 l 1
400 300 m 1
 400 400 l 1
 500 400 l 1
 500 300 l 1xd1
 400 300 l 1
500 400 m 1
 500 500 l 1
 600 500 l 1
 600 400 l 1xb080
 500 400 l 1
EndSplineSet
EndChar

StartChar: exclamdown
Encoding: 161 161 162
Width: 300
GlyphClass: 1
Flags: MW
HStem: 0 21G<100 200 100 100> 600 100<100 200 100 200>
VStem: 100 100<0 500 0 500 600 700>
LayerCount: 2
Fore
SplineSet
100 700 m 1
 200 700 l 1
 200 600 l 1
 100 600 l 1
 100 700 l 1
100 500 m 1
 200 500 l 1
 200 0 l 1
 100 0 l 1
 100 500 l 1
EndSplineSet
EndChar

StartChar: cent
Encoding: 162 162 163
Width: 700
GlyphClass: 1
Flags: MW
HStem: -100 21G<300 400 300 300> 0 100<200 300 100 200 400 500> 100 100<400 600 500 600 500 600 500 600> 300 100<500 600> 400 100<100 300 200 300 200 300 200 300 400 500> 580 20G<300 400 400 400> 580 20G<300 400 400 400>
VStem: 100 100<100 400> 300 100<-100 0 -100 0 100 400 500 600> 500 100<0 200 100 200 100 200 300 400>
CounterMasks: 1 01c0
LayerCount: 2
Fore
SplineSet
300 600 m 1xcdc0
 400 600 l 1
 400 500 l 1
 500 500 l 1xcdc0
 500 400 l 1x91c0
 400 400 l 1
 400 100 l 1
 500 100 l 1
 500 0 l 1
 400 0 l 1
 400 -100 l 1
 300 -100 l 1
 300 0 l 1
 200 0 l 1
 200 100 l 1
 300 100 l 1
 300 400 l 1
 200 400 l 1
 200 500 l 1
 300 500 l 1
 300 600 l 1xcdc0
500 400 m 1x91c0
 600 400 l 1
 600 300 l 1
 500 300 l 1
 500 400 l 1x91c0
500 100 m 1xc1c0
 500 200 l 1
 600 200 l 1
 600 100 l 1xa1c0
 500 100 l 1xc1c0
200 100 m 1xc9c0
 100 100 l 1xa1c0
 100 400 l 1
 200 400 l 1
 200 100 l 1xc9c0
EndSplineSet
EndChar

StartChar: sterling
Encoding: 163 163 164
Width: 800
GlyphClass: 1
Flags: MW
HStem: -100 100<100 200 300 600 100 200> 0 100<100 200 100 200 300 500 600 700> 100 100<100 200 100 200 300 500> 400 100<600 700> 500 100<200 600 300 600 300 600 300 600 300 700>
VStem: 200 100<0 100 0 100 200 500> 600 100<-100 100 0 100 0 100 400 500>
LayerCount: 2
Fore
SplineSet
300 600 m 1x0e
 600 600 l 1x0e
 600 500 l 1x16
 300 500 l 1
 300 600 l 1x0e
600 500 m 1x16
 700 500 l 1
 700 400 l 1
 600 400 l 1
 600 500 l 1x16
300 500 m 1xae
 300 200 l 1
 500 200 l 1
 500 100 l 1
 300 100 l 1
 300 0 l 1
 600 0 l 1
 600 -100 l 1
 100 -100 l 1
 100 0 l 1
 200 0 l 1
 200 100 l 1
 100 100 l 1
 100 200 l 1
 200 200 l 1
 200 500 l 1
 300 500 l 1xae
600 0 m 1
 600 100 l 1
 700 100 l 1
 700 0 l 1x46
 600 0 l 1
EndSplineSet
EndChar

StartChar: currency
Encoding: 164 164 165
Width: 800
GlyphClass: 1
Flags: MW
HStem: 0 100<100 200 100 200 600 700> 100 100<100 300 200 300 300 500 200 300> 200 200<200 300 200 300 300 500 500 600> 400 100<100 300 300 500> 500 100<100 200 100 200 600 700>
VStem: 100 100<0 100 0 100 500 600> 200 100<0 200 200 400> 300 200<100 200 200 400 100 200 100 200 400 500> 500 100<0 200 0 100 200 400> 600 100<0 100 0 100 500 600>
LayerCount: 2
Fore
SplineSet
100 600 m 1x0c
 200 600 l 1
 200 500 l 1
 100 500 l 1
 100 600 l 1x0c
600 600 m 1x0840
 700 600 l 1
 700 500 l 1
 600 500 l 1
 600 600 l 1x0840
300 500 m 1x11
 500 500 l 1x11
 500 400 l 1x21
 300 400 l 1x22
 300 500 l 1x11
500 400 m 1x21
 600 400 l 1
 600 200 l 1x2080
 500 200 l 1x41
 500 400 l 1x21
500 200 m 1x41
 500 100 l 1
 300 100 l 1x41
 300 200 l 1x42
 500 200 l 1x41
300 200 m 1x42
 200 200 l 1
 200 400 l 1
 300 400 l 1x22
 300 200 l 1x42
100 100 m 1x84
 200 100 l 1
 200 0 l 1
 100 0 l 1
 100 100 l 1x84
600 100 m 1x8040
 700 100 l 1
 700 0 l 1
 600 0 l 1
 600 100 l 1x8040
EndSplineSet
EndChar

StartChar: yen
Encoding: 165 165 166
Width: 700
GlyphClass: 1
Flags: MW
HStem: -100 21G<300 400 300 300> 0 100<100 300 100 300 400 600> 200 100<100 300 100 300 400 600> 400 100<200 300 100 200 400 500> 500 100<100 200 100 200 100 300 500 600>
VStem: 100 100<500 600> 200 100<400 500> 300 100<-100 0 -100 0 100 200 300 400 400 500> 400 100<300 500 400 500 400 500> 500 100<500 600>
LayerCount: 2
Fore
SplineSet
100 600 m 1xec
 200 600 l 1xec
 200 500 l 1xf4
 100 500 l 1
 100 600 l 1xec
200 500 m 1xf4
 300 500 l 1
 300 400 l 1
 200 400 l 1xf2
 200 500 l 1xf4
300 400 m 1
 400 400 l 1
 400 300 l 1
 600 300 l 1
 600 200 l 1
 400 200 l 1
 400 100 l 1
 600 100 l 1
 600 0 l 1
 400 0 l 1
 400 -100 l 1
 300 -100 l 1
 300 0 l 1
 100 0 l 1
 100 100 l 1
 300 100 l 1
 300 200 l 1
 100 200 l 1
 100 300 l 1
 300 300 l 1xf540
 300 400 l 1
400 400 m 1
 400 500 l 1
 500 500 l 1
 500 400 l 1xf080
 400 400 l 1
500 500 m 1
 500 600 l 1
 600 600 l 1
 600 500 l 1xe840
 500 500 l 1
EndSplineSet
EndChar

StartChar: brokenbar
Encoding: 166 166 167
Width: 300
GlyphClass: 1
Flags: MW
HStem: -100 21G<100 200 100 100> 680 20G<100 200 200 200>
VStem: 100 100<-100 300 -100 300 400 700>
LayerCount: 2
Fore
SplineSet
100 700 m 1
 200 700 l 1
 200 400 l 1
 100 400 l 1
 100 700 l 1
100 300 m 1
 200 300 l 1
 200 -100 l 1
 100 -100 l 1
 100 300 l 1
EndSplineSet
EndChar

StartChar: section
Encoding: 167 167 168
Width: 600
GlyphClass: 1
Flags: MW
HStem: -100 100<200 400 200 400> 0 100<200 400 400 500 200 400 200 400> 100 100<200 400 100 200 400 500> 200 200<100 200 100 200 200 400 400 500> 400 100<100 200 100 200 200 400 100 200> 500 100<100 200 100 200 200 400> 600 100<100 400 200 400 200 400 200 400>
VStem: 100 100<200 400 500 600> 200 200<-100 0 -100 0 100 200 200 400 400 500 600 700> 400 100<-100 100 0 100 0 200 0 100 0 100 200 400>
LayerCount: 2
Fore
SplineSet
200 700 m 1x0280
 400 700 l 1
 400 600 l 1x0280
 200 600 l 1x05
 200 700 l 1x0280
200 600 m 1x05
 200 500 l 1x09
 100 500 l 1
 100 600 l 1
 200 600 l 1x05
200 500 m 1
 400 500 l 1x0880
 400 400 l 1x1080
 200 400 l 1x11
 200 500 l 1
400 400 m 1x1080
 500 400 l 1
 500 200 l 1x1040
 400 200 l 1x2080
 400 400 l 1x1080
400 200 m 1x2080
 400 100 l 1x4080
 200 100 l 1x2080
 200 200 l 1x21
 400 200 l 1x2080
400 100 m 1
 500 100 l 1
 500 0 l 1x4040
 400 0 l 1x8080
 400 100 l 1
400 0 m 1x8080
 400 -100 l 1
 200 -100 l 1
 200 0 l 1
 400 0 l 1x8080
200 200 m 1x21
 100 200 l 1
 100 400 l 1
 200 400 l 1x11
 200 200 l 1x21
EndSplineSet
EndChar

StartChar: dieresis
Encoding: 168 168 169
Width: 600
GlyphClass: 1
Flags: MW
HStem: 500 100<100 200 100 200 400 500>
VStem: 100 100<500 600 500 600> 400 100<500 600 500 600>
LayerCount: 2
Fore
SplineSet
100 600 m 1
 200 600 l 1
 200 500 l 1
 100 500 l 1
 100 600 l 1
400 600 m 1
 500 600 l 1
 500 500 l 1
 400 500 l 1
 400 600 l 1
EndSplineSet
EndChar

StartChar: copyright
Encoding: 169 169 170
Width: 1000
GlyphClass: 1
Flags: MW
HStem: -100 100<300 700 200 300> 0 100<200 300 100 200 400 600 700 800> 100 100<200 400 300 400 300 400 400 600> 200 100<400 700 600 700 600 700 600 700> 400 100<400 600> 500 100<100 300 200 300 200 300 200 300 400 600 600 600 700 800> 600 100<200 700 300 700 300 700 300 700 300 800>
VStem: 100 100<100 500> 200 100<0 100 200 400 500 600> 300 100<0 200 200 400> 400 200<100 200 200 300 100 400 100 200 100 200 400 500> 600 100<200 300> 700 100<-100 100 0 100 0 100 200 200 200 300 500 600> 800 100<0 500 100 500 100 600 100 500 100 500>
LayerCount: 2
Fore
SplineSet
300 700 m 1x0240
 700 700 l 1x0248
 700 600 l 1
 300 600 l 1x0488
 300 700 l 1x0240
700 600 m 1x0408
 800 600 l 1
 800 500 l 1
 700 500 l 1
 700 600 l 1x0408
800 500 m 1
 900 500 l 1
 900 100 l 1x2404
 800 100 l 1x4008
 800 500 l 1
800 100 m 1x4008
 800 0 l 1x4008
 700 0 l 1x8008
 700 100 l 1
 800 100 l 1x4008
700 0 m 1x8088
 700 -100 l 1
 300 -100 l 1x8048
 300 0 l 1
 700 0 l 1x8088
300 0 m 1x8080
 200 0 l 1x4080
 200 100 l 1x41
 300 100 l 1x4080
 300 0 l 1x8080
200 100 m 1x45
 100 100 l 1x21
 100 500 l 1
 200 500 l 1
 200 100 l 1x45
200 500 m 1x05
 200 600 l 1
 300 600 l 1
 300 500 l 1x0480
 200 500 l 1x05
400 500 m 1x0820
 600 500 l 1
 600 400 l 1x0820
 400 400 l 1x0840
 400 500 l 1x0820
400 400 m 1x1840
 400 200 l 1x2840
 300 200 l 1
 300 400 l 1
 400 400 l 1x1840
400 200 m 1
 600 200 l 1
 600 100 l 1
 400 100 l 1x2020
 400 200 l 1
600 200 m 1
 600 300 l 1
 700 300 l 1
 700 200 l 1x1010
 600 200 l 1
EndSplineSet
EndChar

StartChar: ordfeminine
Encoding: 170 170 171
Width: 700
GlyphClass: 1
Flags: MW
HStem: 200 100<100 600 100 600> 400 100<300 400 300 500> 400 200<200 300 300 400 400 500 200 300> 600 100<200 400 300 400 300 400 300 400 300 500>
VStem: 200 100<500 600 500 600 500 600> 300 100<500 600 500 600 600 700> 400 100<500 600 400 700 400 600 400 600>
LayerCount: 2
Fore
SplineSet
300 700 m 1x94
 400 700 l 1x94
 400 600 l 1xa4
 300 600 l 1xa8
 300 700 l 1x94
400 600 m 1xa4
 500 600 l 1
 500 400 l 1
 200 400 l 1
 200 600 l 1
 300 600 l 1xaa
 300 500 l 1
 400 500 l 1xca
 400 600 l 1xa4
100 300 m 1
 600 300 l 1
 600 200 l 1
 100 200 l 1
 100 300 l 1
EndSplineSet
EndChar

StartChar: guillemotleft
Encoding: 171 171 172
Width: 600
GlyphClass: 1
Flags: MW
HStem: 100 100<200 300 100 200 400 500> 200 200<100 200 100 200 200 300 300 400 100 300 100 300 400 500> 400 100<100 300 200 300 200 300 200 300 200 400 400 500>
VStem: 100 100<200 400> 200 100<100 200 200 400 100 200 100 200 400 500> 300 100<100 200 100 200 200 400 400 500> 400 100<100 200 100 400 100 200 100 200 400 500>
LayerCount: 2
Fore
SplineSet
200 500 m 1x28
 300 500 l 1x28
 300 400 l 1x48
 200 400 l 1x50
 200 500 l 1x28
300 400 m 1x48
 400 400 l 1x44
 400 200 l 1x84
 300 200 l 1x88
 300 400 l 1x48
400 400 m 1
 400 500 l 1
 500 500 l 1
 500 400 l 1x22
 400 400 l 1
400 200 m 1x84
 500 200 l 1
 500 100 l 1
 400 100 l 1x82
 400 200 l 1x84
300 200 m 1x88
 300 100 l 1
 200 100 l 1x88
 200 200 l 1x90
 300 200 l 1x88
200 200 m 1x90
 100 200 l 1
 100 400 l 1
 200 400 l 1x50
 200 200 l 1x90
EndSplineSet
EndChar

StartChar: logicalnot
Encoding: 172 172 173
Width: 800
GlyphClass: 1
Flags: MW
HStem: 300 100<100 600 100 700>
VStem: 600 100<100 300 300 300>
LayerCount: 2
Fore
SplineSet
100 400 m 1
 700 400 l 1
 700 100 l 1
 600 100 l 1
 600 300 l 1
 100 300 l 1
 100 400 l 1
EndSplineSet
EndChar

StartChar: uni00AD
Encoding: 173 173 174
Width: 400
GlyphClass: 1
Flags: MW
HStem: 300 100<100 300 100 300>
VStem: 100 200<300 400 300 400>
LayerCount: 2
Fore
SplineSet
100 400 m 1
 300 400 l 1
 300 300 l 1
 100 300 l 1
 100 400 l 1
EndSplineSet
EndChar

StartChar: registered
Encoding: 174 174 175
Width: 1000
GlyphClass: 1
Flags: MW
HStem: -100 100<200 800 100 200> 0 21G<100 200 100 100 200 800 800 900 800 800 800 800> 100 100<600 700 500 600> 200 100<500 600 500 600 600 700> 300 100<500 600 600 700> 400 100<300 600 400 600 400 600 400 600 400 700> 580 20G<100 200 200 200 200 800 200 200 800 900 900 900> 580 20G<100 200 200 200 200 800 200 200 800 900 900 900> 600 100<100 800 200 800 200 800 200 800 200 900>
VStem: 100 100<0 600> 300 100<100 400 100 400> 500 100<200 300> 600 100<100 200 100 300 100 200 100 200 300 400> 800 100<-100 600 0 600 0 700 0 600 0 600>
LayerCount: 2
Fore
SplineSet
200 700 m 1x00e4
 800 700 l 1x00e4
 800 600 l 1
 200 600 l 1x0264
 200 700 l 1x00e4
800 600 m 1x8264
 900 600 l 1
 900 0 l 1x4264
 800 0 l 1
 800 600 l 1x8264
800 0 m 1x8064
 800 -100 l 1
 200 -100 l 1
 200 0 l 1
 800 0 l 1x8064
200 0 m 1
 100 0 l 1
 100 600 l 1
 200 600 l 1x4264
 200 0 l 1
400 500 m 1x046c
 600 500 l 1x046c
 600 400 l 1x086c
 400 400 l 1
 400 500 l 1x046c
600 400 m 1x086c
 700 400 l 1
 700 300 l 1x086c
 600 300 l 1x1074
 600 400 l 1x086c
600 300 m 1x1074
 600 200 l 1x2074
 500 200 l 1
 500 300 l 1
 600 300 l 1x1074
600 200 m 1
 700 200 l 1
 700 100 l 1
 600 100 l 1x206c
 600 200 l 1
400 400 m 1x2464
 400 100 l 1
 300 100 l 1
 300 400 l 1
 400 400 l 1x2464
EndSplineSet
EndChar

StartChar: macron
Encoding: 175 175 176
Width: 800
GlyphClass: 1
Flags: MW
HStem: 600 100<100 700 100 700>
LayerCount: 2
Fore
SplineSet
100 700 m 1
 700 700 l 1
 700 600 l 1
 100 600 l 1
 100 700 l 1
EndSplineSet
EndChar

StartChar: degree
Encoding: 176 176 177
Width: 500
GlyphClass: 1
Flags: MW
HStem: 200 100<200 300 100 200> 300 200<100 200 100 200 200 300 300 400 100 300 100 300> 500 100<100 300 200 300 200 300 200 300 200 400>
VStem: 100 100<300 500> 200 100<200 300 300 500 200 300 200 300 500 600> 300 100<200 500 300 500 300 600 300 500 300 500>
LayerCount: 2
Fore
SplineSet
200 600 m 1x28
 300 600 l 1x28
 300 500 l 1x48
 200 500 l 1x50
 200 600 l 1x28
300 500 m 1x48
 400 500 l 1
 400 300 l 1x44
 300 300 l 1x88
 300 500 l 1x48
300 300 m 1x88
 300 200 l 1
 200 200 l 1x88
 200 300 l 1x90
 300 300 l 1x88
200 300 m 1x90
 100 300 l 1
 100 500 l 1
 200 500 l 1x50
 200 300 l 1x90
EndSplineSet
EndChar

StartChar: plusminus
Encoding: 177 177 178
Width: 700
GlyphClass: 1
Flags: MW
HStem: 0 100<100 300 400 600 100 300> 300 100<100 300 100 300 400 600> 580 20G<300 400 400 400> 580 20G<300 400 400 400>
VStem: 300 100<100 300 100 300 400 600>
LayerCount: 2
Fore
SplineSet
300 600 m 1xe8
 400 600 l 1
 400 400 l 1
 600 400 l 1
 600 300 l 1
 400 300 l 1
 400 100 l 1
 600 100 l 1
 600 0 l 1
 100 0 l 1
 100 100 l 1
 300 100 l 1
 300 300 l 1
 100 300 l 1
 100 400 l 1
 300 400 l 1
 300 600 l 1xe8
EndSplineSet
EndChar

StartChar: uni00B2
Encoding: 178 178 179
Width: 500
GlyphClass: 1
Flags: MW
HStem: 200 100<200 400 200 400> 400 100<100 300 200 300 200 300 200 300> 500 100<200 300 300 400 100 300 100 300> 600 100<100 300 100 300 100 400>
VStem: 100 100<300 400 300 400 300 400> 200 100<300 500 400 500 400 500> 300 100<500 600>
LayerCount: 2
Fore
SplineSet
100 700 m 1x9a
 300 700 l 1x9a
 300 600 l 1xaa
 100 600 l 1
 100 700 l 1x9a
300 600 m 1xa2
 400 600 l 1
 400 500 l 1xa2
 300 500 l 1xc4
 300 600 l 1xa2
300 500 m 1xc4
 300 400 l 1xc4
 200 400 l 1xc8
 200 500 l 1
 300 500 l 1xc4
200 400 m 1xca
 200 300 l 1
 400 300 l 1
 400 200 l 1
 100 200 l 1
 100 400 l 1
 200 400 l 1xca
EndSplineSet
EndChar

StartChar: uni00B3
Encoding: 179 179 180
Width: 500
GlyphClass: 1
Flags: MW
HStem: 200 100<100 300 100 300> 300 100<200 300 200 300 300 400 200 300 200 300> 400 100<200 300 200 300 300 400> 500 100<200 300 300 400 100 300 100 300> 600 100<100 300 100 300 100 400>
VStem: 100 200<200 300 200 300 600 700> 200 100<400 500> 300 100<200 400 300 400 300 500 300 400 300 400 500 600>
LayerCount: 2
Fore
SplineSet
100 700 m 1x0c
 300 700 l 1x0c
 300 600 l 1x14
 100 600 l 1
 100 700 l 1x0c
300 600 m 1x14
 400 600 l 1
 400 500 l 1x11
 300 500 l 1x22
 300 600 l 1x14
300 500 m 1x22
 300 400 l 1x42
 200 400 l 1
 200 500 l 1
 300 500 l 1x22
300 400 m 1
 400 400 l 1
 400 300 l 1x41
 300 300 l 1x84
 300 400 l 1
300 300 m 1x84
 300 200 l 1
 100 200 l 1
 100 300 l 1
 300 300 l 1x84
EndSplineSet
EndChar

StartChar: acute
Encoding: 180 180 181
Width: 400
GlyphClass: 1
Flags: MW
HStem: 500 100<100 200 100 200> 600 100<100 300 200 300 200 300 200 300>
VStem: 100 100<500 600 500 600> 200 100<500 700 600 700 600 700>
LayerCount: 2
Fore
SplineSet
200 700 m 1x50
 300 700 l 1
 300 600 l 1x50
 200 600 l 1xa0
 200 700 l 1x50
200 600 m 1xa0
 200 500 l 1
 100 500 l 1
 100 600 l 1
 200 600 l 1xa0
EndSplineSet
EndChar

StartChar: mu
Encoding: 181 181 182
Width: 800
GlyphClass: 1
Flags: MW
HStem: -100 21G<100 200 100 100> 0 100<600 700> 100 100<200 400 200 400> 580 20G<100 200 200 200 500 600 600 600> 580 20G<100 200 200 200 500 600 600 600>
VStem: 100 100<-100 100 200 600> 500 100<100 200 200 200 300 600> 600 100<0 100 0 600 0 100 0 100>
LayerCount: 2
Fore
SplineSet
100 600 m 1xb4
 200 600 l 1
 200 200 l 1
 400 200 l 1
 400 100 l 1
 200 100 l 1
 200 -100 l 1
 100 -100 l 1
 100 600 l 1xb4
400 200 m 1
 400 300 l 1
 500 300 l 1
 500 600 l 1
 600 600 l 1
 600 100 l 1xd6
 500 100 l 1
 500 200 l 1xa6
 400 200 l 1
600 100 m 1
 700 100 l 1
 700 0 l 1
 600 0 l 1xc5
 600 100 l 1
EndSplineSet
EndChar

StartChar: paragraph
Encoding: 182 182 183
Width: 700
GlyphClass: 1
Flags: MW
HStem: -100 21G<300 400 300 300 500 600 500 500> 600 100<100 600 200 600 400 500 400 400>
VStem: 300 100<-100 300 300 300> 500 100<-100 600 600 600>
LayerCount: 2
Fore
SplineSet
200 700 m 1
 600 700 l 1
 600 -100 l 1
 500 -100 l 1
 500 600 l 1
 400 600 l 1
 400 -100 l 1
 300 -100 l 1
 300 300 l 1
 200 300 l 1
 200 400 l 1
 100 400 l 1
 100 600 l 1
 200 600 l 1
 200 700 l 1
EndSplineSet
EndChar

StartChar: periodcentered
Encoding: 183 183 184
Width: 400
GlyphClass: 1
Flags: MW
HStem: 200 200<100 300 100 300>
VStem: 100 200<200 400 200 400>
LayerCount: 2
Fore
SplineSet
100 400 m 1
 300 400 l 1
 300 200 l 1
 100 200 l 1
 100 400 l 1
EndSplineSet
EndChar

StartChar: cedilla
Encoding: 184 184 185
Width: 400
GlyphClass: 1
Flags: MW
HStem: -100 100<200 300 100 200> 0 100<100 200 100 200 100 300>
VStem: 100 100<0 100> 200 100<-100 0 -100 100 -100 0 -100 0>
LayerCount: 2
Fore
SplineSet
100 100 m 1x60
 200 100 l 1x60
 200 0 l 1xa0
 100 0 l 1
 100 100 l 1x60
200 0 m 1xa0
 300 0 l 1
 300 -100 l 1
 200 -100 l 1x90
 200 0 l 1xa0
EndSplineSet
EndChar

StartChar: uni00B9
Encoding: 185 185 186
Width: 500
GlyphClass: 1
Flags: MW
HStem: 200 100<100 200 300 400 100 200> 500 100<100 200 100 200> 680 20G<200 300 300 300>
VStem: 200 100<300 500 500 500 600 700 300 700>
LayerCount: 2
Fore
SplineSet
200 700 m 1
 300 700 l 1
 300 300 l 1
 400 300 l 1
 400 200 l 1
 100 200 l 1
 100 300 l 1
 200 300 l 1
 200 500 l 1
 100 500 l 1
 100 600 l 1
 200 600 l 1
 200 700 l 1
EndSplineSet
EndChar

StartChar: ordmasculine
Encoding: 186 186 187
Width: 700
GlyphClass: 1
Flags: MW
HStem: 200 100<100 600 100 600> 400 100<300 400 300 500> 600 100<300 300 300 400>
VStem: 200 100<500 600 500 700> 400 100<500 600 600 600>
CounterMasks: 1 e0
LayerCount: 2
Fore
SplineSet
200 700 m 1
 500 700 l 1
 500 400 l 1
 200 400 l 1
 200 700 l 1
300 600 m 1
 300 500 l 1
 400 500 l 1
 400 600 l 1
 300 600 l 1
100 300 m 1
 600 300 l 1
 600 200 l 1
 100 200 l 1
 100 300 l 1
EndSplineSet
EndChar

StartChar: guillemotright
Encoding: 187 187 188
Width: 600
GlyphClass: 1
Flags: MW
HStem: 100 100<100 200 100 200 300 400> 200 200<100 200 200 300 100 200 100 200 300 400 400 500> 400 100<100 200 100 200 100 300 300 400>
VStem: 100 100<100 200 100 200 400 500> 200 100<100 200 100 200 200 400 400 500> 300 100<100 200 100 200 200 400 100 200 400 500> 400 100<100 400 200 400 200 500 200 400 200 400>
LayerCount: 2
Fore
SplineSet
100 500 m 1x30
 200 500 l 1x30
 200 400 l 1x50
 100 400 l 1
 100 500 l 1x30
200 400 m 1x50
 300 400 l 1x48
 300 200 l 1x88
 200 200 l 1x90
 200 400 l 1x50
300 400 m 1
 300 500 l 1
 400 500 l 1x24
 400 400 l 1x44
 300 400 l 1
400 400 m 1x44
 500 400 l 1
 500 200 l 1x42
 400 200 l 1x84
 400 400 l 1x44
400 200 m 1x84
 400 100 l 1
 300 100 l 1x84
 300 200 l 1x88
 400 200 l 1x84
200 200 m 1x90
 200 100 l 1
 100 100 l 1
 100 200 l 1
 200 200 l 1x90
EndSplineSet
EndChar

StartChar: onequarter
Encoding: 188 188 189
Width: 1000
GlyphClass: 1
Flags: MW
HStem: -100 21G<200 300 200 200 700 700 700 800> 0 100<600 700 800 900> 200 100<600 700> 300 100<100 200 100 300 100 200> 600 100<100 200 100 300>
VStem: 200 100<-100 100 -100 100 400 600 600 600> 400 100<100 200 0 300 100 100 400 500> 500 100<100 200 100 200 100 200 500 700> 700 100<-100 0 -100 0 100 200 200 200 300 400>
LayerCount: 2
Fore
SplineSet
100 700 m 1xde80
 300 700 l 1
 300 400 l 1
 400 400 l 1
 400 500 l 1
 500 500 l 1xde80
 500 300 l 1xdd80
 400 300 l 1
 400 100 l 1
 300 100 l 1
 300 300 l 1
 100 300 l 1
 100 400 l 1
 200 400 l 1
 200 600 l 1
 100 600 l 1
 100 700 l 1xde80
500 500 m 1
 500 700 l 1
 600 700 l 1
 600 500 l 1xcd80
 500 500 l 1
300 100 m 1
 300 -100 l 1
 200 -100 l 1
 200 100 l 1
 300 100 l 1
700 400 m 1xdd80
 800 400 l 1xdd80
 800 100 l 1
 900 100 l 1
 900 0 l 1
 800 0 l 1
 800 -100 l 1
 700 -100 l 1
 700 0 l 1
 500 0 l 1
 500 200 l 1
 600 200 l 1
 600 100 l 1
 700 100 l 1
 700 200 l 1
 600 200 l 1
 600 300 l 1
 700 300 l 1xed80
 700 400 l 1xdd80
EndSplineSet
EndChar

StartChar: onehalf
Encoding: 189 189 190
Width: 900
GlyphClass: 1
Flags: MW
HStem: -100 100<600 800 600 800> -100 200<200 300 200 300 500 600 600 700> 100 100<500 700 600 700 600 700 600 700> 200 100<600 700 700 800> 300 100<100 200 100 300 100 200 600 700> 600 100<100 200 100 300>
VStem: 200 100<-100 100 -100 100 400 600 600 600> 400 100<-100 300 -100 100 400 500> 500 100<0 100 0 100 0 100 300 400 500 700> 600 100<0 200 100 200 100 200 300 400> 700 100<200 300>
LayerCount: 2
Fore
SplineSet
100 700 m 1x4f
 300 700 l 1
 300 400 l 1
 400 400 l 1
 400 500 l 1
 500 500 l 1x4f
 500 300 l 1x4e80
 400 300 l 1
 400 100 l 1x2f
 300 100 l 1
 300 300 l 1
 100 300 l 1
 100 400 l 1
 200 400 l 1
 200 600 l 1
 100 600 l 1
 100 700 l 1x4f
500 500 m 1
 500 700 l 1
 600 700 l 1
 600 500 l 1x0680
 500 500 l 1
300 100 m 1x46
 300 -100 l 1
 200 -100 l 1
 200 100 l 1
 300 100 l 1x46
600 400 m 1x0e40
 700 400 l 1x0e40
 700 300 l 1x1640
 600 300 l 1
 600 400 l 1x0e40
700 300 m 1x1640
 800 300 l 1
 800 200 l 1x1620
 700 200 l 1x2640
 700 300 l 1x1640
700 200 m 1x2640
 700 100 l 1x2640
 600 100 l 1x4680
 600 200 l 1
 700 200 l 1x2640
600 100 m 1x46a0
 600 0 l 1
 800 0 l 1
 800 -100 l 1x86a0
 500 -100 l 1
 500 100 l 1
 600 100 l 1x46a0
EndSplineSet
EndChar

StartChar: threequarters
Encoding: 190 190 191
Width: 1000
GlyphClass: 1
Flags: MW
HStem: -100 21G<200 300 200 200 700 800 700 700> 0 100<600 700 800 900> 100 100<200 300 300 400 100 300 100 300 600 700> 200 100<100 300 100 300 300 400 400 500 500 600 600 700> 300 100<200 300 200 300 200 300 300 400 200 300> 400 100<200 300 200 300 300 400> 500 100<200 300 300 400 100 300 100 300> 600 100<100 300 100 300 100 400>
VStem: 100 200<200 300 600 700> 200 100<-100 100 -100 100 400 500> 300 100<-100 200 100 200 200 300 100 200 100 200 300 400 500 600> 400 100<100 200 100 100 200 300 300 400 500 600 500 500> 500 100<100 200 100 200 100 200 200 300 100 200 300 700> 700 100<-100 0 -100 0 100 200 200 200 300 400>
LayerCount: 2
Fore
SplineSet
100 700 m 1x8184
 300 700 l 1x8184
 300 600 l 1x8284
 100 600 l 1
 100 700 l 1x8184
300 600 m 1x8284
 400 600 l 1
 400 500 l 1x8224
 300 500 l 1x8444
 300 600 l 1x8284
300 500 m 1x8444
 300 400 l 1x8844
 200 400 l 1
 200 500 l 1
 300 500 l 1x8444
300 400 m 1
 400 400 l 1x8824
 400 300 l 1x9024
 300 300 l 1x9084
 300 400 l 1
400 300 m 1x9024
 500 300 l 1
 500 200 l 1x9014
 400 200 l 1xa024
 400 300 l 1x9024
500 300 m 1
 500 700 l 1
 600 700 l 1
 600 300 l 1x910c
 500 300 l 1
600 300 m 1
 700 300 l 1
 700 400 l 1
 800 400 l 1
 800 100 l 1
 900 100 l 1
 900 0 l 1
 800 0 l 1
 800 -100 l 1
 700 -100 l 1
 700 0 l 1
 500 0 l 1xd40c
 500 200 l 1xd414
 600 200 l 1
 600 100 l 1
 700 100 l 1xd40c
 700 200 l 1
 600 200 l 1
 600 300 l 1
400 200 m 1xa024
 400 100 l 1xa024
 300 100 l 1xa044
 300 200 l 1xa084
 400 200 l 1xa024
300 100 m 1xa044
 300 -100 l 1
 200 -100 l 1
 200 100 l 1
 300 100 l 1xa044
300 200 m 1xa084
 100 200 l 1
 100 300 l 1
 300 300 l 1x9084
 300 200 l 1xa084
EndSplineSet
EndChar

StartChar: questiondown
Encoding: 191 191 192
Width: 700
GlyphClass: 1
Flags: MW
HStem: -100 100<200 500 100 200> 0 100<200 600 500 600 500 600 500 600> 200 100<100 400 200 400 200 400 200 400> 300 100<200 500 400 500 400 500 400 500> 500 100<300 400 300 400>
VStem: 100 100<0 200> 300 100<500 600> 400 100<300 400> 500 100<-100 100 0 100 0 100>
LayerCount: 2
Fore
SplineSet
300 600 m 1x0e
 400 600 l 1
 400 500 l 1
 300 500 l 1
 300 600 l 1x0e
400 400 m 1x1d
 500 400 l 1
 500 300 l 1x1d
 400 300 l 1x2d
 400 400 l 1x1d
400 300 m 1x2d
 400 200 l 1
 200 200 l 1
 200 300 l 1
 400 300 l 1x2d
200 200 m 1
 200 0 l 1xac
 100 0 l 1x4c
 100 200 l 1
 200 200 l 1
200 0 m 1
 500 0 l 1
 500 -100 l 1x8c80
 200 -100 l 1
 200 0 l 1
500 0 m 1
 500 100 l 1
 600 100 l 1
 600 0 l 1x4c80
 500 0 l 1
EndSplineSet
EndChar

StartChar: Agrave
Encoding: 192 192 193
Width: 800
GlyphClass: 1
Flags: MW
HStem: 0 21G<200 300 200 200 600 700 600 600> 100 100<300 600 300 600> 400 100<200 300 200 300 300 600 200 300> 500 100<200 300 100 200> 600 100<100 200 100 200 100 300>
VStem: 100 100<600 700> 200 100<0 100 200 400 500 600> 600 100<0 100 100 100 200 400 0 500 0 400 0 400>
LayerCount: 2
Fore
SplineSet
100 700 m 1xcd
 200 700 l 1xcd
 200 600 l 1xd5
 100 600 l 1
 100 700 l 1xcd
200 600 m 1xd5
 300 600 l 1xd3
 300 500 l 1xe3
 200 500 l 1xd3
 200 600 l 1xd5
300 500 m 1xe3
 600 500 l 1
 600 400 l 1
 300 400 l 1
 300 500 l 1xe3
600 400 m 1
 700 400 l 1
 700 0 l 1
 600 0 l 1
 600 100 l 1
 300 100 l 1
 300 0 l 1
 200 0 l 1
 200 400 l 1
 300 400 l 1
 300 200 l 1
 600 200 l 1
 600 400 l 1
EndSplineSet
EndChar

StartChar: Aacute
Encoding: 193 193 194
Width: 800
GlyphClass: 1
Flags: MW
HStem: 0 21G<100 200 100 100 500 600 500 500> 100 100<200 500 200 500> 400 100<100 500 200 500 200 500 200 500 500 600> 500 100<200 600 500 600 500 600 500 600> 600 100<500 700 600 700 600 700 600 700>
VStem: 100 100<0 100 200 400> 500 100<0 100 100 100 200 400 0 500 0 400 0 400 500 600> 600 100<500 700 600 700 600 700>
LayerCount: 2
Fore
SplineSet
600 700 m 1xcd
 700 700 l 1
 700 600 l 1xcd
 600 600 l 1xd6
 600 700 l 1xcd
600 600 m 1xd6
 600 500 l 1xd6
 500 500 l 1xe6
 500 600 l 1
 600 600 l 1xd6
500 500 m 1xe6
 500 400 l 1
 200 400 l 1
 200 500 l 1
 500 500 l 1xe6
500 400 m 1
 600 400 l 1
 600 0 l 1
 500 0 l 1
 500 100 l 1
 200 100 l 1
 200 0 l 1
 100 0 l 1
 100 400 l 1
 200 400 l 1
 200 200 l 1
 500 200 l 1
 500 400 l 1
EndSplineSet
EndChar

StartChar: Acircumflex
Encoding: 194 194 195
Width: 900
GlyphClass: 1
Flags: MW
HStem: 0 21G<200 300 200 200 600 700 600 600> 100 100<300 600 300 600> 400 100<100 300 300 600> 500 100<100 200 100 200 300 600 600 600 700 800> 600 100<100 700 200 700 200 700 200 700 200 800>
VStem: 100 100<500 600> 200 100<0 100 200 400> 600 100<0 100 100 100 200 400 0 500 0 400 0 400> 700 100<500 600 500 700 500 600 500 600>
LayerCount: 2
Fore
SplineSet
200 700 m 1xca
 700 700 l 1xca80
 700 600 l 1
 200 600 l 1xd480
 200 700 l 1xca
700 600 m 1xd080
 800 600 l 1
 800 500 l 1
 700 500 l 1
 700 600 l 1xd080
200 600 m 1xd4
 200 500 l 1
 100 500 l 1
 100 600 l 1
 200 600 l 1xd4
300 500 m 1xe3
 600 500 l 1
 600 400 l 1
 300 400 l 1
 300 500 l 1xe3
600 400 m 1
 700 400 l 1
 700 0 l 1
 600 0 l 1
 600 100 l 1
 300 100 l 1
 300 0 l 1
 200 0 l 1
 200 400 l 1
 300 400 l 1
 300 200 l 1
 600 200 l 1
 600 400 l 1
EndSplineSet
EndChar

StartChar: Atilde
Encoding: 195 195 196
Width: 1000
GlyphClass: 1
Flags: MW
HStem: 0 21G<200 300 200 200 600 700 600 600> 100 100<300 600 300 600> 400 100<100 300 300 600 600 700 700 700> 500 100<100 200 100 200 300 600 600 800> 600 100<100 600 200 600 200 600 200 600 200 800 800 900>
VStem: 100 100<500 600> 200 100<0 100 200 400> 600 100<0 100 100 100 200 400 0 500 0 400 0 400> 800 100<500 700 600 700 600 700>
LayerCount: 2
Fore
SplineSet
200 700 m 1xcb80
 600 700 l 1xcb80
 600 600 l 1
 200 600 l 1xd580
 200 700 l 1xcb80
600 600 m 1xd180
 800 600 l 1
 800 500 l 1xd180
 600 500 l 1xe180
 600 600 l 1xd180
800 600 m 1
 800 700 l 1
 900 700 l 1
 900 600 l 1xc980
 800 600 l 1
600 500 m 1xe380
 600 400 l 1
 300 400 l 1
 300 500 l 1
 600 500 l 1xe380
600 400 m 1
 700 400 l 1
 700 0 l 1
 600 0 l 1
 600 100 l 1
 300 100 l 1
 300 0 l 1
 200 0 l 1
 200 400 l 1
 300 400 l 1
 300 200 l 1
 600 200 l 1
 600 400 l 1
200 600 m 1xd580
 200 500 l 1
 100 500 l 1
 100 600 l 1
 200 600 l 1xd580
EndSplineSet
EndChar

StartChar: Adieresis
Encoding: 196 196 197
Width: 700
GlyphClass: 1
Flags: MW
HStem: 0 21G<100 200 100 100 500 600 500 500> 100 100<200 500 200 500> 400 100<100 500 200 500 200 500 200 500 200 600> 600 100<200 300 200 300 400 500>
VStem: 100 100<0 100 200 400> 200 100<600 700 600 700> 400 100<600 700> 500 100<0 100 100 100 200 400 0 500 0 400 0 400>
LayerCount: 2
Fore
SplineSet
200 700 m 1xf4
 300 700 l 1
 300 600 l 1
 200 600 l 1
 200 700 l 1xf4
400 700 m 1xf2
 500 700 l 1
 500 600 l 1
 400 600 l 1
 400 700 l 1xf2
200 500 m 1xf4
 500 500 l 1
 500 400 l 1
 200 400 l 1xf9
 200 500 l 1xf4
500 400 m 1
 600 400 l 1
 600 0 l 1
 500 0 l 1
 500 100 l 1
 200 100 l 1
 200 0 l 1
 100 0 l 1
 100 400 l 1
 200 400 l 1
 200 200 l 1
 500 200 l 1
 500 400 l 1
EndSplineSet
EndChar

StartChar: Aring
Encoding: 197 197 198
Width: 700
GlyphClass: 1
Flags: MW
HStem: 0 21G<100 200 100 100 500 600 500 500> 100 100<200 500 200 500> 400 100<300 400 300 500> 600 100<300 300 300 400>
VStem: 100 100<0 100 200 400> 200 100<500 600 500 700> 400 100<500 600 600 600> 500 100<0 100 100 100 200 400 0 700 0 400 0 400>
LayerCount: 2
Fore
SplineSet
200 700 m 1xf4
 500 700 l 1
 500 400 l 1
 200 400 l 1xf9
 200 700 l 1xf4
500 400 m 1
 600 400 l 1
 600 0 l 1
 500 0 l 1
 500 100 l 1
 200 100 l 1
 200 0 l 1
 100 0 l 1
 100 400 l 1
 200 400 l 1
 200 200 l 1
 500 200 l 1
 500 400 l 1
300 600 m 1xf6
 300 500 l 1
 400 500 l 1
 400 600 l 1
 300 600 l 1xf6
EndSplineSet
EndChar

StartChar: AE
Encoding: 198 198 199
Width: 900
GlyphClass: 1
Flags: MW
HStem: 0 100<600 800 600 800> 300 100<300 500 300 500 600 800> 500 100<200 400 300 400 300 400 300 400> 600 100<300 800 400 800 400 500 400 800 600 800 600 600>
VStem: 100 100<0 300 0 300> 200 100<400 500 400 500 400 500> 300 100<400 600 500 600 500 600> 500 100<100 300 100 300 100 300 400 600>
LayerCount: 2
Fore
SplineSet
400 700 m 1xd3
 800 700 l 1
 800 600 l 1
 600 600 l 1
 600 400 l 1
 800 400 l 1
 800 300 l 1
 600 300 l 1
 600 100 l 1
 800 100 l 1
 800 0 l 1
 500 0 l 1
 500 300 l 1
 200 300 l 1xdb
 200 500 l 1
 300 500 l 1xe5
 300 400 l 1
 500 400 l 1
 500 600 l 1xd5
 400 600 l 1xe3
 400 700 l 1xd3
200 300 m 1
 200 0 l 1
 100 0 l 1
 100 300 l 1
 200 300 l 1
300 500 m 1xe5
 300 600 l 1
 400 600 l 1
 400 500 l 1xe3
 300 500 l 1xe5
EndSplineSet
EndChar

StartChar: Ccedilla
Encoding: 199 199 200
Width: 700
GlyphClass: 1
Flags: MW
HStem: -100 100<500 600 200 500> 0 100<200 500 100 200 500 600> 100 100<200 600 500 600 500 600 500 600> 500 100<500 600> 600 100<100 500 200 500 200 500 200 500 200 600>
VStem: 100 100<100 600> 500 100<-100 0 -100 100 -100 0 -100 0 100 200 500 600>
LayerCount: 2
Fore
SplineSet
200 700 m 1x0e
 500 700 l 1x0e
 500 600 l 1x16
 200 600 l 1
 200 700 l 1x0e
500 600 m 1x16
 600 600 l 1
 600 500 l 1
 500 500 l 1
 500 600 l 1x16
200 600 m 1x2e
 200 100 l 1x4e
 100 100 l 1
 100 600 l 1
 200 600 l 1x2e
200 100 m 1
 500 100 l 1x46
 500 0 l 1x86
 200 0 l 1
 200 100 l 1
500 100 m 1
 500 200 l 1
 600 200 l 1
 600 100 l 1x26
 500 100 l 1
500 0 m 1x86
 600 0 l 1
 600 -100 l 1
 500 -100 l 1
 500 0 l 1x86
EndSplineSet
EndChar

StartChar: Egrave
Encoding: 200 200 201
Width: 800
GlyphClass: 1
Flags: MW
HStem: 0 100<300 700 300 700> 200 100<300 600 300 600> 400 100<300 700 300 700> 580 20G<100 200 100 100 200 300 300 300> 580 20G<100 200 100 100 200 300 300 300> 600 100<100 200 100 200 100 300>
VStem: 100 100<600 700> 200 100<100 200 300 400 500 600>
LayerCount: 2
Fore
SplineSet
100 700 m 1xe6
 200 700 l 1xe6
 200 600 l 1xf2
 100 600 l 1
 100 700 l 1xe6
200 600 m 1xf2
 300 600 l 1
 300 500 l 1
 700 500 l 1
 700 400 l 1
 300 400 l 1
 300 300 l 1
 600 300 l 1
 600 200 l 1
 300 200 l 1
 300 100 l 1
 700 100 l 1
 700 0 l 1
 200 0 l 1xf1
 200 600 l 1xf2
EndSplineSet
EndChar

StartChar: Eacute
Encoding: 201 201 202
Width: 900
GlyphClass: 1
Flags: MW
HStem: 0 100<200 600 200 600> 200 100<200 500 200 500> 400 100<200 600 200 200> 500 100<100 700 600 700 600 700 600 700> 600 100<600 800 700 800 700 800 700 800>
VStem: 100 100<100 200 300 400> 600 100<400 600 500 600 500 600> 700 100<500 700 600 700 600 700>
LayerCount: 2
Fore
SplineSet
700 700 m 1xcd
 800 700 l 1
 800 600 l 1xcd
 700 600 l 1xd6
 700 700 l 1xcd
700 600 m 1xd6
 700 500 l 1xd6
 600 500 l 1xe6
 600 600 l 1
 700 600 l 1xd6
600 500 m 1xe6
 600 400 l 1
 200 400 l 1xe6
 200 300 l 1
 500 300 l 1
 500 200 l 1
 200 200 l 1
 200 100 l 1
 600 100 l 1
 600 0 l 1
 100 0 l 1
 100 500 l 1xd6
 600 500 l 1xe6
EndSplineSet
EndChar

StartChar: Ecircumflex
Encoding: 202 202 203
Width: 900
GlyphClass: 1
Flags: MW
HStem: 0 100<400 600 400 600> 200 100<400 600 400 600> 400 100<400 600 400 400> 500 100<100 200 100 200 300 600 600 600 700 800> 600 100<100 700 200 700 200 700 200 700 200 800>
VStem: 100 100<500 600 500 600> 300 100<100 200 300 400> 300 300<0 100 200 300 400 500> 700 100<500 600 500 700 500 600 500 600>
LayerCount: 2
Fore
SplineSet
200 700 m 1xcc80
 700 700 l 1xcc80
 700 600 l 1
 200 600 l 1xd480
 200 700 l 1xcc80
700 600 m 1xd480
 800 600 l 1
 800 500 l 1
 700 500 l 1
 700 600 l 1xd480
200 600 m 1
 200 500 l 1
 100 500 l 1
 100 600 l 1
 200 600 l 1
300 500 m 1xd580
 600 500 l 1
 600 400 l 1xe580
 400 400 l 1
 400 300 l 1xe680
 600 300 l 1
 600 200 l 1xe580
 400 200 l 1
 400 100 l 1xe680
 600 100 l 1
 600 0 l 1
 300 0 l 1
 300 500 l 1xd580
EndSplineSet
EndChar

StartChar: Edieresis
Encoding: 203 203 204
Width: 700
GlyphClass: 1
Flags: MW
HStem: 0 100<200 600 200 600> 200 100<200 500 200 500> 400 100<200 600 200 200> 600 100<200 300 200 300 400 500>
VStem: 100 100<100 200 300 400> 200 100<600 700 600 700> 400 100<600 700>
LayerCount: 2
Fore
SplineSet
200 700 m 1xf6
 300 700 l 1
 300 600 l 1
 200 600 l 1
 200 700 l 1xf6
400 700 m 1
 500 700 l 1
 500 600 l 1
 400 600 l 1
 400 700 l 1
100 500 m 1xfa
 600 500 l 1
 600 400 l 1
 200 400 l 1
 200 300 l 1
 500 300 l 1
 500 200 l 1
 200 200 l 1
 200 100 l 1
 600 100 l 1
 600 0 l 1
 100 0 l 1
 100 500 l 1xfa
EndSplineSet
EndChar

StartChar: Igrave
Encoding: 204 204 205
Width: 500
GlyphClass: 1
Flags: MW
HStem: 0 100<100 200 300 400 100 200> 500 100<200 300 100 200> 600 100<100 200 100 200 100 300>
VStem: 100 100<0 400 100 400 600 700> 200 100<100 400 100 400 500 600>
LayerCount: 2
Fore
SplineSet
100 700 m 1xb0
 200 700 l 1xb0
 200 600 l 1xd0
 100 600 l 1
 100 700 l 1xb0
200 600 m 1xd0
 300 600 l 1
 300 500 l 1
 200 500 l 1xc8
 200 600 l 1xd0
200 400 m 1
 300 400 l 1
 300 100 l 1x88
 400 100 l 1
 400 0 l 1
 100 0 l 1
 100 100 l 1x90
 200 100 l 1
 200 400 l 1
EndSplineSet
EndChar

StartChar: Iacute
Encoding: 205 205 206
Width: 500
GlyphClass: 1
Flags: MW
HStem: 0 100<100 200 300 400 100 200> 500 100<200 300 200 300> 600 100<200 400 300 400 300 400 300 400>
VStem: 200 100<100 400 100 400 500 600> 300 100<0 400 0 100 600 700>
LayerCount: 2
Fore
SplineSet
300 700 m 1xa8
 400 700 l 1
 400 600 l 1xa8
 300 600 l 1xd0
 300 700 l 1xa8
300 600 m 1xd0
 300 500 l 1
 200 500 l 1
 200 600 l 1
 300 600 l 1xd0
200 400 m 1
 300 400 l 1
 300 100 l 1x90
 400 100 l 1
 400 0 l 1x88
 100 0 l 1
 100 100 l 1
 200 100 l 1
 200 400 l 1
EndSplineSet
EndChar

StartChar: Icircumflex
Encoding: 206 206 207
Width: 700
GlyphClass: 1
Flags: MW
HStem: 0 100<200 300 400 500 200 300> 500 100<100 200 100 200 300 400 400 400 500 600> 600 100<100 500 200 500 200 500 200 500 200 600>
VStem: 100 100<500 600> 300 100<100 500 100 500> 500 100<500 600 500 700 500 600 500 600>
CounterMasks: 1 1c
LayerCount: 2
Fore
SplineSet
200 700 m 1xbc
 500 700 l 1xbc
 500 600 l 1
 200 600 l 1xdc
 200 700 l 1xbc
500 600 m 1xdc
 600 600 l 1
 600 500 l 1
 500 500 l 1
 500 600 l 1xdc
200 600 m 1
 200 500 l 1
 100 500 l 1
 100 600 l 1
 200 600 l 1
300 500 m 1
 400 500 l 1
 400 100 l 1
 500 100 l 1
 500 0 l 1
 200 0 l 1
 200 100 l 1
 300 100 l 1
 300 500 l 1
EndSplineSet
EndChar

StartChar: Idieresis
Encoding: 207 207 208
Width: 500
GlyphClass: 1
Flags: MW
HStem: 0 100<100 200 300 400 100 200> 600 100<100 200 100 200 300 400>
VStem: 100 100<0 400 100 400 600 700> 200 100<100 400 100 400 600 700> 300 100<0 400 0 100 600 700>
LayerCount: 2
Fore
SplineSet
100 700 m 1xe0
 200 700 l 1
 200 600 l 1
 100 600 l 1
 100 700 l 1xe0
300 700 m 1xc8
 400 700 l 1
 400 600 l 1
 300 600 l 1
 300 700 l 1xc8
200 400 m 1xd0
 300 400 l 1
 300 100 l 1xd0
 400 100 l 1
 400 0 l 1
 100 0 l 1
 100 100 l 1xe8
 200 100 l 1
 200 400 l 1xd0
EndSplineSet
EndChar

StartChar: Eth
Encoding: 208 208 209
Width: 800
GlyphClass: 1
Flags: MW
HStem: 0 100<300 600 300 600> 200 100<100 200 100 200 300 400> 580 20G<100 200 100 100 300 600 300 300 600 700 700 700> 580 20G<100 200 100 100 300 600 300 300 600 700 700 700> 600 100<100 200 100 600 300 600 300 300 100 700>
VStem: 200 100<100 200 100 200 100 200 300 600> 600 100<0 600 100 600 100 600 100 700 100 600>
LayerCount: 2
Fore
SplineSet
100 700 m 1xce
 600 700 l 1xce
 600 600 l 1xe6
 300 600 l 1
 300 300 l 1
 400 300 l 1
 400 200 l 1
 300 200 l 1
 300 100 l 1
 600 100 l 1
 600 0 l 1
 200 0 l 1
 200 200 l 1
 100 200 l 1
 100 300 l 1
 200 300 l 1
 200 600 l 1
 100 600 l 1
 100 700 l 1xce
600 600 m 1xe6
 700 600 l 1
 700 100 l 1
 600 100 l 1
 600 600 l 1xe6
EndSplineSet
EndChar

StartChar: Ntilde
Encoding: 209 209 210
Width: 1000
GlyphClass: 1
Flags: MW
HStem: 0 21G<300 400 300 300 600 600 600 700> 300 100<400 500 400 500 400 600> 500 100<100 200 100 200 300 400 400 400 600 800> 600 100<100 600 200 600 200 600 200 600 200 800 800 900>
VStem: 100 100<500 600 500 600> 300 100<0 300 400 500> 600 100<0 200 200 200 300 400 0 400> 800 100<500 700 600 700 600 700>
LayerCount: 2
Fore
SplineSet
200 700 m 1xdf
 600 700 l 1xdf
 600 600 l 1
 200 600 l 1xef
 200 700 l 1xdf
600 600 m 1xef
 800 600 l 1
 800 500 l 1
 600 500 l 1
 600 600 l 1xef
800 600 m 1
 800 700 l 1
 900 700 l 1
 900 600 l 1xdf
 800 600 l 1
200 600 m 1xef
 200 500 l 1
 100 500 l 1
 100 600 l 1
 200 600 l 1xef
300 500 m 1
 400 500 l 1
 400 400 l 1
 500 400 l 1
 500 300 l 1
 400 300 l 1
 400 0 l 1
 300 0 l 1
 300 500 l 1
500 300 m 1
 600 300 l 1
 600 400 l 1
 700 400 l 1
 700 0 l 1
 600 0 l 1
 600 200 l 1
 500 200 l 1
 500 300 l 1
EndSplineSet
EndChar

StartChar: Ograve
Encoding: 210 210 211
Width: 800
GlyphClass: 1
Flags: MW
HStem: 0 100<300 600 200 300> 400 100<200 300 200 300 300 600 200 300> 500 100<200 300 100 200> 600 100<100 200 100 200 100 300>
VStem: 100 100<600 700> 200 100<100 400 500 600> 600 100<0 400 100 400 100 500 100 400 100 400>
LayerCount: 2
Fore
SplineSet
100 700 m 1x9a
 200 700 l 1x9a
 200 600 l 1xaa
 100 600 l 1
 100 700 l 1x9a
200 600 m 1xaa
 300 600 l 1xa6
 300 500 l 1xc6
 200 500 l 1xa6
 200 600 l 1xaa
300 500 m 1xc6
 600 500 l 1
 600 400 l 1
 300 400 l 1
 300 500 l 1xc6
600 400 m 1
 700 400 l 1
 700 100 l 1
 600 100 l 1
 600 400 l 1
600 100 m 1
 600 0 l 1
 300 0 l 1
 300 100 l 1
 600 100 l 1
300 100 m 1
 200 100 l 1
 200 400 l 1
 300 400 l 1
 300 100 l 1
EndSplineSet
EndChar

StartChar: Oacute
Encoding: 211 211 212
Width: 800
GlyphClass: 1
Flags: MW
HStem: 0 100<200 500 100 200> 400 100<100 500 200 500 200 500 200 500 500 600> 500 100<200 600 500 600 500 600 500 600> 600 100<500 700 600 700 600 700 600 700>
VStem: 100 100<100 400> 500 100<0 400 100 400 100 500 100 400 100 400 500 600> 600 100<500 700 600 700 600 700>
LayerCount: 2
Fore
SplineSet
600 700 m 1x9a
 700 700 l 1
 700 600 l 1x9a
 600 600 l 1xac
 600 700 l 1x9a
600 600 m 1xac
 600 500 l 1xac
 500 500 l 1xcc
 500 600 l 1
 600 600 l 1xac
500 500 m 1xcc
 500 400 l 1
 200 400 l 1
 200 500 l 1
 500 500 l 1xcc
500 400 m 1
 600 400 l 1
 600 100 l 1
 500 100 l 1
 500 400 l 1
500 100 m 1
 500 0 l 1
 200 0 l 1
 200 100 l 1
 500 100 l 1
200 100 m 1
 100 100 l 1
 100 400 l 1
 200 400 l 1
 200 100 l 1
EndSplineSet
EndChar

StartChar: Ocircumflex
Encoding: 212 212 213
Width: 900
GlyphClass: 1
Flags: MW
HStem: 0 100<300 600 200 300> 400 100<100 300 300 600> 500 100<100 200 100 200 300 600 600 600 700 800> 600 100<100 700 200 700 200 700 200 700 200 800>
VStem: 100 100<500 600> 200 100<100 400> 600 100<0 400 100 400 100 500 100 400 100 400> 700 100<500 600 500 700 500 600 500 600>
LayerCount: 2
Fore
SplineSet
200 700 m 1x94
 700 700 l 1x95
 700 600 l 1
 200 600 l 1xa9
 200 700 l 1x94
700 600 m 1xa1
 800 600 l 1
 800 500 l 1
 700 500 l 1
 700 600 l 1xa1
200 600 m 1xa8
 200 500 l 1
 100 500 l 1
 100 600 l 1
 200 600 l 1xa8
300 500 m 1xc6
 600 500 l 1
 600 400 l 1
 300 400 l 1
 300 500 l 1xc6
600 400 m 1
 700 400 l 1
 700 100 l 1
 600 100 l 1
 600 400 l 1
600 100 m 1
 600 0 l 1
 300 0 l 1
 300 100 l 1
 600 100 l 1
300 100 m 1
 200 100 l 1
 200 400 l 1
 300 400 l 1
 300 100 l 1
EndSplineSet
EndChar

StartChar: Otilde
Encoding: 213 213 214
Width: 1000
GlyphClass: 1
Flags: MW
HStem: 0 100<300 600 200 300> 400 100<100 300 300 600 600 700 700 700> 500 100<100 200 100 200 300 600 600 800> 600 100<100 600 200 600 200 600 200 600 200 800 800 900>
VStem: 100 100<500 600> 200 100<100 400> 600 100<0 400 100 400 100 500 100 400 100 400> 800 100<500 700 600 700 600 700>
LayerCount: 2
Fore
SplineSet
200 700 m 1x97
 600 700 l 1x97
 600 600 l 1
 200 600 l 1xab
 200 700 l 1x97
600 600 m 1xa3
 800 600 l 1
 800 500 l 1xa3
 600 500 l 1xc3
 600 600 l 1xa3
800 600 m 1
 800 700 l 1
 900 700 l 1
 900 600 l 1x93
 800 600 l 1
600 500 m 1xc7
 600 400 l 1
 300 400 l 1
 300 500 l 1
 600 500 l 1xc7
600 400 m 1
 700 400 l 1
 700 100 l 1
 600 100 l 1
 600 400 l 1
600 100 m 1
 600 0 l 1
 300 0 l 1
 300 100 l 1
 600 100 l 1
300 100 m 1
 200 100 l 1
 200 400 l 1
 300 400 l 1
 300 100 l 1
200 600 m 1xab
 200 500 l 1
 100 500 l 1
 100 600 l 1
 200 600 l 1xab
EndSplineSet
EndChar

StartChar: Odieresis
Encoding: 214 214 215
Width: 700
GlyphClass: 1
Flags: MW
HStem: 0 100<200 500 100 200> 400 100<100 500 200 500 200 500 200 500 200 600> 600 100<200 300 200 300 400 500>
VStem: 100 100<100 400> 200 100<600 700 600 700> 400 100<600 700> 500 100<0 400 100 400 100 500 100 400 100 400>
LayerCount: 2
Fore
SplineSet
200 700 m 1xe8
 300 700 l 1
 300 600 l 1
 200 600 l 1
 200 700 l 1xe8
400 700 m 1xe4
 500 700 l 1
 500 600 l 1
 400 600 l 1
 400 700 l 1xe4
200 500 m 1xe8
 500 500 l 1
 500 400 l 1
 200 400 l 1xf2
 200 500 l 1xe8
500 400 m 1
 600 400 l 1
 600 100 l 1
 500 100 l 1
 500 400 l 1
500 100 m 1
 500 0 l 1
 200 0 l 1xea
 200 100 l 1
 500 100 l 1
200 100 m 1xf0
 100 100 l 1
 100 400 l 1
 200 400 l 1
 200 100 l 1xf0
EndSplineSet
EndChar

StartChar: multiply
Encoding: 215 215 216
Width: 700
GlyphClass: 1
Flags: MW
HStem: 100 100<100 200 100 200 500 600> 200 100<100 300 200 300 200 300 200 300 400 500> 300 100<200 300 300 400 200 300 200 300 400 500> 400 100<200 300 100 200 400 500> 500 100<100 200 100 200 100 300 500 600>
VStem: 100 100<100 200 100 200 500 600> 200 100<100 300 200 300 200 300 400 500> 300 100<200 300 200 300 300 400 400 500> 400 100<200 300 400 500> 500 100<100 200 100 300 100 200 100 200 500 600>
LayerCount: 2
Fore
SplineSet
100 600 m 1x0c
 200 600 l 1x0c
 200 500 l 1x14
 100 500 l 1
 100 600 l 1x0c
200 500 m 1x14
 300 500 l 1x12
 300 400 l 1x22
 200 400 l 1x12
 200 500 l 1x14
300 400 m 1x22
 400 400 l 1x21
 400 300 l 1x41
 300 300 l 1x42
 300 400 l 1x22
400 400 m 1
 400 500 l 1
 500 500 l 1
 500 400 l 1x1080
 400 400 l 1
500 500 m 1
 500 600 l 1
 600 600 l 1
 600 500 l 1x0840
 500 500 l 1
400 300 m 1x41
 500 300 l 1x4080
 500 200 l 1x8080
 400 200 l 1x4080
 400 300 l 1x41
500 200 m 1x8080
 600 200 l 1
 600 100 l 1
 500 100 l 1x8040
 500 200 l 1x8080
300 300 m 1x42
 300 200 l 1x42
 200 200 l 1x84
 200 300 l 1
 300 300 l 1x42
200 200 m 1x84
 200 100 l 1
 100 100 l 1
 100 200 l 1
 200 200 l 1x84
EndSplineSet
EndChar

StartChar: Oslash
Encoding: 216 216 217
Width: 800
GlyphClass: 1
Flags: MW
HStem: 0 100<100 200 100 200 300 600> 100 100<100 200 200 300 100 200 100 200 300 400> 400 100<300 500 400 500 400 500 400 500> 500 100<400 500 500 600 600 700> 600 100<100 500 200 500 200 500 200 500 200 600 600 700>
VStem: 100 100<0 100 0 100 200 600> 200 100<0 100 0 100 100 200 200 400> 300 100<100 400 200 400 200 400> 400 100<200 500 400 500 400 500> 500 100<400 500 400 400 500 600 600 700> 600 100<0 500 100 500 100 600 100 500 100 500 600 700>
LayerCount: 2
Fore
SplineSet
200 700 m 1x0a
 500 700 l 1x0a40
 500 600 l 1x1240
 200 600 l 1x0c40
 200 700 l 1x0a
500 600 m 1x1040
 600 600 l 1
 600 500 l 1x1040
 500 500 l 1x2080
 500 600 l 1x1040
600 600 m 1
 600 700 l 1
 700 700 l 1
 700 600 l 1x0820
 600 600 l 1
600 500 m 1x9040
 700 500 l 1
 700 100 l 1x5020
 600 100 l 1x8020
 600 500 l 1x9040
600 100 m 1x8220
 600 0 l 1
 300 0 l 1x8120
 300 100 l 1
 600 100 l 1x8220
300 100 m 1x82
 200 100 l 1x84
 200 200 l 1x44
 300 200 l 1x42
 300 100 l 1x82
200 100 m 1
 200 0 l 1
 100 0 l 1
 100 100 l 1
 200 100 l 1
200 200 m 1x4c
 100 200 l 1
 100 600 l 1
 200 600 l 1
 200 200 l 1x4c
300 200 m 1x62
 300 400 l 1
 400 400 l 1
 400 200 l 1x61
 300 200 l 1x62
400 400 m 1
 400 500 l 1
 500 500 l 1
 500 400 l 1x2080
 400 400 l 1
EndSplineSet
EndChar

StartChar: Ugrave
Encoding: 217 217 218
Width: 800
GlyphClass: 1
Flags: MW
HStem: 0 100<300 600 200 300> 580 20G<100 200 100 100 200 300 300 300> 580 20G<100 200 100 100 200 300 300 300> 600 100<100 200 100 200 100 300>
VStem: 100 100<600 700> 200 100<100 600> 600 100<0 500 100 500 100 500>
LayerCount: 2
Fore
SplineSet
100 700 m 1x9a
 200 700 l 1x9a
 200 600 l 1xca
 100 600 l 1
 100 700 l 1x9a
200 600 m 1xca
 300 600 l 1
 300 100 l 1
 200 100 l 1xc6
 200 600 l 1xca
300 100 m 1
 600 100 l 1
 600 0 l 1
 300 0 l 1
 300 100 l 1
600 100 m 1
 600 500 l 1
 700 500 l 1
 700 100 l 1
 600 100 l 1
EndSplineSet
EndChar

StartChar: Uacute
Encoding: 218 218 219
Width: 800
GlyphClass: 1
Flags: MW
HStem: 0 100<200 500 100 200> 580 20G<500 600 600 700 600 600 600 600> 580 20G<500 600 600 700 600 600 600 600> 600 100<500 700 600 700 600 700 600 700>
VStem: 100 100<100 500> 500 100<0 600 100 600 100 600> 600 100<100 700 600 700 600 700>
LayerCount: 2
Fore
SplineSet
600 700 m 1x9a
 700 700 l 1
 700 600 l 1x9a
 600 600 l 1xcc
 600 700 l 1x9a
600 600 m 1xcc
 600 100 l 1
 500 100 l 1
 500 600 l 1
 600 600 l 1xcc
500 100 m 1
 500 0 l 1
 200 0 l 1
 200 100 l 1
 500 100 l 1
200 100 m 1
 100 100 l 1
 100 500 l 1
 200 500 l 1
 200 100 l 1
EndSplineSet
EndChar

StartChar: Ucircumflex
Encoding: 219 219 220
Width: 900
GlyphClass: 1
Flags: MW
HStem: 0 100<300 600 200 300> 500 100<100 200 100 200 700 800> 600 100<100 700 200 700 200 700 200 700 200 800>
VStem: 100 100<500 600> 200 100<100 400> 600 100<0 400 100 400 100 400> 700 100<500 600 500 700 500 600 500 600>
LayerCount: 2
Fore
SplineSet
200 700 m 1xa8
 700 700 l 1xaa
 700 600 l 1
 200 600 l 1xd2
 200 700 l 1xa8
700 600 m 1xc2
 800 600 l 1
 800 500 l 1
 700 500 l 1
 700 600 l 1xc2
200 600 m 1xd0
 200 500 l 1
 100 500 l 1
 100 600 l 1
 200 600 l 1xd0
200 400 m 1x88
 300 400 l 1
 300 100 l 1
 200 100 l 1
 200 400 l 1x88
300 100 m 1
 600 100 l 1
 600 0 l 1x8c
 300 0 l 1
 300 100 l 1
600 100 m 1
 600 400 l 1
 700 400 l 1
 700 100 l 1
 600 100 l 1
EndSplineSet
EndChar

StartChar: Udieresis
Encoding: 220 220 221
Width: 700
GlyphClass: 1
Flags: MW
HStem: 0 100<200 500 100 200> 600 100<200 300 200 300 400 500>
VStem: 100 100<100 500> 200 100<600 700 600 700> 400 100<600 700> 500 100<0 500 100 500 100 500>
LayerCount: 2
Fore
SplineSet
200 700 m 1xd0
 300 700 l 1
 300 600 l 1
 200 600 l 1
 200 700 l 1xd0
400 700 m 1xc8
 500 700 l 1
 500 600 l 1
 400 600 l 1
 400 700 l 1xc8
100 500 m 1xe0
 200 500 l 1
 200 100 l 1
 100 100 l 1
 100 500 l 1xe0
200 100 m 1
 500 100 l 1
 500 0 l 1
 200 0 l 1xd4
 200 100 l 1
500 100 m 1
 500 500 l 1
 600 500 l 1
 600 100 l 1
 500 100 l 1
EndSplineSet
EndChar

StartChar: Yacute
Encoding: 221 221 222
Width: 700
GlyphClass: 1
Flags: MW
HStem: 0 21G<300 400 300 300> 200 100<200 300 100 200 400 500> 500 100<300 400 300 400> 600 100<400 500>
VStem: 100 100<300 700> 200 100<200 300 500 600> 300 100<0 200 200 300 0 200 0 200 500 600> 400 100<0 300 200 300 200 300 600 700> 500 100<200 500 300 500 300 500>
LayerCount: 2
Fore
SplineSet
100 700 m 1xd8
 200 700 l 1
 200 300 l 1
 100 300 l 1
 100 700 l 1xd8
200 300 m 1
 300 300 l 1
 300 200 l 1
 200 200 l 1xc4
 200 300 l 1
300 200 m 1
 400 200 l 1
 400 0 l 1
 300 0 l 1xc2
 300 200 l 1
400 200 m 1
 400 300 l 1
 500 300 l 1
 500 200 l 1xc1
 400 200 l 1
500 300 m 1
 500 500 l 1
 600 500 l 1
 600 300 l 1xe080
 500 300 l 1
400 700 m 1xd1
 500 700 l 1
 500 600 l 1xd1
 400 600 l 1xe2
 400 700 l 1xd1
400 600 m 1xe2
 400 500 l 1
 300 500 l 1
 300 600 l 1
 400 600 l 1xe2
EndSplineSet
EndChar

StartChar: Thorn
Encoding: 222 222 223
Width: 600
GlyphClass: 1
Flags: MW
HStem: 0 21G<100 200 100 100> 100 100<200 400 200 400> 400 100<200 400 200 400 200 500> 580 20G<100 200 200 200> 580 20G<100 200 200 200>
VStem: 100 100<0 100 200 400 500 600> 400 100<100 400 200 400 200 400 200 500 200 400>
LayerCount: 2
Fore
SplineSet
100 600 m 1xf6
 200 600 l 1
 200 500 l 1
 400 500 l 1
 400 400 l 1
 200 400 l 1
 200 200 l 1
 400 200 l 1
 400 100 l 1
 200 100 l 1
 200 0 l 1
 100 0 l 1
 100 600 l 1xf6
400 400 m 1
 500 400 l 1
 500 200 l 1
 400 200 l 1
 400 400 l 1
EndSplineSet
EndChar

StartChar: germandbls
Encoding: 223 223 224
Width: 700
GlyphClass: 1
Flags: MW
HStem: -100 21G<100 200 100 100> 0 100<300 500 300 500> 300 100<300 400 300 500 300 400> 580 20G<100 200 200 400 200 200 200 200 400 500 500 500> 580 20G<100 200 200 400 200 200 200 200 400 500 500 500> 600 100<100 400 200 400 200 400 200 400 200 500>
VStem: 100 100<-100 600 -100 600> 400 100<400 600> 500 100<0 400 100 300 300 300 100 600 100 400>
LayerCount: 2
Fore
SplineSet
200 700 m 1xe7
 400 700 l 1xe7
 400 600 l 1
 200 600 l 1xf3
 200 700 l 1xe7
400 600 m 1xf3
 500 600 l 1
 500 400 l 1xf3
 600 400 l 1
 600 100 l 1
 500 100 l 1
 500 300 l 1xf280
 300 300 l 1
 300 400 l 1
 400 400 l 1
 400 600 l 1xf3
500 100 m 1xe280
 500 0 l 1
 300 0 l 1
 300 100 l 1
 500 100 l 1xe280
200 600 m 1xf2
 200 -100 l 1
 100 -100 l 1
 100 600 l 1
 200 600 l 1xf2
EndSplineSet
EndChar

StartChar: agrave
Encoding: 224 224 225
Width: 800
GlyphClass: 1
Flags: MW
HStem: 0 21G<200 300 200 200 600 700 600 600> 100 100<300 600 300 600> 400 100<200 300 200 300 300 600 200 300> 500 100<200 300 100 200> 600 100<100 200 100 200 100 300>
VStem: 100 100<600 700> 200 100<0 100 200 400 500 600> 600 100<0 100 100 100 200 400 0 500 0 400 0 400>
LayerCount: 2
Fore
SplineSet
100 700 m 1xcd
 200 700 l 1xcd
 200 600 l 1xd5
 100 600 l 1
 100 700 l 1xcd
200 600 m 1xd5
 300 600 l 1xd3
 300 500 l 1xe3
 200 500 l 1xd3
 200 600 l 1xd5
300 500 m 1xe3
 600 500 l 1
 600 400 l 1
 300 400 l 1
 300 500 l 1xe3
600 400 m 1
 700 400 l 1
 700 0 l 1
 600 0 l 1
 600 100 l 1
 300 100 l 1
 300 0 l 1
 200 0 l 1
 200 400 l 1
 300 400 l 1
 300 200 l 1
 600 200 l 1
 600 400 l 1
EndSplineSet
EndChar

StartChar: aacute
Encoding: 225 225 226
Width: 800
GlyphClass: 1
Flags: MW
HStem: 0 21G<100 200 100 100 500 600 500 500> 100 100<200 500 200 500> 400 100<100 500 200 500 200 500 200 500 500 600> 500 100<200 600 500 600 500 600 500 600> 600 100<500 700 600 700 600 700 600 700>
VStem: 100 100<0 100 200 400> 500 100<0 100 100 100 200 400 0 500 0 400 0 400 500 600> 600 100<500 700 600 700 600 700>
LayerCount: 2
Fore
SplineSet
600 700 m 1xcd
 700 700 l 1
 700 600 l 1xcd
 600 600 l 1xd6
 600 700 l 1xcd
600 600 m 1xd6
 600 500 l 1xd6
 500 500 l 1xe6
 500 600 l 1
 600 600 l 1xd6
500 500 m 1xe6
 500 400 l 1
 200 400 l 1
 200 500 l 1
 500 500 l 1xe6
500 400 m 1
 600 400 l 1
 600 0 l 1
 500 0 l 1
 500 100 l 1
 200 100 l 1
 200 0 l 1
 100 0 l 1
 100 400 l 1
 200 400 l 1
 200 200 l 1
 500 200 l 1
 500 400 l 1
EndSplineSet
EndChar

StartChar: acircumflex
Encoding: 226 226 227
Width: 900
GlyphClass: 1
Flags: MW
HStem: 0 21G<200 300 200 200 600 700 600 600> 100 100<300 600 300 600> 400 100<100 300 300 600> 500 100<100 200 100 200 300 600 600 600 700 800> 600 100<100 700 200 700 200 700 200 700 200 800>
VStem: 100 100<500 600> 200 100<0 100 200 400> 600 100<0 100 100 100 200 400 0 500 0 400 0 400> 700 100<500 600 500 700 500 600 500 600>
LayerCount: 2
Fore
SplineSet
200 700 m 1xca
 700 700 l 1xca80
 700 600 l 1
 200 600 l 1xd480
 200 700 l 1xca
700 600 m 1xd080
 800 600 l 1
 800 500 l 1
 700 500 l 1
 700 600 l 1xd080
200 600 m 1xd4
 200 500 l 1
 100 500 l 1
 100 600 l 1
 200 600 l 1xd4
300 500 m 1xe3
 600 500 l 1
 600 400 l 1
 300 400 l 1
 300 500 l 1xe3
600 400 m 1
 700 400 l 1
 700 0 l 1
 600 0 l 1
 600 100 l 1
 300 100 l 1
 300 0 l 1
 200 0 l 1
 200 400 l 1
 300 400 l 1
 300 200 l 1
 600 200 l 1
 600 400 l 1
EndSplineSet
EndChar

StartChar: atilde
Encoding: 227 227 228
Width: 1000
GlyphClass: 1
Flags: MW
HStem: 0 21G<200 300 200 200 600 700 600 600> 100 100<300 600 300 600> 400 100<100 300 300 600 600 700 700 700> 500 100<100 200 100 200 300 600 600 800> 600 100<100 600 200 600 200 600 200 600 200 800 800 900>
VStem: 100 100<500 600> 200 100<0 100 200 400> 600 100<0 100 100 100 200 400 0 500 0 400 0 400> 800 100<500 700 600 700 600 700>
LayerCount: 2
Fore
SplineSet
200 700 m 1xcb80
 600 700 l 1xcb80
 600 600 l 1
 200 600 l 1xd580
 200 700 l 1xcb80
600 600 m 1xd180
 800 600 l 1
 800 500 l 1xd180
 600 500 l 1xe180
 600 600 l 1xd180
800 600 m 1
 800 700 l 1
 900 700 l 1
 900 600 l 1xc980
 800 600 l 1
600 500 m 1xe380
 600 400 l 1
 300 400 l 1
 300 500 l 1
 600 500 l 1xe380
600 400 m 1
 700 400 l 1
 700 0 l 1
 600 0 l 1
 600 100 l 1
 300 100 l 1
 300 0 l 1
 200 0 l 1
 200 400 l 1
 300 400 l 1
 300 200 l 1
 600 200 l 1
 600 400 l 1
200 600 m 1xd580
 200 500 l 1
 100 500 l 1
 100 600 l 1
 200 600 l 1xd580
EndSplineSet
EndChar

StartChar: adieresis
Encoding: 228 228 229
Width: 700
GlyphClass: 1
Flags: MW
HStem: 0 21G<100 200 100 100 500 600 500 500> 100 100<200 500 200 500> 400 100<100 500 200 500 200 500 200 500 200 600> 600 100<200 300 200 300 400 500>
VStem: 100 100<0 100 200 400> 200 100<600 700 600 700> 400 100<600 700> 500 100<0 100 100 100 200 400 0 500 0 400 0 400>
LayerCount: 2
Fore
SplineSet
200 700 m 1xf4
 300 700 l 1
 300 600 l 1
 200 600 l 1
 200 700 l 1xf4
400 700 m 1xf2
 500 700 l 1
 500 600 l 1
 400 600 l 1
 400 700 l 1xf2
200 500 m 1xf4
 500 500 l 1
 500 400 l 1
 200 400 l 1xf9
 200 500 l 1xf4
500 400 m 1
 600 400 l 1
 600 0 l 1
 500 0 l 1
 500 100 l 1
 200 100 l 1
 200 0 l 1
 100 0 l 1
 100 400 l 1
 200 400 l 1
 200 200 l 1
 500 200 l 1
 500 400 l 1
EndSplineSet
EndChar

StartChar: aring
Encoding: 229 229 230
Width: 700
GlyphClass: 1
Flags: MW
HStem: 0 21G<100 200 100 100 500 600 500 500> 100 100<200 500 200 500> 400 100<300 400 300 500> 600 100<300 300 300 400>
VStem: 100 100<0 100 200 400> 200 100<500 600 500 700> 400 100<500 600 600 600> 500 100<0 100 100 100 200 400 0 700 0 400 0 400>
LayerCount: 2
Fore
SplineSet
200 700 m 1xf4
 500 700 l 1
 500 400 l 1
 200 400 l 1xf9
 200 700 l 1xf4
500 400 m 1
 600 400 l 1
 600 0 l 1
 500 0 l 1
 500 100 l 1
 200 100 l 1
 200 0 l 1
 100 0 l 1
 100 400 l 1
 200 400 l 1
 200 200 l 1
 500 200 l 1
 500 400 l 1
300 600 m 1xf6
 300 500 l 1
 400 500 l 1
 400 600 l 1
 300 600 l 1xf6
EndSplineSet
EndChar

StartChar: ae
Encoding: 230 230 231
Width: 900
GlyphClass: 1
Flags: MW
HStem: 0 100<600 800 600 800> 200 100<300 500 300 500 600 800> 400 100<200 400 300 400 300 400 300 400> 500 100<300 800 400 800 400 500 400 800 600 800 600 600>
VStem: 100 100<0 200 0 200> 200 100<300 400 300 400 300 400> 300 100<300 500 400 500 400 500> 500 100<100 200 100 200 100 200 300 500>
LayerCount: 2
Fore
SplineSet
400 600 m 1xd3
 800 600 l 1
 800 500 l 1
 600 500 l 1
 600 300 l 1
 800 300 l 1
 800 200 l 1
 600 200 l 1
 600 100 l 1
 800 100 l 1
 800 0 l 1
 500 0 l 1
 500 200 l 1
 200 200 l 1xdb
 200 400 l 1
 300 400 l 1xe5
 300 300 l 1
 500 300 l 1
 500 500 l 1xd5
 400 500 l 1xe3
 400 600 l 1xd3
200 200 m 1
 200 0 l 1
 100 0 l 1
 100 200 l 1
 200 200 l 1
300 400 m 1xe5
 300 500 l 1
 400 500 l 1
 400 400 l 1xe3
 300 400 l 1xe5
EndSplineSet
EndChar

StartChar: ccedilla
Encoding: 231 231 232
Width: 700
GlyphClass: 1
Flags: MW
HStem: -100 100<500 600 200 500> 0 100<200 500 100 200 500 600> 100 100<200 600 500 600 500 600 500 600> 400 100<500 600> 500 100<100 500 200 500 200 500 200 500 200 600>
VStem: 100 100<100 500> 500 100<-100 0 -100 100 -100 0 -100 0 100 200 400 500>
LayerCount: 2
Fore
SplineSet
200 600 m 1x0e
 500 600 l 1x0e
 500 500 l 1x16
 200 500 l 1
 200 600 l 1x0e
500 500 m 1x16
 600 500 l 1
 600 400 l 1
 500 400 l 1
 500 500 l 1x16
200 500 m 1x2e
 200 100 l 1x4e
 100 100 l 1
 100 500 l 1
 200 500 l 1x2e
200 100 m 1
 500 100 l 1x46
 500 0 l 1x86
 200 0 l 1
 200 100 l 1
500 100 m 1
 500 200 l 1
 600 200 l 1
 600 100 l 1x26
 500 100 l 1
500 0 m 1x86
 600 0 l 1
 600 -100 l 1
 500 -100 l 1
 500 0 l 1x86
EndSplineSet
EndChar

StartChar: egrave
Encoding: 232 232 233
Width: 800
GlyphClass: 1
Flags: MW
HStem: 0 100<300 700 300 700> 200 100<300 600 300 600> 400 100<300 700 300 700> 580 20G<100 200 100 100 200 300 300 300> 580 20G<100 200 100 100 200 300 300 300> 600 100<100 200 100 200 100 300>
VStem: 100 100<600 700> 200 100<100 200 300 400 500 600>
LayerCount: 2
Fore
SplineSet
100 700 m 1xe6
 200 700 l 1xe6
 200 600 l 1xf2
 100 600 l 1
 100 700 l 1xe6
200 600 m 1xf2
 300 600 l 1
 300 500 l 1
 700 500 l 1
 700 400 l 1
 300 400 l 1
 300 300 l 1
 600 300 l 1
 600 200 l 1
 300 200 l 1
 300 100 l 1
 700 100 l 1
 700 0 l 1
 200 0 l 1xf1
 200 600 l 1xf2
EndSplineSet
EndChar

StartChar: eacute
Encoding: 233 233 234
Width: 900
GlyphClass: 1
Flags: MW
HStem: 0 100<200 600 200 600> 200 100<200 500 200 500> 400 100<200 600 200 200> 500 100<100 700 600 700 600 700 600 700> 600 100<600 800 700 800 700 800 700 800>
VStem: 100 100<100 200 300 400> 600 100<400 600 500 600 500 600> 700 100<500 700 600 700 600 700>
LayerCount: 2
Fore
SplineSet
700 700 m 1xcd
 800 700 l 1
 800 600 l 1xcd
 700 600 l 1xd6
 700 700 l 1xcd
700 600 m 1xd6
 700 500 l 1xd6
 600 500 l 1xe6
 600 600 l 1
 700 600 l 1xd6
600 500 m 1xe6
 600 400 l 1
 200 400 l 1xe6
 200 300 l 1
 500 300 l 1
 500 200 l 1
 200 200 l 1
 200 100 l 1
 600 100 l 1
 600 0 l 1
 100 0 l 1
 100 500 l 1xd6
 600 500 l 1xe6
EndSplineSet
EndChar

StartChar: ecircumflex
Encoding: 234 234 235
Width: 900
GlyphClass: 1
Flags: MW
HStem: 0 100<400 600 400 600> 200 100<400 600 400 600> 400 100<400 600 400 400> 500 100<100 200 100 200 300 600 600 600 700 800> 600 100<100 700 200 700 200 700 200 700 200 800>
VStem: 100 100<500 600 500 600> 300 100<100 200 300 400> 300 300<0 100 200 300 400 500> 700 100<500 600 500 700 500 600 500 600>
LayerCount: 2
Fore
SplineSet
200 700 m 1xcc80
 700 700 l 1xcc80
 700 600 l 1
 200 600 l 1xd480
 200 700 l 1xcc80
700 600 m 1xd480
 800 600 l 1
 800 500 l 1
 700 500 l 1
 700 600 l 1xd480
200 600 m 1
 200 500 l 1
 100 500 l 1
 100 600 l 1
 200 600 l 1
300 500 m 1xd580
 600 500 l 1
 600 400 l 1xe580
 400 400 l 1
 400 300 l 1xe680
 600 300 l 1
 600 200 l 1xe580
 400 200 l 1
 400 100 l 1xe680
 600 100 l 1
 600 0 l 1
 300 0 l 1
 300 500 l 1xd580
EndSplineSet
EndChar

StartChar: edieresis
Encoding: 235 235 236
Width: 700
GlyphClass: 1
Flags: MW
HStem: 0 100<200 600 200 600> 200 100<200 500 200 500> 400 100<200 600 200 200> 600 100<200 300 200 300 400 500>
VStem: 100 100<100 200 300 400> 200 100<600 700 600 700> 400 100<600 700>
LayerCount: 2
Fore
SplineSet
200 700 m 1xf6
 300 700 l 1
 300 600 l 1
 200 600 l 1
 200 700 l 1xf6
400 700 m 1
 500 700 l 1
 500 600 l 1
 400 600 l 1
 400 700 l 1
100 500 m 1xfa
 600 500 l 1
 600 400 l 1
 200 400 l 1
 200 300 l 1
 500 300 l 1
 500 200 l 1
 200 200 l 1
 200 100 l 1
 600 100 l 1
 600 0 l 1
 100 0 l 1
 100 500 l 1xfa
EndSplineSet
EndChar

StartChar: igrave
Encoding: 236 236 237
Width: 500
GlyphClass: 1
Flags: MW
HStem: 0 100<100 200 300 400 100 200> 500 100<200 300 100 200> 600 100<100 200 100 200 100 300>
VStem: 100 100<0 400 100 400 600 700> 200 100<100 400 100 400 500 600>
LayerCount: 2
Fore
SplineSet
100 700 m 1xb0
 200 700 l 1xb0
 200 600 l 1xd0
 100 600 l 1
 100 700 l 1xb0
200 600 m 1xd0
 300 600 l 1
 300 500 l 1
 200 500 l 1xc8
 200 600 l 1xd0
200 400 m 1
 300 400 l 1
 300 100 l 1x88
 400 100 l 1
 400 0 l 1
 100 0 l 1
 100 100 l 1x90
 200 100 l 1
 200 400 l 1
EndSplineSet
EndChar

StartChar: iacute
Encoding: 237 237 238
Width: 500
GlyphClass: 1
Flags: MW
HStem: 0 100<100 200 300 400 100 200> 500 100<200 300 200 300> 600 100<200 400 300 400 300 400 300 400>
VStem: 200 100<100 400 100 400 500 600> 300 100<0 400 0 100 600 700>
LayerCount: 2
Fore
SplineSet
300 700 m 1xa8
 400 700 l 1
 400 600 l 1xa8
 300 600 l 1xd0
 300 700 l 1xa8
300 600 m 1xd0
 300 500 l 1
 200 500 l 1
 200 600 l 1
 300 600 l 1xd0
200 400 m 1
 300 400 l 1
 300 100 l 1x90
 400 100 l 1
 400 0 l 1x88
 100 0 l 1
 100 100 l 1
 200 100 l 1
 200 400 l 1
EndSplineSet
EndChar

StartChar: icircumflex
Encoding: 238 238 239
Width: 700
GlyphClass: 1
Flags: MW
HStem: 0 100<200 300 400 500 200 300> 500 100<100 200 100 200 300 400 400 400 500 600> 600 100<100 500 200 500 200 500 200 500 200 600>
VStem: 100 100<500 600> 300 100<100 500 100 500> 500 100<500 600 500 700 500 600 500 600>
CounterMasks: 1 1c
LayerCount: 2
Fore
SplineSet
200 700 m 1xbc
 500 700 l 1xbc
 500 600 l 1
 200 600 l 1xdc
 200 700 l 1xbc
500 600 m 1xdc
 600 600 l 1
 600 500 l 1
 500 500 l 1
 500 600 l 1xdc
200 600 m 1
 200 500 l 1
 100 500 l 1
 100 600 l 1
 200 600 l 1
300 500 m 1
 400 500 l 1
 400 100 l 1
 500 100 l 1
 500 0 l 1
 200 0 l 1
 200 100 l 1
 300 100 l 1
 300 500 l 1
EndSplineSet
EndChar

StartChar: idieresis
Encoding: 239 239 240
Width: 500
GlyphClass: 1
Flags: MW
HStem: 0 100<100 200 300 400 100 200> 600 100<100 200 100 200 300 400>
VStem: 100 100<0 400 100 400 600 700> 200 100<100 400 100 400 600 700> 300 100<0 400 0 100 600 700>
LayerCount: 2
Fore
SplineSet
100 700 m 1xe0
 200 700 l 1
 200 600 l 1
 100 600 l 1
 100 700 l 1xe0
300 700 m 1xc8
 400 700 l 1
 400 600 l 1
 300 600 l 1
 300 700 l 1xc8
200 400 m 1xd0
 300 400 l 1
 300 100 l 1xd0
 400 100 l 1
 400 0 l 1
 100 0 l 1
 100 100 l 1xe8
 200 100 l 1
 200 400 l 1xd0
EndSplineSet
EndChar

StartChar: eth
Encoding: 240 240 241
Width: 800
GlyphClass: 1
Flags: MW
HStem: 0 100<200 500 100 200> 400 100<100 500 200 500 200 500 200 500 500 600 600 700> 680 20G<500 600 600 600>
VStem: 100 100<100 400> 500 100<0 400 100 400 100 400 400 500 100 400 500 700> 600 100<100 500 400 500 400 700 400 500 400 500>
LayerCount: 2
Fore
SplineSet
500 700 m 1xf8
 600 700 l 1
 600 500 l 1
 500 500 l 1
 500 700 l 1xf8
600 500 m 1
 700 500 l 1
 700 400 l 1xf4
 600 400 l 1
 600 500 l 1
600 400 m 1xf8
 600 100 l 1
 500 100 l 1
 500 400 l 1
 600 400 l 1xf8
500 100 m 1
 500 0 l 1
 200 0 l 1
 200 100 l 1
 500 100 l 1
200 100 m 1
 100 100 l 1
 100 400 l 1
 200 400 l 1
 200 100 l 1
200 400 m 1
 200 500 l 1
 500 500 l 1
 500 400 l 1
 200 400 l 1
EndSplineSet
EndChar

StartChar: ntilde
Encoding: 241 241 242
Width: 1000
GlyphClass: 1
Flags: MW
HStem: 0 21G<300 400 300 300 600 600 600 700> 300 100<400 500 400 500 400 600> 500 100<100 200 100 200 300 400 400 400 600 800> 600 100<100 600 200 600 200 600 200 600 200 800 800 900>
VStem: 100 100<500 600 500 600> 300 100<0 300 400 500> 600 100<0 200 200 200 300 400 0 400> 800 100<500 700 600 700 600 700>
LayerCount: 2
Fore
SplineSet
200 700 m 1xdf
 600 700 l 1xdf
 600 600 l 1
 200 600 l 1xef
 200 700 l 1xdf
600 600 m 1xef
 800 600 l 1
 800 500 l 1
 600 500 l 1
 600 600 l 1xef
800 600 m 1
 800 700 l 1
 900 700 l 1
 900 600 l 1xdf
 800 600 l 1
200 600 m 1xef
 200 500 l 1
 100 500 l 1
 100 600 l 1
 200 600 l 1xef
300 500 m 1
 400 500 l 1
 400 400 l 1
 500 400 l 1
 500 300 l 1
 400 300 l 1
 400 0 l 1
 300 0 l 1
 300 500 l 1
500 300 m 1
 600 300 l 1
 600 400 l 1
 700 400 l 1
 700 0 l 1
 600 0 l 1
 600 200 l 1
 500 200 l 1
 500 300 l 1
EndSplineSet
EndChar

StartChar: ograve
Encoding: 242 242 243
Width: 800
GlyphClass: 1
Flags: MW
HStem: 0 100<300 600 200 300> 400 100<200 300 200 300 300 600 200 300> 500 100<200 300 100 200> 600 100<100 200 100 200 100 300>
VStem: 100 100<600 700> 200 100<100 400 500 600> 600 100<0 400 100 400 100 500 100 400 100 400>
LayerCount: 2
Fore
SplineSet
100 700 m 1x9a
 200 700 l 1x9a
 200 600 l 1xaa
 100 600 l 1
 100 700 l 1x9a
200 600 m 1xaa
 300 600 l 1xa6
 300 500 l 1xc6
 200 500 l 1xa6
 200 600 l 1xaa
300 500 m 1xc6
 600 500 l 1
 600 400 l 1
 300 400 l 1
 300 500 l 1xc6
600 400 m 1
 700 400 l 1
 700 100 l 1
 600 100 l 1
 600 400 l 1
600 100 m 1
 600 0 l 1
 300 0 l 1
 300 100 l 1
 600 100 l 1
300 100 m 1
 200 100 l 1
 200 400 l 1
 300 400 l 1
 300 100 l 1
EndSplineSet
EndChar

StartChar: oacute
Encoding: 243 243 244
Width: 800
GlyphClass: 1
Flags: MW
HStem: 0 100<200 500 100 200> 400 100<100 500 200 500 200 500 200 500 500 600> 500 100<200 600 500 600 500 600 500 600> 600 100<500 700 600 700 600 700 600 700>
VStem: 100 100<100 400> 500 100<0 400 100 400 100 500 100 400 100 400 500 600> 600 100<500 700 600 700 600 700>
LayerCount: 2
Fore
SplineSet
600 700 m 1x9a
 700 700 l 1
 700 600 l 1x9a
 600 600 l 1xac
 600 700 l 1x9a
600 600 m 1xac
 600 500 l 1xac
 500 500 l 1xcc
 500 600 l 1
 600 600 l 1xac
500 500 m 1xcc
 500 400 l 1
 200 400 l 1
 200 500 l 1
 500 500 l 1xcc
500 400 m 1
 600 400 l 1
 600 100 l 1
 500 100 l 1
 500 400 l 1
500 100 m 1
 500 0 l 1
 200 0 l 1
 200 100 l 1
 500 100 l 1
200 100 m 1
 100 100 l 1
 100 400 l 1
 200 400 l 1
 200 100 l 1
EndSplineSet
EndChar

StartChar: ocircumflex
Encoding: 244 244 245
Width: 900
GlyphClass: 1
Flags: MW
HStem: 0 100<300 600 200 300> 400 100<100 300 300 600> 500 100<100 200 100 200 300 600 600 600 700 800> 600 100<100 700 200 700 200 700 200 700 200 800>
VStem: 100 100<500 600> 200 100<100 400> 600 100<0 400 100 400 100 500 100 400 100 400> 700 100<500 600 500 700 500 600 500 600>
LayerCount: 2
Fore
SplineSet
200 700 m 1x94
 700 700 l 1x95
 700 600 l 1
 200 600 l 1xa9
 200 700 l 1x94
700 600 m 1xa1
 800 600 l 1
 800 500 l 1
 700 500 l 1
 700 600 l 1xa1
200 600 m 1xa8
 200 500 l 1
 100 500 l 1
 100 600 l 1
 200 600 l 1xa8
300 500 m 1xc6
 600 500 l 1
 600 400 l 1
 300 400 l 1
 300 500 l 1xc6
600 400 m 1
 700 400 l 1
 700 100 l 1
 600 100 l 1
 600 400 l 1
600 100 m 1
 600 0 l 1
 300 0 l 1
 300 100 l 1
 600 100 l 1
300 100 m 1
 200 100 l 1
 200 400 l 1
 300 400 l 1
 300 100 l 1
EndSplineSet
EndChar

StartChar: otilde
Encoding: 245 245 246
Width: 1000
GlyphClass: 1
Flags: MW
HStem: 0 100<300 600 200 300> 400 100<100 300 300 600 600 700 700 700> 500 100<100 200 100 200 300 600 600 800> 600 100<100 600 200 600 200 600 200 600 200 800 800 900>
VStem: 100 100<500 600> 200 100<100 400> 600 100<0 400 100 400 100 500 100 400 100 400> 800 100<500 700 600 700 600 700>
LayerCount: 2
Fore
SplineSet
200 700 m 1x97
 600 700 l 1x97
 600 600 l 1
 200 600 l 1xab
 200 700 l 1x97
600 600 m 1xa3
 800 600 l 1
 800 500 l 1xa3
 600 500 l 1xc3
 600 600 l 1xa3
800 600 m 1
 800 700 l 1
 900 700 l 1
 900 600 l 1x93
 800 600 l 1
600 500 m 1xc7
 600 400 l 1
 300 400 l 1
 300 500 l 1
 600 500 l 1xc7
600 400 m 1
 700 400 l 1
 700 100 l 1
 600 100 l 1
 600 400 l 1
600 100 m 1
 600 0 l 1
 300 0 l 1
 300 100 l 1
 600 100 l 1
300 100 m 1
 200 100 l 1
 200 400 l 1
 300 400 l 1
 300 100 l 1
200 600 m 1xab
 200 500 l 1
 100 500 l 1
 100 600 l 1
 200 600 l 1xab
EndSplineSet
EndChar

StartChar: odieresis
Encoding: 246 246 247
Width: 700
GlyphClass: 1
Flags: MW
HStem: 0 100<200 500 100 200> 400 100<100 500 200 500 200 500 200 500 200 600> 600 100<200 300 200 300 400 500>
VStem: 100 100<100 400> 200 100<600 700 600 700> 400 100<600 700> 500 100<0 400 100 400 100 500 100 400 100 400>
LayerCount: 2
Fore
SplineSet
200 700 m 1xe8
 300 700 l 1
 300 600 l 1
 200 600 l 1
 200 700 l 1xe8
400 700 m 1xe4
 500 700 l 1
 500 600 l 1
 400 600 l 1
 400 700 l 1xe4
200 500 m 1xe8
 500 500 l 1
 500 400 l 1
 200 400 l 1xf2
 200 500 l 1xe8
500 400 m 1
 600 400 l 1
 600 100 l 1
 500 100 l 1
 500 400 l 1
500 100 m 1
 500 0 l 1
 200 0 l 1xea
 200 100 l 1
 500 100 l 1
200 100 m 1xf0
 100 100 l 1
 100 400 l 1
 200 400 l 1
 200 100 l 1xf0
EndSplineSet
EndChar

StartChar: divide
Encoding: 247 247 248
Width: 700
GlyphClass: 1
Flags: MW
HStem: 100 100<300 400 300 400> 300 100<100 600 100 600> 500 100<300 400 300 400>
VStem: 300 100<100 200 100 200 500 600>
CounterMasks: 1 e0
LayerCount: 2
Fore
SplineSet
300 600 m 1
 400 600 l 1
 400 500 l 1
 300 500 l 1
 300 600 l 1
100 400 m 1
 600 400 l 1
 600 300 l 1
 100 300 l 1
 100 400 l 1
300 200 m 1
 400 200 l 1
 400 100 l 1
 300 100 l 1
 300 200 l 1
EndSplineSet
EndChar

StartChar: oslash
Encoding: 248 248 249
Width: 800
GlyphClass: 1
Flags: MW
HStem: 0 100<100 200 100 200 300 600> 100 100<100 200 200 300 100 200 100 200 300 400> 200 100<200 400 300 400 300 400 300 400> 300 100<300 500 400 500 400 500 400 500> 400 100<400 500 500 600 600 700> 500 100<100 500 200 500 200 500 200 500 200 600 600 700>
VStem: 100 100<0 100 0 100 200 500> 200 100<0 100 0 100 100 200 200 300> 300 100<100 300 200 300 200 300> 400 100<200 400 300 400 300 400> 500 100<300 400 300 300 400 500 500 600> 600 100<0 400 100 400 100 500 100 400 100 400 500 600>
LayerCount: 2
Fore
SplineSet
200 600 m 1x05
 500 600 l 1x0520
 500 500 l 1x0920
 200 500 l 1x0620
 200 600 l 1x05
500 500 m 1x0820
 600 500 l 1
 600 400 l 1x0820
 500 400 l 1x1040
 500 500 l 1x0820
600 500 m 1
 600 600 l 1
 700 600 l 1
 700 500 l 1x0410
 600 500 l 1
600 400 m 1x8820
 700 400 l 1
 700 100 l 1x4810
 600 100 l 1x8010
 600 400 l 1x8820
600 100 m 1x8110
 600 0 l 1
 300 0 l 1x8090
 300 100 l 1
 600 100 l 1x8110
300 100 m 1x81
 200 100 l 1x82
 200 200 l 1x42
 300 200 l 1x41
 300 100 l 1x81
200 100 m 1
 200 0 l 1
 100 0 l 1
 100 100 l 1
 200 100 l 1
200 200 m 1x46
 100 200 l 1x22
 100 500 l 1
 200 500 l 1
 200 200 l 1x46
300 200 m 1x41
 300 300 l 1
 400 300 l 1
 400 200 l 1x2080
 300 200 l 1x41
400 300 m 1
 400 400 l 1
 500 400 l 1
 500 300 l 1x1040
 400 300 l 1
EndSplineSet
EndChar

StartChar: ugrave
Encoding: 249 249 250
Width: 800
GlyphClass: 1
Flags: MW
HStem: 0 100<300 600 200 300> 580 20G<100 200 100 100 200 300 300 300> 580 20G<100 200 100 100 200 300 300 300> 600 100<100 200 100 200 100 300>
VStem: 100 100<600 700> 200 100<100 600> 600 100<0 500 100 500 100 500>
LayerCount: 2
Fore
SplineSet
100 700 m 1x9a
 200 700 l 1x9a
 200 600 l 1xca
 100 600 l 1
 100 700 l 1x9a
200 600 m 1xca
 300 600 l 1
 300 100 l 1
 200 100 l 1xc6
 200 600 l 1xca
300 100 m 1
 600 100 l 1
 600 0 l 1
 300 0 l 1
 300 100 l 1
600 100 m 1
 600 500 l 1
 700 500 l 1
 700 100 l 1
 600 100 l 1
EndSplineSet
EndChar

StartChar: uacute
Encoding: 250 250 251
Width: 800
GlyphClass: 1
Flags: MW
HStem: 0 100<200 500 100 200> 580 20G<500 600 600 700 600 600 600 600> 580 20G<500 600 600 700 600 600 600 600> 600 100<500 700 600 700 600 700 600 700>
VStem: 100 100<100 500> 500 100<0 600 100 600 100 600> 600 100<100 700 600 700 600 700>
LayerCount: 2
Fore
SplineSet
600 700 m 1x9a
 700 700 l 1
 700 600 l 1x9a
 600 600 l 1xcc
 600 700 l 1x9a
600 600 m 1xcc
 600 100 l 1
 500 100 l 1
 500 600 l 1
 600 600 l 1xcc
500 100 m 1
 500 0 l 1
 200 0 l 1
 200 100 l 1
 500 100 l 1
200 100 m 1
 100 100 l 1
 100 500 l 1
 200 500 l 1
 200 100 l 1
EndSplineSet
EndChar

StartChar: ucircumflex
Encoding: 251 251 252
Width: 900
GlyphClass: 1
Flags: MW
HStem: 0 100<300 600 200 300> 500 100<100 200 100 200 700 800> 600 100<100 700 200 700 200 700 200 700 200 800>
VStem: 100 100<500 600> 200 100<100 400> 600 100<0 400 100 400 100 400> 700 100<500 600 500 700 500 600 500 600>
LayerCount: 2
Fore
SplineSet
200 700 m 1xa8
 700 700 l 1xaa
 700 600 l 1
 200 600 l 1xd2
 200 700 l 1xa8
700 600 m 1xc2
 800 600 l 1
 800 500 l 1
 700 500 l 1
 700 600 l 1xc2
200 600 m 1xd0
 200 500 l 1
 100 500 l 1
 100 600 l 1
 200 600 l 1xd0
200 400 m 1x88
 300 400 l 1
 300 100 l 1
 200 100 l 1
 200 400 l 1x88
300 100 m 1
 600 100 l 1
 600 0 l 1x8c
 300 0 l 1
 300 100 l 1
600 100 m 1
 600 400 l 1
 700 400 l 1
 700 100 l 1
 600 100 l 1
EndSplineSet
EndChar

StartChar: udieresis
Encoding: 252 252 253
Width: 700
GlyphClass: 1
Flags: MW
HStem: 0 100<200 500 100 200> 600 100<200 300 200 300 400 500>
VStem: 100 100<100 500> 200 100<600 700 600 700> 400 100<600 700> 500 100<0 500 100 500 100 500>
LayerCount: 2
Fore
SplineSet
200 700 m 1xd0
 300 700 l 1
 300 600 l 1
 200 600 l 1
 200 700 l 1xd0
400 700 m 1xc8
 500 700 l 1
 500 600 l 1
 400 600 l 1
 400 700 l 1xc8
100 500 m 1xe0
 200 500 l 1
 200 100 l 1
 100 100 l 1
 100 500 l 1xe0
200 100 m 1
 500 100 l 1
 500 0 l 1
 200 0 l 1xd4
 200 100 l 1
500 100 m 1
 500 500 l 1
 600 500 l 1
 600 100 l 1
 500 100 l 1
EndSplineSet
EndChar

StartChar: yacute
Encoding: 253 253 254
Width: 700
GlyphClass: 1
Flags: MW
HStem: 0 21G<300 400 300 300> 200 100<200 300 100 200 400 500> 300 200<100 200 100 200 100 300 100 300 500 600> 500 100<300 400 300 400> 600 100<300 500 400 500 400 500 400 500>
VStem: 100 100<300 500> 200 100<200 300> 300 100<0 200 200 300 0 200 0 200 500 600> 400 100<0 300 200 300 200 300 600 700> 500 100<200 500 300 500 300 500>
LayerCount: 2
Fore
SplineSet
400 700 m 1x8880
 500 700 l 1
 500 600 l 1x8880
 400 600 l 1x91
 400 700 l 1x8880
400 600 m 1x91
 400 500 l 1
 300 500 l 1
 300 600 l 1
 400 600 l 1x91
100 500 m 1xa4
 200 500 l 1xa4
 200 300 l 1xc4
 100 300 l 1
 100 500 l 1xa4
200 300 m 1xc4
 300 300 l 1
 300 200 l 1
 200 200 l 1xc2
 200 300 l 1xc4
300 200 m 1
 400 200 l 1
 400 0 l 1
 300 0 l 1xc1
 300 200 l 1
400 200 m 1
 400 300 l 1
 500 300 l 1
 500 200 l 1xc080
 400 200 l 1
500 300 m 1
 500 500 l 1
 600 500 l 1
 600 300 l 1xa040
 500 300 l 1
EndSplineSet
EndChar

StartChar: thorn
Encoding: 254 254 255
Width: 600
GlyphClass: 1
Flags: MW
HStem: 0 21G<100 200 100 100> 100 100<200 400 200 400> 400 100<200 400 200 400 200 500> 580 20G<100 200 200 200> 580 20G<100 200 200 200>
VStem: 100 100<0 100 200 400 500 600> 400 100<100 400 200 400 200 400 200 500 200 400>
LayerCount: 2
Fore
SplineSet
100 600 m 1xf6
 200 600 l 1
 200 500 l 1
 400 500 l 1
 400 400 l 1
 200 400 l 1
 200 200 l 1
 400 200 l 1
 400 100 l 1
 200 100 l 1
 200 0 l 1
 100 0 l 1
 100 600 l 1xf6
400 400 m 1
 500 400 l 1
 500 200 l 1
 400 200 l 1
 400 400 l 1
EndSplineSet
EndChar

StartChar: ydieresis
Encoding: 255 255 256
Width: 700
GlyphClass: 1
Flags: MW
HStem: 0 21G<300 400 300 300> 200 100<200 300 100 200 400 500> 300 200<100 200 100 200 100 300 100 300 500 600> 600 100<200 300 200 300 400 500>
VStem: 100 100<300 500> 200 100<200 300 600 700> 300 100<0 200 200 300 0 200 0 200 600 700> 400 100<0 300 200 300 200 300 600 700> 500 100<200 500 300 500 300 500>
LayerCount: 2
Fore
SplineSet
200 700 m 1x94
 300 700 l 1
 300 600 l 1
 200 600 l 1
 200 700 l 1x94
400 700 m 1x91
 500 700 l 1
 500 600 l 1
 400 600 l 1
 400 700 l 1x91
100 500 m 1xb8
 200 500 l 1xb8
 200 300 l 1xd8
 100 300 l 1
 100 500 l 1xb8
200 300 m 1xd8
 300 300 l 1
 300 200 l 1
 200 200 l 1xd4
 200 300 l 1xd8
300 200 m 1
 400 200 l 1
 400 0 l 1
 300 0 l 1xd2
 300 200 l 1
400 200 m 1
 400 300 l 1
 500 300 l 1
 500 200 l 1xd1
 400 200 l 1
500 300 m 1
 500 500 l 1
 600 500 l 1
 600 300 l 1xb080
 500 300 l 1
EndSplineSet
EndChar

StartChar: napostrophe
Encoding: 329 329 257
Width: 900
GlyphClass: 1
Flags: MW
HStem: 0 21G<300 400 300 300 700 800 700 700> 400 100<400 500 400 400> 500 100<100 200 100 200 500 700> 600 100<100 300 200 300 200 300 200 300>
VStem: 100 100<500 600 500 600> 200 100<0 600 0 500 600 700> 300 100<0 400 0 500> 700 100<0 500 0 600 0 500 0 500>
LayerCount: 2
Fore
SplineSet
200 700 m 1x95
 300 700 l 1
 300 600 l 1x95
 200 600 l 1xa9
 200 700 l 1x95
200 600 m 1xa9
 200 500 l 1
 100 500 l 1
 100 600 l 1
 200 600 l 1xa9
500 600 m 1
 700 600 l 1
 700 500 l 1xa1
 500 500 l 1xc1
 500 600 l 1
700 500 m 1
 800 500 l 1
 800 0 l 1
 700 0 l 1
 700 500 l 1
500 500 m 1xc3
 500 400 l 1
 400 400 l 1xc3
 400 0 l 1
 300 0 l 1
 300 500 l 1xa3
 500 500 l 1xc3
EndSplineSet
EndChar

StartChar: Ldot
Encoding: 319 319 258
Width: 600
GlyphClass: 1
Flags: MW
HStem: 0 100<200 500 200 500> 400 100<400 500 400 500> 680 20G<100 200 200 200>
VStem: 100 100<100 700 100 700 100 700> 400 100<400 500>
LayerCount: 2
Fore
SplineSet
100 700 m 1
 200 700 l 1
 200 100 l 1
 500 100 l 1
 500 0 l 1
 100 0 l 1
 100 700 l 1
400 500 m 1
 500 500 l 1
 500 400 l 1
 400 400 l 1
 400 500 l 1
EndSplineSet
EndChar

StartChar: ldot
Encoding: 320 320 259
Width: 600
GlyphClass: 1
Flags: MW
HStem: 0 100<200 400 100 200> 400 100<400 500 400 500> 580 20G<100 200 200 200> 580 20G<100 200 200 200>
VStem: 100 100<100 600> 400 100<400 500 400 500>
LayerCount: 2
Fore
SplineSet
100 600 m 1xec
 200 600 l 1
 200 100 l 1
 100 100 l 1
 100 600 l 1xec
200 100 m 1
 400 100 l 1
 400 0 l 1
 200 0 l 1
 200 100 l 1
400 500 m 1
 500 500 l 1
 500 400 l 1
 400 400 l 1
 400 500 l 1
EndSplineSet
EndChar

StartChar: IJ
Encoding: 306 306 260
Width: 1000
GlyphClass: 1
Flags: MW
HStem: 0 100<100 200 300 400 100 200 500 700> 600 100<100 200 100 400 300 400 300 300 500 700 800 800 800 900>
VStem: 200 100<100 600 100 600> 700 100<0 600 100 600 100 600>
LayerCount: 2
Fore
SplineSet
100 700 m 1
 400 700 l 1
 400 600 l 1
 300 600 l 1
 300 100 l 1
 400 100 l 1
 400 0 l 1
 100 0 l 1
 100 100 l 1
 200 100 l 1
 200 600 l 1
 100 600 l 1
 100 700 l 1
500 700 m 1
 900 700 l 1
 900 600 l 1
 800 600 l 1
 800 100 l 1
 700 100 l 1
 700 600 l 1
 500 600 l 1
 500 700 l 1
700 100 m 1
 700 0 l 1
 500 0 l 1
 500 100 l 1
 700 100 l 1
EndSplineSet
EndChar

StartChar: ij
Encoding: 307 307 261
Width: 800
GlyphClass: 1
Flags: MW
HStem: -100 100<400 500 100 400> 0 100<100 200 300 400 100 200> 400 100<100 200 100 300> 500 100<200 300 200 300 200 300 400 500 600 700 600 600> 600 100<200 300 200 300>
VStem: 200 100<100 400 400 400 600 700> 400 100<-100 0 0 100 -100 0 -100 0>
LayerCount: 2
Fore
SplineSet
200 700 m 1x0e
 300 700 l 1
 300 600 l 1
 200 600 l 1
 200 700 l 1x0e
400 600 m 1x96
 700 600 l 1
 700 500 l 1
 600 500 l 1
 600 0 l 1x56
 500 0 l 1
 500 500 l 1
 400 500 l 1
 400 600 l 1x96
500 0 m 1x86
 500 -100 l 1
 400 -100 l 1
 400 0 l 1
 500 0 l 1x86
400 0 m 1
 100 0 l 1
 100 100 l 1
 200 100 l 1
 200 400 l 1
 100 400 l 1
 100 500 l 1x66
 300 500 l 1
 300 100 l 1
 400 100 l 1x56
 400 0 l 1
EndSplineSet
EndChar
